%FSLAX45Y45*%
G04 Gerber Fmt 4.5, Leading zero omitted, Abs format (unit mm)*
G04 Created by KiCad (PCBNEW (5.99.0-10682-g4bb4606811)) date 2021-08-27 09:32:56*
%MOMM*%
%LPD*%
G01*
G04 APERTURE LIST*
%TA.AperFunction,Profile*%
%ADD10C,0.100000*%
%TD*%
%ADD11C,0.200000*%
%ADD12C,0.060000*%
G04 APERTURE END LIST*
D10*
X13025000Y-2950000D02*
X13025000Y-6250000D01*
X3025000Y-2950000D02*
X13025000Y-2950000D01*
X3025000Y-6250000D02*
X3025000Y-2950000D01*
X13025000Y-6250000D02*
X3025000Y-6250000D01*
D11*
D12*
X12475000Y-4281000D02*
X12535000Y-4341000D01*
X12535000Y-4281000D02*
X12475000Y-4341000D01*
X12475000Y-4859000D02*
X12535000Y-4919000D01*
X12535000Y-4859000D02*
X12475000Y-4919000D01*
D11*
X3277619Y-6565476D02*
X3277619Y-6365476D01*
X3325238Y-6365476D01*
X3353809Y-6375000D01*
X3372857Y-6394048D01*
X3382381Y-6413095D01*
X3391905Y-6451190D01*
X3391905Y-6479762D01*
X3382381Y-6517857D01*
X3372857Y-6536905D01*
X3353809Y-6555952D01*
X3325238Y-6565476D01*
X3277619Y-6565476D01*
X3477619Y-6565476D02*
X3477619Y-6432143D01*
X3477619Y-6470238D02*
X3487143Y-6451190D01*
X3496667Y-6441667D01*
X3515714Y-6432143D01*
X3534762Y-6432143D01*
X3601428Y-6565476D02*
X3601428Y-6432143D01*
X3601428Y-6365476D02*
X3591905Y-6375000D01*
X3601428Y-6384524D01*
X3610952Y-6375000D01*
X3601428Y-6365476D01*
X3601428Y-6384524D01*
X3725238Y-6565476D02*
X3706190Y-6555952D01*
X3696667Y-6536905D01*
X3696667Y-6365476D01*
X3830000Y-6565476D02*
X3810952Y-6555952D01*
X3801428Y-6536905D01*
X3801428Y-6365476D01*
X4058571Y-6565476D02*
X4058571Y-6365476D01*
X4125238Y-6508333D01*
X4191905Y-6365476D01*
X4191905Y-6565476D01*
X4372857Y-6565476D02*
X4372857Y-6460714D01*
X4363333Y-6441667D01*
X4344286Y-6432143D01*
X4306190Y-6432143D01*
X4287143Y-6441667D01*
X4372857Y-6555952D02*
X4353810Y-6565476D01*
X4306190Y-6565476D01*
X4287143Y-6555952D01*
X4277619Y-6536905D01*
X4277619Y-6517857D01*
X4287143Y-6498809D01*
X4306190Y-6489286D01*
X4353810Y-6489286D01*
X4372857Y-6479762D01*
X4468095Y-6432143D02*
X4468095Y-6632143D01*
X4468095Y-6441667D02*
X4487143Y-6432143D01*
X4525238Y-6432143D01*
X4544286Y-6441667D01*
X4553810Y-6451190D01*
X4563333Y-6470238D01*
X4563333Y-6527381D01*
X4553810Y-6546428D01*
X4544286Y-6555952D01*
X4525238Y-6565476D01*
X4487143Y-6565476D01*
X4468095Y-6555952D01*
X4649048Y-6546428D02*
X4658571Y-6555952D01*
X4649048Y-6565476D01*
X4639524Y-6555952D01*
X4649048Y-6546428D01*
X4649048Y-6565476D01*
X4649048Y-6441667D02*
X4658571Y-6451190D01*
X4649048Y-6460714D01*
X4639524Y-6451190D01*
X4649048Y-6441667D01*
X4649048Y-6460714D01*
D12*
X2960000Y-6865000D02*
X3020000Y-6925000D01*
X3020000Y-6865000D02*
X2960000Y-6925000D01*
D11*
X3315714Y-6785476D02*
X3334762Y-6785476D01*
X3353809Y-6795000D01*
X3363333Y-6804524D01*
X3372857Y-6823571D01*
X3382381Y-6861667D01*
X3382381Y-6909286D01*
X3372857Y-6947381D01*
X3363333Y-6966428D01*
X3353809Y-6975952D01*
X3334762Y-6985476D01*
X3315714Y-6985476D01*
X3296667Y-6975952D01*
X3287143Y-6966428D01*
X3277619Y-6947381D01*
X3268095Y-6909286D01*
X3268095Y-6861667D01*
X3277619Y-6823571D01*
X3287143Y-6804524D01*
X3296667Y-6795000D01*
X3315714Y-6785476D01*
X3468095Y-6966428D02*
X3477619Y-6975952D01*
X3468095Y-6985476D01*
X3458571Y-6975952D01*
X3468095Y-6966428D01*
X3468095Y-6985476D01*
X3649048Y-6785476D02*
X3610952Y-6785476D01*
X3591905Y-6795000D01*
X3582381Y-6804524D01*
X3563333Y-6833095D01*
X3553809Y-6871190D01*
X3553809Y-6947381D01*
X3563333Y-6966428D01*
X3572857Y-6975952D01*
X3591905Y-6985476D01*
X3630000Y-6985476D01*
X3649048Y-6975952D01*
X3658571Y-6966428D01*
X3668095Y-6947381D01*
X3668095Y-6899762D01*
X3658571Y-6880714D01*
X3649048Y-6871190D01*
X3630000Y-6861667D01*
X3591905Y-6861667D01*
X3572857Y-6871190D01*
X3563333Y-6880714D01*
X3553809Y-6899762D01*
X3791905Y-6785476D02*
X3810952Y-6785476D01*
X3830000Y-6795000D01*
X3839524Y-6804524D01*
X3849048Y-6823571D01*
X3858571Y-6861667D01*
X3858571Y-6909286D01*
X3849048Y-6947381D01*
X3839524Y-6966428D01*
X3830000Y-6975952D01*
X3810952Y-6985476D01*
X3791905Y-6985476D01*
X3772857Y-6975952D01*
X3763333Y-6966428D01*
X3753809Y-6947381D01*
X3744286Y-6909286D01*
X3744286Y-6861667D01*
X3753809Y-6823571D01*
X3763333Y-6804524D01*
X3772857Y-6795000D01*
X3791905Y-6785476D01*
X3982381Y-6785476D02*
X4001428Y-6785476D01*
X4020476Y-6795000D01*
X4030000Y-6804524D01*
X4039524Y-6823571D01*
X4049048Y-6861667D01*
X4049048Y-6909286D01*
X4039524Y-6947381D01*
X4030000Y-6966428D01*
X4020476Y-6975952D01*
X4001428Y-6985476D01*
X3982381Y-6985476D01*
X3963333Y-6975952D01*
X3953809Y-6966428D01*
X3944286Y-6947381D01*
X3934762Y-6909286D01*
X3934762Y-6861667D01*
X3944286Y-6823571D01*
X3953809Y-6804524D01*
X3963333Y-6795000D01*
X3982381Y-6785476D01*
X4134762Y-6985476D02*
X4134762Y-6852143D01*
X4134762Y-6871190D02*
X4144286Y-6861667D01*
X4163333Y-6852143D01*
X4191905Y-6852143D01*
X4210952Y-6861667D01*
X4220476Y-6880714D01*
X4220476Y-6985476D01*
X4220476Y-6880714D02*
X4230000Y-6861667D01*
X4249048Y-6852143D01*
X4277619Y-6852143D01*
X4296667Y-6861667D01*
X4306190Y-6880714D01*
X4306190Y-6985476D01*
X4401429Y-6985476D02*
X4401429Y-6852143D01*
X4401429Y-6871190D02*
X4410952Y-6861667D01*
X4430000Y-6852143D01*
X4458571Y-6852143D01*
X4477619Y-6861667D01*
X4487143Y-6880714D01*
X4487143Y-6985476D01*
X4487143Y-6880714D02*
X4496667Y-6861667D01*
X4515714Y-6852143D01*
X4544286Y-6852143D01*
X4563333Y-6861667D01*
X4572857Y-6880714D01*
X4572857Y-6985476D01*
X4963333Y-6775952D02*
X4791905Y-7033095D01*
X5220476Y-6785476D02*
X5239524Y-6785476D01*
X5258571Y-6795000D01*
X5268095Y-6804524D01*
X5277619Y-6823571D01*
X5287143Y-6861667D01*
X5287143Y-6909286D01*
X5277619Y-6947381D01*
X5268095Y-6966428D01*
X5258571Y-6975952D01*
X5239524Y-6985476D01*
X5220476Y-6985476D01*
X5201429Y-6975952D01*
X5191905Y-6966428D01*
X5182381Y-6947381D01*
X5172857Y-6909286D01*
X5172857Y-6861667D01*
X5182381Y-6823571D01*
X5191905Y-6804524D01*
X5201429Y-6795000D01*
X5220476Y-6785476D01*
X5372857Y-6966428D02*
X5382381Y-6975952D01*
X5372857Y-6985476D01*
X5363333Y-6975952D01*
X5372857Y-6966428D01*
X5372857Y-6985476D01*
X5506190Y-6785476D02*
X5525238Y-6785476D01*
X5544286Y-6795000D01*
X5553810Y-6804524D01*
X5563333Y-6823571D01*
X5572857Y-6861667D01*
X5572857Y-6909286D01*
X5563333Y-6947381D01*
X5553810Y-6966428D01*
X5544286Y-6975952D01*
X5525238Y-6985476D01*
X5506190Y-6985476D01*
X5487143Y-6975952D01*
X5477619Y-6966428D01*
X5468095Y-6947381D01*
X5458571Y-6909286D01*
X5458571Y-6861667D01*
X5468095Y-6823571D01*
X5477619Y-6804524D01*
X5487143Y-6795000D01*
X5506190Y-6785476D01*
X5649048Y-6804524D02*
X5658571Y-6795000D01*
X5677619Y-6785476D01*
X5725238Y-6785476D01*
X5744286Y-6795000D01*
X5753809Y-6804524D01*
X5763333Y-6823571D01*
X5763333Y-6842619D01*
X5753809Y-6871190D01*
X5639524Y-6985476D01*
X5763333Y-6985476D01*
X5830000Y-6785476D02*
X5953809Y-6785476D01*
X5887143Y-6861667D01*
X5915714Y-6861667D01*
X5934762Y-6871190D01*
X5944286Y-6880714D01*
X5953809Y-6899762D01*
X5953809Y-6947381D01*
X5944286Y-6966428D01*
X5934762Y-6975952D01*
X5915714Y-6985476D01*
X5858571Y-6985476D01*
X5839524Y-6975952D01*
X5830000Y-6966428D01*
X6125238Y-6785476D02*
X6087143Y-6785476D01*
X6068095Y-6795000D01*
X6058571Y-6804524D01*
X6039524Y-6833095D01*
X6030000Y-6871190D01*
X6030000Y-6947381D01*
X6039524Y-6966428D01*
X6049048Y-6975952D01*
X6068095Y-6985476D01*
X6106190Y-6985476D01*
X6125238Y-6975952D01*
X6134762Y-6966428D01*
X6144286Y-6947381D01*
X6144286Y-6899762D01*
X6134762Y-6880714D01*
X6125238Y-6871190D01*
X6106190Y-6861667D01*
X6068095Y-6861667D01*
X6049048Y-6871190D01*
X6039524Y-6880714D01*
X6030000Y-6899762D01*
X6220476Y-6785476D02*
X6220476Y-6823571D01*
X6296667Y-6785476D02*
X6296667Y-6823571D01*
X6591905Y-7061667D02*
X6582381Y-7052143D01*
X6563333Y-7023571D01*
X6553809Y-7004524D01*
X6544286Y-6975952D01*
X6534762Y-6928333D01*
X6534762Y-6890238D01*
X6544286Y-6842619D01*
X6553809Y-6814048D01*
X6563333Y-6795000D01*
X6582381Y-6766428D01*
X6591905Y-6756905D01*
X6658571Y-6804524D02*
X6668095Y-6795000D01*
X6687143Y-6785476D01*
X6734762Y-6785476D01*
X6753809Y-6795000D01*
X6763333Y-6804524D01*
X6772857Y-6823571D01*
X6772857Y-6842619D01*
X6763333Y-6871190D01*
X6649048Y-6985476D01*
X6772857Y-6985476D01*
X7010952Y-6985476D02*
X7010952Y-6785476D01*
X7096667Y-6985476D02*
X7096667Y-6880714D01*
X7087143Y-6861667D01*
X7068095Y-6852143D01*
X7039524Y-6852143D01*
X7020476Y-6861667D01*
X7010952Y-6871190D01*
X7220476Y-6985476D02*
X7201428Y-6975952D01*
X7191905Y-6966428D01*
X7182381Y-6947381D01*
X7182381Y-6890238D01*
X7191905Y-6871190D01*
X7201428Y-6861667D01*
X7220476Y-6852143D01*
X7249048Y-6852143D01*
X7268095Y-6861667D01*
X7277619Y-6871190D01*
X7287143Y-6890238D01*
X7287143Y-6947381D01*
X7277619Y-6966428D01*
X7268095Y-6975952D01*
X7249048Y-6985476D01*
X7220476Y-6985476D01*
X7401428Y-6985476D02*
X7382381Y-6975952D01*
X7372857Y-6956905D01*
X7372857Y-6785476D01*
X7553809Y-6975952D02*
X7534762Y-6985476D01*
X7496667Y-6985476D01*
X7477619Y-6975952D01*
X7468095Y-6956905D01*
X7468095Y-6880714D01*
X7477619Y-6861667D01*
X7496667Y-6852143D01*
X7534762Y-6852143D01*
X7553809Y-6861667D01*
X7563333Y-6880714D01*
X7563333Y-6899762D01*
X7468095Y-6918809D01*
X7639524Y-6975952D02*
X7658571Y-6985476D01*
X7696667Y-6985476D01*
X7715714Y-6975952D01*
X7725238Y-6956905D01*
X7725238Y-6947381D01*
X7715714Y-6928333D01*
X7696667Y-6918809D01*
X7668095Y-6918809D01*
X7649048Y-6909286D01*
X7639524Y-6890238D01*
X7639524Y-6880714D01*
X7649048Y-6861667D01*
X7668095Y-6852143D01*
X7696667Y-6852143D01*
X7715714Y-6861667D01*
X7791905Y-7061667D02*
X7801428Y-7052143D01*
X7820476Y-7023571D01*
X7830000Y-7004524D01*
X7839524Y-6975952D01*
X7849048Y-6928333D01*
X7849048Y-6890238D01*
X7839524Y-6842619D01*
X7830000Y-6814048D01*
X7820476Y-6795000D01*
X7801428Y-6766428D01*
X7791905Y-6756905D01*
X8153809Y-7061667D02*
X8144286Y-7052143D01*
X8125238Y-7023571D01*
X8115714Y-7004524D01*
X8106190Y-6975952D01*
X8096667Y-6928333D01*
X8096667Y-6890238D01*
X8106190Y-6842619D01*
X8115714Y-6814048D01*
X8125238Y-6795000D01*
X8144286Y-6766428D01*
X8153809Y-6756905D01*
X8230000Y-6852143D02*
X8230000Y-6985476D01*
X8230000Y-6871190D02*
X8239524Y-6861667D01*
X8258571Y-6852143D01*
X8287143Y-6852143D01*
X8306190Y-6861667D01*
X8315714Y-6880714D01*
X8315714Y-6985476D01*
X8439524Y-6985476D02*
X8420476Y-6975952D01*
X8410952Y-6966428D01*
X8401429Y-6947381D01*
X8401429Y-6890238D01*
X8410952Y-6871190D01*
X8420476Y-6861667D01*
X8439524Y-6852143D01*
X8468095Y-6852143D01*
X8487143Y-6861667D01*
X8496667Y-6871190D01*
X8506190Y-6890238D01*
X8506190Y-6947381D01*
X8496667Y-6966428D01*
X8487143Y-6975952D01*
X8468095Y-6985476D01*
X8439524Y-6985476D01*
X8563333Y-6852143D02*
X8639524Y-6852143D01*
X8591905Y-6785476D02*
X8591905Y-6956905D01*
X8601429Y-6975952D01*
X8620476Y-6985476D01*
X8639524Y-6985476D01*
X8858571Y-6852143D02*
X8858571Y-7052143D01*
X8858571Y-6861667D02*
X8877619Y-6852143D01*
X8915714Y-6852143D01*
X8934762Y-6861667D01*
X8944286Y-6871190D01*
X8953810Y-6890238D01*
X8953810Y-6947381D01*
X8944286Y-6966428D01*
X8934762Y-6975952D01*
X8915714Y-6985476D01*
X8877619Y-6985476D01*
X8858571Y-6975952D01*
X9068095Y-6985476D02*
X9049048Y-6975952D01*
X9039524Y-6956905D01*
X9039524Y-6785476D01*
X9230000Y-6985476D02*
X9230000Y-6880714D01*
X9220476Y-6861667D01*
X9201429Y-6852143D01*
X9163333Y-6852143D01*
X9144286Y-6861667D01*
X9230000Y-6975952D02*
X9210952Y-6985476D01*
X9163333Y-6985476D01*
X9144286Y-6975952D01*
X9134762Y-6956905D01*
X9134762Y-6937857D01*
X9144286Y-6918809D01*
X9163333Y-6909286D01*
X9210952Y-6909286D01*
X9230000Y-6899762D01*
X9296667Y-6852143D02*
X9372857Y-6852143D01*
X9325238Y-6785476D02*
X9325238Y-6956905D01*
X9334762Y-6975952D01*
X9353810Y-6985476D01*
X9372857Y-6985476D01*
X9515714Y-6975952D02*
X9496667Y-6985476D01*
X9458571Y-6985476D01*
X9439524Y-6975952D01*
X9430000Y-6956905D01*
X9430000Y-6880714D01*
X9439524Y-6861667D01*
X9458571Y-6852143D01*
X9496667Y-6852143D01*
X9515714Y-6861667D01*
X9525238Y-6880714D01*
X9525238Y-6899762D01*
X9430000Y-6918809D01*
X9696667Y-6985476D02*
X9696667Y-6785476D01*
X9696667Y-6975952D02*
X9677619Y-6985476D01*
X9639524Y-6985476D01*
X9620476Y-6975952D01*
X9610952Y-6966428D01*
X9601429Y-6947381D01*
X9601429Y-6890238D01*
X9610952Y-6871190D01*
X9620476Y-6861667D01*
X9639524Y-6852143D01*
X9677619Y-6852143D01*
X9696667Y-6861667D01*
X9772857Y-7061667D02*
X9782381Y-7052143D01*
X9801429Y-7023571D01*
X9810952Y-7004524D01*
X9820476Y-6975952D01*
X9830000Y-6928333D01*
X9830000Y-6890238D01*
X9820476Y-6842619D01*
X9810952Y-6814048D01*
X9801429Y-6795000D01*
X9782381Y-6766428D01*
X9772857Y-6756905D01*
M02*
