M48
; DRILL file {KiCad (5.99.0-10682-g4bb4606811)} date Friday, August 27, 2021 at 09:32:55 AM
; FORMAT={-:-/ absolute / metric / decimal}
; #@! TF.CreationDate,2021-08-27T09:32:55+01:00
; #@! TF.GenerationSoftware,Kicad,Pcbnew,(5.99.0-10682-g4bb4606811)
; #@! TF.FileFunction,Plated,1,4,PTH
FMAT,2
METRIC
; #@! TA.AperFunction,Plated,PTH,ViaDrill
T1C0.200
; #@! TA.AperFunction,Plated,PTH,ViaDrill
T2C0.300
; #@! TA.AperFunction,Plated,PTH,ComponentDrill
T3C0.600
; #@! TA.AperFunction,Plated,PTH,ComponentDrill
T4C0.800
; #@! TA.AperFunction,Plated,PTH,ComponentDrill
T5C1.000
; #@! TA.AperFunction,Plated,PTH,ComponentDrill
T6C1.100
; #@! TA.AperFunction,Plated,PTH,ComponentDrill
T7C2.200
; #@! TA.AperFunction,Plated,PTH,ComponentDrill
T8C2.700
%
G90
G05
T1
X37.8Y-57.325
X37.825Y-58.925
X37.825Y-60.575
X40.995Y-57.495
X40.995Y-58.505
X42.1Y-33.1
X42.9Y-33.1
X44.1Y-53.1
X51.35Y-52.45
X58.0Y-60.7
X58.8Y-51.3
X65.0Y-40.6
X67.6Y-34.9
X67.6Y-37.6
X82.6Y-51.2
X91.75Y-33.05
X95.2Y-31.7
X95.2Y-33.9
X98.1Y-56.0
X98.1Y-57.9
X98.1Y-60.2
X100.4Y-32.875
X100.4Y-34.0
X100.6Y-37.0
X105.6Y-55.0
X105.6Y-55.8
X106.0Y-53.7
X106.3Y-33.0
X107.1Y-57.1
X107.45Y-34.8
X107.45Y-35.55
X107.512Y-33.262
X107.6Y-31.725
X108.25Y-56.637
X108.9Y-59.5
X110.0Y-40.0
X110.0Y-47.25
X110.0Y-56.0
X110.8Y-54.225
X111.2Y-32.4
X111.2Y-33.2
X111.2Y-34.0
X111.2Y-34.8
X111.2Y-35.6
X111.4Y-40.0
X111.4Y-47.25
X112.0Y-32.4
X112.0Y-33.2
X112.0Y-34.0
X112.0Y-34.8
X112.0Y-35.6
X112.3Y-40.0
X112.3Y-47.25
X112.8Y-32.4
X112.8Y-33.2
X112.8Y-34.0
X112.8Y-34.8
X112.8Y-35.6
X112.95Y-56.925
X113.75Y-55.05
X113.775Y-49.425
X113.85Y-40.0
X114.05Y-53.75
X114.1Y-57.2
X114.575Y-57.9
X115.45Y-39.4
X115.575Y-61.2
X115.8Y-55.3
X116.375Y-31.725
X116.4Y-34.325
X116.5Y-30.8
X116.7Y-36.9
X116.75Y-54.35
X116.75Y-56.25
X117.225Y-61.2
X117.5Y-36.9
X117.6Y-33.4
X117.7Y-55.3
X117.9Y-58.7
X118.1Y-36.25
X118.15Y-52.3
X118.4Y-46.2
X118.4Y-47.1
X118.7Y-50.0
X118.7Y-58.7
X119.05Y-48.1
X119.2Y-32.3
X119.2Y-52.2
X119.7Y-46.825
X119.9Y-55.1
X119.9Y-56.05
X119.9Y-56.9
X119.95Y-57.85
X120.2Y-58.85
X120.6Y-32.3
X122.1Y-32.3
X122.945Y-58.155
X126.0Y-44.25
X126.0Y-47.25
X127.7Y-40.3
T2
X46.2Y-40.9
X46.2Y-41.8
X46.2Y-48.0
X46.2Y-48.9
X47.1Y-40.9
X47.1Y-41.8
X47.1Y-48.0
X47.1Y-48.9
X50.5Y-38.7
X50.5Y-39.6
X50.5Y-40.5
X50.5Y-41.4
X50.5Y-42.3
X50.5Y-43.2
X50.5Y-45.8
X50.5Y-46.7
X50.5Y-47.6
X50.5Y-48.5
X50.5Y-49.4
X50.5Y-50.3
X51.4Y-30.7
X51.4Y-31.6
X51.4Y-32.6
X51.4Y-33.5
X51.4Y-38.7
X51.4Y-39.6
X51.4Y-40.5
X51.4Y-41.4
X51.4Y-42.3
X51.4Y-43.2
X51.4Y-45.8
X51.4Y-46.7
X51.4Y-47.6
X51.4Y-48.5
X51.4Y-49.4
X51.4Y-50.3
X52.3Y-30.7
X52.3Y-31.6
X52.3Y-32.6
X52.3Y-33.5
X52.3Y-34.4
X52.3Y-38.7
X52.3Y-39.6
X52.3Y-40.5
X52.3Y-41.4
X52.3Y-42.3
X52.3Y-43.2
X52.3Y-45.8
X52.3Y-46.7
X52.3Y-47.6
X52.3Y-48.5
X52.3Y-49.4
X52.3Y-50.3
X53.2Y-38.7
X53.2Y-39.6
X53.2Y-40.5
X53.2Y-41.4
X53.2Y-42.3
X53.2Y-43.2
X53.2Y-45.8
X53.2Y-46.7
X53.2Y-47.6
X53.2Y-48.5
X53.2Y-49.4
X53.2Y-50.3
X53.3Y-30.7
X54.1Y-38.7
X54.1Y-39.6
X54.1Y-40.5
X54.1Y-41.4
X54.1Y-42.3
X54.1Y-43.2
X54.1Y-45.8
X54.1Y-46.7
X54.1Y-47.6
X54.1Y-48.5
X54.1Y-49.4
X54.1Y-50.3
X54.2Y-30.7
X55.0Y-38.7
X55.0Y-39.6
X55.0Y-40.5
X55.0Y-41.4
X55.0Y-42.3
X55.0Y-43.2
X55.0Y-45.8
X55.0Y-46.7
X55.0Y-47.6
X55.0Y-48.5
X55.0Y-49.4
X55.0Y-50.3
X68.0Y-39.3
X69.1Y-39.3
X70.2Y-39.3
X70.2Y-39.3
X70.8Y-42.7
X70.8Y-45.2
X70.8Y-47.7
X70.8Y-50.2
X72.25Y-55.5
X72.25Y-56.4
X72.25Y-57.3
X72.25Y-58.2
X72.25Y-59.1
X72.25Y-60.0
X73.15Y-55.5
X73.15Y-56.4
X73.15Y-57.3
X73.15Y-58.2
X73.15Y-59.1
X73.15Y-60.0
X73.6Y-42.0
X73.6Y-43.3
X73.6Y-44.6
X73.6Y-45.9
X73.6Y-47.2
X73.6Y-48.5
X73.6Y-49.8
X74.05Y-55.5
X74.05Y-56.4
X74.05Y-57.3
X74.05Y-58.2
X74.05Y-59.1
X74.05Y-60.0
X74.9Y-42.0
X74.9Y-43.3
X74.9Y-44.6
X74.9Y-45.9
X74.9Y-47.2
X74.9Y-48.5
X74.9Y-49.8
X74.95Y-55.5
X74.95Y-56.4
X74.95Y-57.3
X74.95Y-58.2
X74.95Y-59.1
X74.95Y-60.0
X75.85Y-55.5
X75.85Y-56.4
X75.85Y-57.3
X75.85Y-58.2
X75.85Y-59.1
X75.85Y-60.0
X76.6Y-31.5
X76.6Y-32.4
X76.6Y-33.3
X76.6Y-34.2
X76.6Y-35.1
X76.6Y-36.0
X76.75Y-55.5
X76.75Y-56.4
X76.75Y-57.3
X76.75Y-58.2
X76.75Y-59.1
X76.75Y-60.0
X77.5Y-31.5
X77.5Y-32.4
X77.5Y-33.3
X77.5Y-34.2
X77.5Y-35.1
X77.5Y-36.0
X78.4Y-31.5
X78.4Y-32.4
X78.4Y-33.3
X78.4Y-34.2
X78.4Y-35.1
X78.4Y-36.0
X79.3Y-31.5
X79.3Y-32.4
X79.3Y-33.3
X79.3Y-34.2
X79.3Y-35.1
X79.3Y-36.0
X80.2Y-31.5
X80.2Y-32.4
X80.2Y-33.3
X80.2Y-34.2
X80.2Y-35.1
X80.2Y-36.0
X81.1Y-31.5
X81.1Y-32.4
X81.1Y-33.3
X81.1Y-34.2
X81.1Y-35.1
X81.1Y-36.0
X84.0Y-31.5
X84.0Y-32.4
X84.0Y-33.3
X84.0Y-34.2
X84.0Y-35.1
X84.0Y-36.0
X84.9Y-31.5
X84.9Y-32.4
X84.9Y-33.3
X84.9Y-34.2
X84.9Y-35.1
X84.9Y-36.0
X85.8Y-31.5
X85.8Y-32.4
X85.8Y-33.3
X85.8Y-34.2
X85.8Y-35.1
X85.8Y-36.0
X86.7Y-31.5
X86.7Y-32.4
X86.7Y-33.3
X86.7Y-34.2
X86.7Y-35.1
X86.7Y-36.0
X87.6Y-31.5
X87.6Y-32.4
X87.6Y-33.3
X87.6Y-34.2
X87.6Y-35.1
X87.6Y-36.0
X88.25Y-55.5
X88.25Y-56.4
X88.25Y-57.3
X88.25Y-58.2
X88.25Y-59.1
X88.25Y-60.0
X88.5Y-31.5
X88.5Y-32.4
X88.5Y-33.3
X88.5Y-34.2
X88.5Y-35.1
X88.5Y-36.0
X89.15Y-55.5
X89.15Y-56.4
X89.15Y-57.3
X89.15Y-58.2
X89.15Y-59.1
X89.15Y-60.0
X90.05Y-55.5
X90.05Y-56.4
X90.05Y-57.3
X90.05Y-58.2
X90.05Y-59.1
X90.05Y-60.0
X90.1Y-42.0
X90.1Y-43.3
X90.1Y-44.6
X90.1Y-45.9
X90.1Y-47.2
X90.1Y-48.5
X90.95Y-55.5
X90.95Y-56.4
X90.95Y-57.3
X90.95Y-58.2
X90.95Y-59.1
X90.95Y-60.0
X91.4Y-42.0
X91.4Y-43.3
X91.4Y-44.6
X91.4Y-45.9
X91.4Y-47.2
X91.4Y-48.5
X91.85Y-55.5
X91.85Y-56.4
X91.85Y-57.3
X91.85Y-58.2
X91.85Y-59.1
X91.85Y-60.0
X92.75Y-55.5
X92.75Y-56.4
X92.75Y-57.3
X92.75Y-58.2
X92.75Y-59.1
X92.75Y-60.0
X94.7Y-40.1
X95.7Y-40.1
X103.25Y-40.0
X103.25Y-40.9
X103.25Y-41.8
X103.25Y-42.7
X103.25Y-43.6
X103.25Y-44.5
X103.25Y-47.4
X103.25Y-48.3
X103.25Y-49.2
X103.25Y-50.1
X103.25Y-51.0
X103.25Y-51.9
X104.15Y-40.0
X104.15Y-40.9
X104.15Y-41.8
X104.15Y-42.7
X104.15Y-43.6
X104.15Y-44.5
X104.15Y-47.4
X104.15Y-48.3
X104.15Y-49.2
X104.15Y-50.1
X104.15Y-51.0
X104.15Y-51.9
X105.05Y-40.0
X105.05Y-40.9
X105.05Y-41.8
X105.05Y-42.7
X105.05Y-43.6
X105.05Y-44.5
X105.05Y-47.4
X105.05Y-48.3
X105.05Y-49.2
X105.05Y-50.1
X105.05Y-51.0
X105.05Y-51.9
X105.95Y-40.0
X105.95Y-40.9
X105.95Y-41.8
X105.95Y-42.7
X105.95Y-43.6
X105.95Y-44.5
X105.95Y-47.4
X105.95Y-48.3
X105.95Y-49.2
X105.95Y-50.1
X105.95Y-51.0
X105.95Y-51.9
X106.85Y-40.0
X106.85Y-40.9
X106.85Y-41.8
X106.85Y-42.7
X106.85Y-43.6
X106.85Y-44.5
X106.85Y-47.4
X106.85Y-48.3
X106.85Y-49.2
X106.85Y-50.1
X106.85Y-51.0
X106.85Y-51.9
X107.75Y-40.0
X107.75Y-40.9
X107.75Y-41.8
X107.75Y-42.7
X107.75Y-43.6
X107.75Y-44.5
X107.75Y-47.4
X107.75Y-48.3
X107.75Y-49.2
X107.75Y-50.1
X107.75Y-51.0
X107.75Y-51.9
T4
X48.65Y-57.35
X51.19Y-59.89
X53.73Y-57.35
X97.7Y-39.803
X97.7Y-43.303
X97.7Y-48.4
X97.7Y-51.9
T5
X61.75Y-43.535
X61.75Y-48.535
X61.8Y-32.8
X61.8Y-37.8
X61.8Y-54.4
X61.8Y-59.4
T6
X38.125Y-43.46
X38.125Y-48.54
T7
X34.5Y-33.75
X34.5Y-58.25
X126.0Y-33.45
X126.0Y-58.25
T8
X41.3Y-42.4
X41.3Y-49.6
T3
X125.12Y-41.68G85X124.02Y-41.68
G05
X125.12Y-50.32G85X124.02Y-50.32
G05
X129.14Y-41.68G85X128.34Y-41.68
G05
X129.14Y-50.32G85X128.34Y-50.32
G05
T4
X34.8Y-39.25G85X35.8Y-39.25
G05
X34.8Y-52.75G85X35.8Y-52.75
G05
T0
M30
