%TF.GenerationSoftware,KiCad,Pcbnew,(5.99.0-10682-g4bb4606811)*%
%TF.CreationDate,2021-08-27T09:32:20+01:00*%
%TF.ProjectId,dc-to-pd-2,64632d74-6f2d-4706-942d-322e6b696361,rev?*%
%TF.SameCoordinates,Original*%
%TF.FileFunction,Legend,Top*%
%TF.FilePolarity,Positive*%
%FSLAX46Y46*%
G04 Gerber Fmt 4.6, Leading zero omitted, Abs format (unit mm)*
G04 Created by KiCad (PCBNEW (5.99.0-10682-g4bb4606811)) date 2021-08-27 09:32:20*
%MOMM*%
%LPD*%
G01*
G04 APERTURE LIST*
G04 Aperture macros list*
%AMRoundRect*
0 Rectangle with rounded corners*
0 $1 Rounding radius*
0 $2 $3 $4 $5 $6 $7 $8 $9 X,Y pos of 4 corners*
0 Add a 4 corners polygon primitive as box body*
4,1,4,$2,$3,$4,$5,$6,$7,$8,$9,$2,$3,0*
0 Add four circle primitives for the rounded corners*
1,1,$1+$1,$2,$3*
1,1,$1+$1,$4,$5*
1,1,$1+$1,$6,$7*
1,1,$1+$1,$8,$9*
0 Add four rect primitives between the rounded corners*
20,1,$1+$1,$2,$3,$4,$5,0*
20,1,$1+$1,$4,$5,$6,$7,0*
20,1,$1+$1,$6,$7,$8,$9,0*
20,1,$1+$1,$8,$9,$2,$3,0*%
%AMFreePoly0*
4,1,23,0.500000,-0.750000,0.000000,-0.750000,0.000000,-0.747038,-0.093691,-0.741144,-0.212890,-0.702414,-0.318712,-0.635257,-0.404508,-0.543893,-0.464888,-0.434062,-0.496057,-0.312667,-0.496057,-0.250000,-0.500000,-0.250000,-0.500000,0.250000,-0.496057,0.250000,-0.496057,0.312667,-0.464888,0.434062,-0.404508,0.543893,-0.318712,0.635257,-0.212890,0.702414,-0.093691,0.741144,0.000000,0.747038,
0.000000,0.750000,0.500000,0.750000,0.500000,-0.750000,0.500000,-0.750000,$1*%
%AMFreePoly1*
4,1,21,0.000000,0.747038,0.031395,0.749013,0.154508,0.725528,0.267913,0.672164,0.364484,0.592274,0.438153,0.490877,0.484292,0.374345,0.500000,0.250000,0.500000,-0.250000,0.484292,-0.374345,0.438153,-0.490877,0.364484,-0.592274,0.267913,-0.672164,0.154508,-0.725528,0.031395,-0.749013,0.000000,-0.747038,0.000000,-0.750000,-0.500000,-0.750000,-0.500000,0.750000,0.000000,0.750000,
0.000000,0.747038,0.000000,0.747038,$1*%
%AMFreePoly2*
4,1,52,2.135355,7.464855,2.150000,7.429500,2.150000,3.175000,2.148124,3.170471,2.148343,3.170047,2.149457,3.156966,2.153880,3.144602,1.999473,0.008374,2.000000,0.000000,1.984229,-0.250666,1.937166,-0.497380,1.859553,-0.736249,1.752613,-0.963507,1.618034,-1.175571,1.457937,-1.369094,1.274848,-1.541026,1.071654,-1.688656,0.851559,-1.809654,0.618034,-1.902113,0.374763,-1.964575,
0.125581,-1.996053,-0.125581,-1.996053,-0.374763,-1.964575,-0.618034,-1.902113,-0.851559,-1.809654,-1.071654,-1.688656,-1.274848,-1.541026,-1.457937,-1.369094,-1.618034,-1.175571,-1.752613,-0.963507,-1.859553,-0.736249,-1.937166,-0.497380,-1.984229,-0.250666,-2.000000,0.000000,-1.984229,0.250666,-1.937166,0.497380,-1.859553,0.736249,-1.776167,0.913453,-1.775454,0.916957,-1.772357,0.921549,
-1.752613,0.963507,-1.618034,1.175571,-1.526061,1.286747,0.066046,3.647457,0.079502,3.656364,0.091689,3.666934,0.167860,3.692324,0.167860,7.429500,0.182505,7.464855,0.217860,7.479500,2.100000,7.479500,2.135355,7.464855,2.135355,7.464855,$1*%
%AMFreePoly3*
4,1,49,-0.199145,7.464855,-0.184500,7.429500,-0.184500,3.805567,-0.165806,3.789025,-0.162929,3.783124,-0.157457,3.779494,1.488463,1.333474,1.488806,1.331781,1.618034,1.175571,1.752613,0.963507,1.859553,0.736249,1.937166,0.497380,1.984229,0.250666,2.000000,0.000000,1.984229,-0.250666,1.937166,-0.497380,1.859553,-0.736249,1.752613,-0.963507,1.618034,-1.175571,1.457937,-1.369094,
1.274848,-1.541026,1.071654,-1.688656,0.851559,-1.809654,0.618034,-1.902113,0.374763,-1.964575,0.125581,-1.996053,-0.125581,-1.996053,-0.374763,-1.964575,-0.618034,-1.902113,-0.851559,-1.809654,-1.071654,-1.688656,-1.274848,-1.541026,-1.457937,-1.369094,-1.618034,-1.175571,-1.752613,-0.963507,-1.859553,-0.736249,-1.937166,-0.497380,-1.984229,-0.250666,-1.990503,-0.150941,-1.995069,-0.146434,
-1.995127,-0.137495,-1.998942,-0.129411,-2.157387,3.152662,-2.166640,3.175000,-2.166640,7.429500,-2.151995,7.464855,-2.116640,7.479500,-0.234500,7.479500,-0.199145,7.464855,-0.199145,7.464855,$1*%
G04 Aperture macros list end*
%ADD10C,0.300000*%
%ADD11C,0.150000*%
%ADD12C,0.153000*%
%ADD13C,0.120000*%
%ADD14C,0.200000*%
%ADD15C,0.100000*%
%ADD16RoundRect,0.225000X-0.225000X-0.250000X0.225000X-0.250000X0.225000X0.250000X-0.225000X0.250000X0*%
%ADD17C,3.800000*%
%ADD18RoundRect,0.225000X-0.250000X0.225000X-0.250000X-0.225000X0.250000X-0.225000X0.250000X0.225000X0*%
%ADD19R,6.400000X5.800000*%
%ADD20R,2.200000X1.200000*%
%ADD21R,1.780000X0.420000*%
%ADD22R,3.000000X4.200000*%
%ADD23RoundRect,0.200000X-0.275000X0.200000X-0.275000X-0.200000X0.275000X-0.200000X0.275000X0.200000X0*%
%ADD24RoundRect,0.200000X0.275000X-0.200000X0.275000X0.200000X-0.275000X0.200000X-0.275000X-0.200000X0*%
%ADD25FreePoly0,270.000000*%
%ADD26FreePoly1,270.000000*%
%ADD27RoundRect,0.250000X-0.325000X-0.650000X0.325000X-0.650000X0.325000X0.650000X-0.325000X0.650000X0*%
%ADD28R,2.500000X2.300000*%
%ADD29RoundRect,0.048000X0.072000X-0.292000X0.072000X0.292000X-0.072000X0.292000X-0.072000X-0.292000X0*%
%ADD30RoundRect,0.048000X0.292000X0.072000X-0.292000X0.072000X-0.292000X-0.072000X0.292000X-0.072000X0*%
%ADD31RoundRect,0.051300X1.298700X-1.298700X1.298700X1.298700X-1.298700X1.298700X-1.298700X-1.298700X0*%
%ADD32RoundRect,0.225000X0.225000X0.250000X-0.225000X0.250000X-0.225000X-0.250000X0.225000X-0.250000X0*%
%ADD33RoundRect,0.250000X0.650000X-0.325000X0.650000X0.325000X-0.650000X0.325000X-0.650000X-0.325000X0*%
%ADD34R,1.600000X1.600000*%
%ADD35C,1.600000*%
%ADD36RoundRect,0.200000X0.200000X0.275000X-0.200000X0.275000X-0.200000X-0.275000X0.200000X-0.275000X0*%
%ADD37RoundRect,0.225000X0.250000X-0.225000X0.250000X0.225000X-0.250000X0.225000X-0.250000X-0.225000X0*%
%ADD38RoundRect,0.250000X0.312500X1.075000X-0.312500X1.075000X-0.312500X-1.075000X0.312500X-1.075000X0*%
%ADD39RoundRect,0.150000X0.150000X-0.587500X0.150000X0.587500X-0.150000X0.587500X-0.150000X-0.587500X0*%
%ADD40R,0.900000X1.200000*%
%ADD41R,2.500000X3.300000*%
%ADD42RoundRect,0.250000X-0.650000X0.325000X-0.650000X-0.325000X0.650000X-0.325000X0.650000X0.325000X0*%
%ADD43RoundRect,0.200000X-0.200000X-0.275000X0.200000X-0.275000X0.200000X0.275000X-0.200000X0.275000X0*%
%ADD44C,1.440000*%
%ADD45C,2.200000*%
%ADD46O,2.800000X1.600000*%
%ADD47FreePoly2,90.000000*%
%ADD48FreePoly3,90.000000*%
%ADD49RoundRect,0.243750X-0.456250X0.243750X-0.456250X-0.243750X0.456250X-0.243750X0.456250X0.243750X0*%
%ADD50RoundRect,0.659850X1.415150X5.590150X-1.415150X5.590150X-1.415150X-5.590150X1.415150X-5.590150X0*%
%ADD51R,2.000000X2.000000*%
%ADD52C,2.000000*%
%ADD53RoundRect,0.250000X1.425000X-0.362500X1.425000X0.362500X-1.425000X0.362500X-1.425000X-0.362500X0*%
%ADD54RoundRect,0.150000X0.150000X-0.825000X0.150000X0.825000X-0.150000X0.825000X-0.150000X-0.825000X0*%
%ADD55RoundRect,0.050000X-0.240000X0.150000X-0.240000X-0.150000X0.240000X-0.150000X0.240000X0.150000X0*%
%ADD56RoundRect,0.050000X-0.312500X0.150000X-0.312500X-0.150000X0.312500X-0.150000X0.312500X0.150000X0*%
%ADD57RoundRect,0.099185X-0.498315X-1.650815X0.498315X-1.650815X0.498315X1.650815X-0.498315X1.650815X0*%
%ADD58RoundRect,0.250000X0.325000X0.650000X-0.325000X0.650000X-0.325000X-0.650000X0.325000X-0.650000X0*%
%ADD59C,0.600000*%
%ADD60R,1.160000X0.600000*%
%ADD61R,1.160000X0.300000*%
%ADD62O,2.000000X0.900000*%
%ADD63O,1.700000X0.900000*%
%ADD64RoundRect,0.250000X-0.362500X-1.425000X0.362500X-1.425000X0.362500X1.425000X-0.362500X1.425000X0*%
%ADD65R,1.200000X0.900000*%
%ADD66RoundRect,0.408000X-1.092000X0.592000X-1.092000X-0.592000X1.092000X-0.592000X1.092000X0.592000X0*%
G04 APERTURE END LIST*
D10*
X40441421Y-61800000D02*
G75*
G03*
X40441421Y-61800000I-141421J0D01*
G01*
D11*
X80200000Y-39300000D02*
X77900000Y-39300000D01*
X66400000Y-31500000D02*
X70500000Y-31500000D01*
X71500000Y-40800000D02*
X72000000Y-40800000D01*
X70500000Y-31500000D02*
X70500000Y-32300000D01*
X77900000Y-39300000D02*
X77500000Y-38900000D01*
X99100000Y-62400000D02*
X99100000Y-54600000D01*
X72000000Y-54100000D02*
X71500000Y-54100000D01*
X72000000Y-40800000D02*
X72000000Y-54100000D01*
D12*
X94042857Y-62185714D02*
X94004761Y-62223809D01*
X93890476Y-62261904D01*
X93814285Y-62261904D01*
X93700000Y-62223809D01*
X93623809Y-62147619D01*
X93585714Y-62071428D01*
X93547619Y-61919047D01*
X93547619Y-61804761D01*
X93585714Y-61652380D01*
X93623809Y-61576190D01*
X93700000Y-61500000D01*
X93814285Y-61461904D01*
X93890476Y-61461904D01*
X94004761Y-61500000D01*
X94042857Y-61538095D01*
X94804761Y-62261904D02*
X94347619Y-62261904D01*
X94576190Y-62261904D02*
X94576190Y-61461904D01*
X94500000Y-61576190D01*
X94423809Y-61652380D01*
X94347619Y-61690476D01*
X95109523Y-61538095D02*
X95147619Y-61500000D01*
X95223809Y-61461904D01*
X95414285Y-61461904D01*
X95490476Y-61500000D01*
X95528571Y-61538095D01*
X95566666Y-61614285D01*
X95566666Y-61690476D01*
X95528571Y-61804761D01*
X95071428Y-62261904D01*
X95566666Y-62261904D01*
X95909523Y-62185714D02*
X95947619Y-62223809D01*
X95909523Y-62261904D01*
X95871428Y-62223809D01*
X95909523Y-62185714D01*
X95909523Y-62261904D01*
X96290476Y-62185714D02*
X96328571Y-62223809D01*
X96290476Y-62261904D01*
X96252380Y-62223809D01*
X96290476Y-62185714D01*
X96290476Y-62261904D01*
X97128571Y-62185714D02*
X97090476Y-62223809D01*
X96976190Y-62261904D01*
X96900000Y-62261904D01*
X96785714Y-62223809D01*
X96709523Y-62147619D01*
X96671428Y-62071428D01*
X96633333Y-61919047D01*
X96633333Y-61804761D01*
X96671428Y-61652380D01*
X96709523Y-61576190D01*
X96785714Y-61500000D01*
X96900000Y-61461904D01*
X96976190Y-61461904D01*
X97090476Y-61500000D01*
X97128571Y-61538095D01*
X97890476Y-62261904D02*
X97433333Y-62261904D01*
X97661904Y-62261904D02*
X97661904Y-61461904D01*
X97585714Y-61576190D01*
X97509523Y-61652380D01*
X97433333Y-61690476D01*
X98576190Y-61728571D02*
X98576190Y-62261904D01*
X98385714Y-61423809D02*
X98195238Y-61995238D01*
X98690476Y-61995238D01*
X67904761Y-41185714D02*
X67866666Y-41223809D01*
X67752380Y-41261904D01*
X67676190Y-41261904D01*
X67561904Y-41223809D01*
X67485714Y-41147619D01*
X67447619Y-41071428D01*
X67409523Y-40919047D01*
X67409523Y-40804761D01*
X67447619Y-40652380D01*
X67485714Y-40576190D01*
X67561904Y-40500000D01*
X67676190Y-40461904D01*
X67752380Y-40461904D01*
X67866666Y-40500000D01*
X67904761Y-40538095D01*
X68590476Y-40728571D02*
X68590476Y-41261904D01*
X68400000Y-40423809D02*
X68209523Y-40995238D01*
X68704761Y-40995238D01*
X69009523Y-41185714D02*
X69047619Y-41223809D01*
X69009523Y-41261904D01*
X68971428Y-41223809D01*
X69009523Y-41185714D01*
X69009523Y-41261904D01*
X69390476Y-41185714D02*
X69428571Y-41223809D01*
X69390476Y-41261904D01*
X69352380Y-41223809D01*
X69390476Y-41185714D01*
X69390476Y-41261904D01*
X70228571Y-41185714D02*
X70190476Y-41223809D01*
X70076190Y-41261904D01*
X70000000Y-41261904D01*
X69885714Y-41223809D01*
X69809523Y-41147619D01*
X69771428Y-41071428D01*
X69733333Y-40919047D01*
X69733333Y-40804761D01*
X69771428Y-40652380D01*
X69809523Y-40576190D01*
X69885714Y-40500000D01*
X70000000Y-40461904D01*
X70076190Y-40461904D01*
X70190476Y-40500000D01*
X70228571Y-40538095D01*
X70685714Y-40804761D02*
X70609523Y-40766666D01*
X70571428Y-40728571D01*
X70533333Y-40652380D01*
X70533333Y-40614285D01*
X70571428Y-40538095D01*
X70609523Y-40500000D01*
X70685714Y-40461904D01*
X70838095Y-40461904D01*
X70914285Y-40500000D01*
X70952380Y-40538095D01*
X70990476Y-40614285D01*
X70990476Y-40652380D01*
X70952380Y-40728571D01*
X70914285Y-40766666D01*
X70838095Y-40804761D01*
X70685714Y-40804761D01*
X70609523Y-40842857D01*
X70571428Y-40880952D01*
X70533333Y-40957142D01*
X70533333Y-41109523D01*
X70571428Y-41185714D01*
X70609523Y-41223809D01*
X70685714Y-41261904D01*
X70838095Y-41261904D01*
X70914285Y-41223809D01*
X70952380Y-41185714D01*
X70990476Y-41109523D01*
X70990476Y-40957142D01*
X70952380Y-40880952D01*
X70914285Y-40842857D01*
X70838095Y-40804761D01*
X99374285Y-31682857D02*
X99336190Y-31644761D01*
X99298095Y-31530476D01*
X99298095Y-31454285D01*
X99336190Y-31340000D01*
X99412380Y-31263809D01*
X99488571Y-31225714D01*
X99640952Y-31187619D01*
X99755238Y-31187619D01*
X99907619Y-31225714D01*
X99983809Y-31263809D01*
X100060000Y-31340000D01*
X100098095Y-31454285D01*
X100098095Y-31530476D01*
X100060000Y-31644761D01*
X100021904Y-31682857D01*
X99298095Y-32444761D02*
X99298095Y-31987619D01*
X99298095Y-32216190D02*
X100098095Y-32216190D01*
X99983809Y-32140000D01*
X99907619Y-32063809D01*
X99869523Y-31987619D01*
X100098095Y-33168571D02*
X100098095Y-32787619D01*
X99717142Y-32749523D01*
X99755238Y-32787619D01*
X99793333Y-32863809D01*
X99793333Y-33054285D01*
X99755238Y-33130476D01*
X99717142Y-33168571D01*
X99640952Y-33206666D01*
X99450476Y-33206666D01*
X99374285Y-33168571D01*
X99336190Y-33130476D01*
X99298095Y-33054285D01*
X99298095Y-32863809D01*
X99336190Y-32787619D01*
X99374285Y-32749523D01*
X99374285Y-33549523D02*
X99336190Y-33587619D01*
X99298095Y-33549523D01*
X99336190Y-33511428D01*
X99374285Y-33549523D01*
X99298095Y-33549523D01*
X99374285Y-33930476D02*
X99336190Y-33968571D01*
X99298095Y-33930476D01*
X99336190Y-33892380D01*
X99374285Y-33930476D01*
X99298095Y-33930476D01*
X99374285Y-34768571D02*
X99336190Y-34730476D01*
X99298095Y-34616190D01*
X99298095Y-34540000D01*
X99336190Y-34425714D01*
X99412380Y-34349523D01*
X99488571Y-34311428D01*
X99640952Y-34273333D01*
X99755238Y-34273333D01*
X99907619Y-34311428D01*
X99983809Y-34349523D01*
X100060000Y-34425714D01*
X100098095Y-34540000D01*
X100098095Y-34616190D01*
X100060000Y-34730476D01*
X100021904Y-34768571D01*
X99298095Y-35530476D02*
X99298095Y-35073333D01*
X99298095Y-35301904D02*
X100098095Y-35301904D01*
X99983809Y-35225714D01*
X99907619Y-35149523D01*
X99869523Y-35073333D01*
X100098095Y-35797142D02*
X100098095Y-36330476D01*
X99298095Y-35987619D01*
%TO.C,Dboost1*%
X84261904Y-52428571D02*
X83461904Y-52428571D01*
X83461904Y-52238095D01*
X83500000Y-52123809D01*
X83576190Y-52047619D01*
X83652380Y-52009523D01*
X83804761Y-51971428D01*
X83919047Y-51971428D01*
X84071428Y-52009523D01*
X84147619Y-52047619D01*
X84223809Y-52123809D01*
X84261904Y-52238095D01*
X84261904Y-52428571D01*
X84261904Y-51628571D02*
X83461904Y-51628571D01*
X83766666Y-51628571D02*
X83728571Y-51552380D01*
X83728571Y-51400000D01*
X83766666Y-51323809D01*
X83804761Y-51285714D01*
X83880952Y-51247619D01*
X84109523Y-51247619D01*
X84185714Y-51285714D01*
X84223809Y-51323809D01*
X84261904Y-51400000D01*
X84261904Y-51552380D01*
X84223809Y-51628571D01*
X84261904Y-50790476D02*
X84223809Y-50866666D01*
X84185714Y-50904761D01*
X84109523Y-50942857D01*
X83880952Y-50942857D01*
X83804761Y-50904761D01*
X83766666Y-50866666D01*
X83728571Y-50790476D01*
X83728571Y-50676190D01*
X83766666Y-50600000D01*
X83804761Y-50561904D01*
X83880952Y-50523809D01*
X84109523Y-50523809D01*
X84185714Y-50561904D01*
X84223809Y-50600000D01*
X84261904Y-50676190D01*
X84261904Y-50790476D01*
X84261904Y-50066666D02*
X84223809Y-50142857D01*
X84185714Y-50180952D01*
X84109523Y-50219047D01*
X83880952Y-50219047D01*
X83804761Y-50180952D01*
X83766666Y-50142857D01*
X83728571Y-50066666D01*
X83728571Y-49952380D01*
X83766666Y-49876190D01*
X83804761Y-49838095D01*
X83880952Y-49800000D01*
X84109523Y-49800000D01*
X84185714Y-49838095D01*
X84223809Y-49876190D01*
X84261904Y-49952380D01*
X84261904Y-50066666D01*
X84223809Y-49495238D02*
X84261904Y-49419047D01*
X84261904Y-49266666D01*
X84223809Y-49190476D01*
X84147619Y-49152380D01*
X84109523Y-49152380D01*
X84033333Y-49190476D01*
X83995238Y-49266666D01*
X83995238Y-49380952D01*
X83957142Y-49457142D01*
X83880952Y-49495238D01*
X83842857Y-49495238D01*
X83766666Y-49457142D01*
X83728571Y-49380952D01*
X83728571Y-49266666D01*
X83766666Y-49190476D01*
X83728571Y-48923809D02*
X83728571Y-48619047D01*
X83461904Y-48809523D02*
X84147619Y-48809523D01*
X84223809Y-48771428D01*
X84261904Y-48695238D01*
X84261904Y-48619047D01*
X84261904Y-47933333D02*
X84261904Y-48390476D01*
X84261904Y-48161904D02*
X83461904Y-48161904D01*
X83576190Y-48238095D01*
X83652380Y-48314285D01*
X83690476Y-48390476D01*
%TO.C,Q4*%
X57023809Y-50838095D02*
X56947619Y-50800000D01*
X56871428Y-50723809D01*
X56757142Y-50609523D01*
X56680952Y-50571428D01*
X56604761Y-50571428D01*
X56642857Y-50761904D02*
X56566666Y-50723809D01*
X56490476Y-50647619D01*
X56452380Y-50495238D01*
X56452380Y-50228571D01*
X56490476Y-50076190D01*
X56566666Y-50000000D01*
X56642857Y-49961904D01*
X56795238Y-49961904D01*
X56871428Y-50000000D01*
X56947619Y-50076190D01*
X56985714Y-50228571D01*
X56985714Y-50495238D01*
X56947619Y-50647619D01*
X56871428Y-50723809D01*
X56795238Y-50761904D01*
X56642857Y-50761904D01*
X57671428Y-50228571D02*
X57671428Y-50761904D01*
X57480952Y-49923809D02*
X57290476Y-50495238D01*
X57785714Y-50495238D01*
%TO.C,Q2*%
X57123809Y-39938095D02*
X57047619Y-39900000D01*
X56971428Y-39823809D01*
X56857142Y-39709523D01*
X56780952Y-39671428D01*
X56704761Y-39671428D01*
X56742857Y-39861904D02*
X56666666Y-39823809D01*
X56590476Y-39747619D01*
X56552380Y-39595238D01*
X56552380Y-39328571D01*
X56590476Y-39176190D01*
X56666666Y-39100000D01*
X56742857Y-39061904D01*
X56895238Y-39061904D01*
X56971428Y-39100000D01*
X57047619Y-39176190D01*
X57085714Y-39328571D01*
X57085714Y-39595238D01*
X57047619Y-39747619D01*
X56971428Y-39823809D01*
X56895238Y-39861904D01*
X56742857Y-39861904D01*
X57390476Y-39138095D02*
X57428571Y-39100000D01*
X57504761Y-39061904D01*
X57695238Y-39061904D01*
X57771428Y-39100000D01*
X57809523Y-39138095D01*
X57847619Y-39214285D01*
X57847619Y-39290476D01*
X57809523Y-39404761D01*
X57352380Y-39861904D01*
X57847619Y-39861904D01*
%TO.C,Ruv1*%
X37661904Y-60550000D02*
X37280952Y-60816666D01*
X37661904Y-61007142D02*
X36861904Y-61007142D01*
X36861904Y-60702380D01*
X36900000Y-60626190D01*
X36938095Y-60588095D01*
X37014285Y-60550000D01*
X37128571Y-60550000D01*
X37204761Y-60588095D01*
X37242857Y-60626190D01*
X37280952Y-60702380D01*
X37280952Y-61007142D01*
X37128571Y-59864285D02*
X37661904Y-59864285D01*
X37128571Y-60207142D02*
X37547619Y-60207142D01*
X37623809Y-60169047D01*
X37661904Y-60092857D01*
X37661904Y-59978571D01*
X37623809Y-59902380D01*
X37585714Y-59864285D01*
X37128571Y-59559523D02*
X37661904Y-59369047D01*
X37128571Y-59178571D01*
X37661904Y-58454761D02*
X37661904Y-58911904D01*
X37661904Y-58683333D02*
X36861904Y-58683333D01*
X36976190Y-58759523D01*
X37052380Y-58835714D01*
X37090476Y-58911904D01*
%TO.C,JP1*%
X109433333Y-61461904D02*
X109433333Y-62033333D01*
X109395238Y-62147619D01*
X109319047Y-62223809D01*
X109204761Y-62261904D01*
X109128571Y-62261904D01*
X109814285Y-62261904D02*
X109814285Y-61461904D01*
X110119047Y-61461904D01*
X110195238Y-61500000D01*
X110233333Y-61538095D01*
X110271428Y-61614285D01*
X110271428Y-61728571D01*
X110233333Y-61804761D01*
X110195238Y-61842857D01*
X110119047Y-61880952D01*
X109814285Y-61880952D01*
X111033333Y-62261904D02*
X110576190Y-62261904D01*
X110804761Y-62261904D02*
X110804761Y-61461904D01*
X110728571Y-61576190D01*
X110652380Y-61652380D01*
X110576190Y-61690476D01*
%TO.C,D5*%
X128309523Y-57061904D02*
X128309523Y-56261904D01*
X128500000Y-56261904D01*
X128614285Y-56300000D01*
X128690476Y-56376190D01*
X128728571Y-56452380D01*
X128766666Y-56604761D01*
X128766666Y-56719047D01*
X128728571Y-56871428D01*
X128690476Y-56947619D01*
X128614285Y-57023809D01*
X128500000Y-57061904D01*
X128309523Y-57061904D01*
X129490476Y-56261904D02*
X129109523Y-56261904D01*
X129071428Y-56642857D01*
X129109523Y-56604761D01*
X129185714Y-56566666D01*
X129376190Y-56566666D01*
X129452380Y-56604761D01*
X129490476Y-56642857D01*
X129528571Y-56719047D01*
X129528571Y-56909523D01*
X129490476Y-56985714D01*
X129452380Y-57023809D01*
X129376190Y-57061904D01*
X129185714Y-57061904D01*
X129109523Y-57023809D01*
X129071428Y-56985714D01*
%TO.C,Q1*%
X101223809Y-47038095D02*
X101147619Y-47000000D01*
X101071428Y-46923809D01*
X100957142Y-46809523D01*
X100880952Y-46771428D01*
X100804761Y-46771428D01*
X100842857Y-46961904D02*
X100766666Y-46923809D01*
X100690476Y-46847619D01*
X100652380Y-46695238D01*
X100652380Y-46428571D01*
X100690476Y-46276190D01*
X100766666Y-46200000D01*
X100842857Y-46161904D01*
X100995238Y-46161904D01*
X101071428Y-46200000D01*
X101147619Y-46276190D01*
X101185714Y-46428571D01*
X101185714Y-46695238D01*
X101147619Y-46847619D01*
X101071428Y-46923809D01*
X100995238Y-46961904D01*
X100842857Y-46961904D01*
X101947619Y-46961904D02*
X101490476Y-46961904D01*
X101719047Y-46961904D02*
X101719047Y-46161904D01*
X101642857Y-46276190D01*
X101566666Y-46352380D01*
X101490476Y-46390476D01*
%TO.C,Cvtx1*%
X112385714Y-61790476D02*
X112423809Y-61828571D01*
X112461904Y-61942857D01*
X112461904Y-62019047D01*
X112423809Y-62133333D01*
X112347619Y-62209523D01*
X112271428Y-62247619D01*
X112119047Y-62285714D01*
X112004761Y-62285714D01*
X111852380Y-62247619D01*
X111776190Y-62209523D01*
X111700000Y-62133333D01*
X111661904Y-62019047D01*
X111661904Y-61942857D01*
X111700000Y-61828571D01*
X111738095Y-61790476D01*
X111928571Y-61523809D02*
X112461904Y-61333333D01*
X111928571Y-61142857D01*
X111928571Y-60952380D02*
X111928571Y-60647619D01*
X111661904Y-60838095D02*
X112347619Y-60838095D01*
X112423809Y-60800000D01*
X112461904Y-60723809D01*
X112461904Y-60647619D01*
X112461904Y-60457142D02*
X111928571Y-60038095D01*
X111928571Y-60457142D02*
X112461904Y-60038095D01*
X112461904Y-59314285D02*
X112461904Y-59771428D01*
X112461904Y-59542857D02*
X111661904Y-59542857D01*
X111776190Y-59619047D01*
X111852380Y-59695238D01*
X111890476Y-59771428D01*
%TO.C,C9*%
X68785714Y-60033333D02*
X68823809Y-60071428D01*
X68861904Y-60185714D01*
X68861904Y-60261904D01*
X68823809Y-60376190D01*
X68747619Y-60452380D01*
X68671428Y-60490476D01*
X68519047Y-60528571D01*
X68404761Y-60528571D01*
X68252380Y-60490476D01*
X68176190Y-60452380D01*
X68100000Y-60376190D01*
X68061904Y-60261904D01*
X68061904Y-60185714D01*
X68100000Y-60071428D01*
X68138095Y-60033333D01*
X68861904Y-59652380D02*
X68861904Y-59500000D01*
X68823809Y-59423809D01*
X68785714Y-59385714D01*
X68671428Y-59309523D01*
X68519047Y-59271428D01*
X68214285Y-59271428D01*
X68138095Y-59309523D01*
X68100000Y-59347619D01*
X68061904Y-59423809D01*
X68061904Y-59576190D01*
X68100000Y-59652380D01*
X68138095Y-59690476D01*
X68214285Y-59728571D01*
X68404761Y-59728571D01*
X68480952Y-59690476D01*
X68519047Y-59652380D01*
X68557142Y-59576190D01*
X68557142Y-59423809D01*
X68519047Y-59347619D01*
X68480952Y-59309523D01*
X68404761Y-59271428D01*
%TO.C,R6*%
X121266666Y-44661904D02*
X121000000Y-44280952D01*
X120809523Y-44661904D02*
X120809523Y-43861904D01*
X121114285Y-43861904D01*
X121190476Y-43900000D01*
X121228571Y-43938095D01*
X121266666Y-44014285D01*
X121266666Y-44128571D01*
X121228571Y-44204761D01*
X121190476Y-44242857D01*
X121114285Y-44280952D01*
X120809523Y-44280952D01*
X121952380Y-43861904D02*
X121800000Y-43861904D01*
X121723809Y-43900000D01*
X121685714Y-43938095D01*
X121609523Y-44052380D01*
X121571428Y-44204761D01*
X121571428Y-44509523D01*
X121609523Y-44585714D01*
X121647619Y-44623809D01*
X121723809Y-44661904D01*
X121876190Y-44661904D01*
X121952380Y-44623809D01*
X121990476Y-44585714D01*
X122028571Y-44509523D01*
X122028571Y-44319047D01*
X121990476Y-44242857D01*
X121952380Y-44204761D01*
X121876190Y-44166666D01*
X121723809Y-44166666D01*
X121647619Y-44204761D01*
X121609523Y-44242857D01*
X121571428Y-44319047D01*
%TO.C,C2*%
X106085714Y-54983333D02*
X106123809Y-55021428D01*
X106161904Y-55135714D01*
X106161904Y-55211904D01*
X106123809Y-55326190D01*
X106047619Y-55402380D01*
X105971428Y-55440476D01*
X105819047Y-55478571D01*
X105704761Y-55478571D01*
X105552380Y-55440476D01*
X105476190Y-55402380D01*
X105400000Y-55326190D01*
X105361904Y-55211904D01*
X105361904Y-55135714D01*
X105400000Y-55021428D01*
X105438095Y-54983333D01*
X105438095Y-54678571D02*
X105400000Y-54640476D01*
X105361904Y-54564285D01*
X105361904Y-54373809D01*
X105400000Y-54297619D01*
X105438095Y-54259523D01*
X105514285Y-54221428D01*
X105590476Y-54221428D01*
X105704761Y-54259523D01*
X106161904Y-54716666D01*
X106161904Y-54221428D01*
%TO.C,R1*%
X103261904Y-55033333D02*
X102880952Y-55300000D01*
X103261904Y-55490476D02*
X102461904Y-55490476D01*
X102461904Y-55185714D01*
X102500000Y-55109523D01*
X102538095Y-55071428D01*
X102614285Y-55033333D01*
X102728571Y-55033333D01*
X102804761Y-55071428D01*
X102842857Y-55109523D01*
X102880952Y-55185714D01*
X102880952Y-55490476D01*
X103261904Y-54271428D02*
X103261904Y-54728571D01*
X103261904Y-54500000D02*
X102461904Y-54500000D01*
X102576190Y-54576190D01*
X102652380Y-54652380D01*
X102690476Y-54728571D01*
%TO.C,Qbuck1*%
X82138095Y-51966666D02*
X82100000Y-52042857D01*
X82023809Y-52119047D01*
X81909523Y-52233333D01*
X81871428Y-52309523D01*
X81871428Y-52385714D01*
X82061904Y-52347619D02*
X82023809Y-52423809D01*
X81947619Y-52500000D01*
X81795238Y-52538095D01*
X81528571Y-52538095D01*
X81376190Y-52500000D01*
X81300000Y-52423809D01*
X81261904Y-52347619D01*
X81261904Y-52195238D01*
X81300000Y-52119047D01*
X81376190Y-52042857D01*
X81528571Y-52004761D01*
X81795238Y-52004761D01*
X81947619Y-52042857D01*
X82023809Y-52119047D01*
X82061904Y-52195238D01*
X82061904Y-52347619D01*
X82061904Y-51661904D02*
X81261904Y-51661904D01*
X81566666Y-51661904D02*
X81528571Y-51585714D01*
X81528571Y-51433333D01*
X81566666Y-51357142D01*
X81604761Y-51319047D01*
X81680952Y-51280952D01*
X81909523Y-51280952D01*
X81985714Y-51319047D01*
X82023809Y-51357142D01*
X82061904Y-51433333D01*
X82061904Y-51585714D01*
X82023809Y-51661904D01*
X81528571Y-50595238D02*
X82061904Y-50595238D01*
X81528571Y-50938095D02*
X81947619Y-50938095D01*
X82023809Y-50900000D01*
X82061904Y-50823809D01*
X82061904Y-50709523D01*
X82023809Y-50633333D01*
X81985714Y-50595238D01*
X82023809Y-49871428D02*
X82061904Y-49947619D01*
X82061904Y-50100000D01*
X82023809Y-50176190D01*
X81985714Y-50214285D01*
X81909523Y-50252380D01*
X81680952Y-50252380D01*
X81604761Y-50214285D01*
X81566666Y-50176190D01*
X81528571Y-50100000D01*
X81528571Y-49947619D01*
X81566666Y-49871428D01*
X82061904Y-49528571D02*
X81261904Y-49528571D01*
X81757142Y-49452380D02*
X82061904Y-49223809D01*
X81528571Y-49223809D02*
X81833333Y-49528571D01*
X82061904Y-48461904D02*
X82061904Y-48919047D01*
X82061904Y-48690476D02*
X81261904Y-48690476D01*
X81376190Y-48766666D01*
X81452380Y-48842857D01*
X81490476Y-48919047D01*
%TO.C,Q5*%
X109238095Y-54076190D02*
X109200000Y-54152380D01*
X109123809Y-54228571D01*
X109009523Y-54342857D01*
X108971428Y-54419047D01*
X108971428Y-54495238D01*
X109161904Y-54457142D02*
X109123809Y-54533333D01*
X109047619Y-54609523D01*
X108895238Y-54647619D01*
X108628571Y-54647619D01*
X108476190Y-54609523D01*
X108400000Y-54533333D01*
X108361904Y-54457142D01*
X108361904Y-54304761D01*
X108400000Y-54228571D01*
X108476190Y-54152380D01*
X108628571Y-54114285D01*
X108895238Y-54114285D01*
X109047619Y-54152380D01*
X109123809Y-54228571D01*
X109161904Y-54304761D01*
X109161904Y-54457142D01*
X108361904Y-53390476D02*
X108361904Y-53771428D01*
X108742857Y-53809523D01*
X108704761Y-53771428D01*
X108666666Y-53695238D01*
X108666666Y-53504761D01*
X108704761Y-53428571D01*
X108742857Y-53390476D01*
X108819047Y-53352380D01*
X109009523Y-53352380D01*
X109085714Y-53390476D01*
X109123809Y-53428571D01*
X109161904Y-53504761D01*
X109161904Y-53695238D01*
X109123809Y-53771428D01*
X109085714Y-53809523D01*
%TO.C,D3*%
X43259523Y-36761904D02*
X43259523Y-35961904D01*
X43450000Y-35961904D01*
X43564285Y-36000000D01*
X43640476Y-36076190D01*
X43678571Y-36152380D01*
X43716666Y-36304761D01*
X43716666Y-36419047D01*
X43678571Y-36571428D01*
X43640476Y-36647619D01*
X43564285Y-36723809D01*
X43450000Y-36761904D01*
X43259523Y-36761904D01*
X43983333Y-35961904D02*
X44478571Y-35961904D01*
X44211904Y-36266666D01*
X44326190Y-36266666D01*
X44402380Y-36304761D01*
X44440476Y-36342857D01*
X44478571Y-36419047D01*
X44478571Y-36609523D01*
X44440476Y-36685714D01*
X44402380Y-36723809D01*
X44326190Y-36761904D01*
X44097619Y-36761904D01*
X44021428Y-36723809D01*
X43983333Y-36685714D01*
%TO.C,D1*%
X56609523Y-31061904D02*
X56609523Y-30261904D01*
X56800000Y-30261904D01*
X56914285Y-30300000D01*
X56990476Y-30376190D01*
X57028571Y-30452380D01*
X57066666Y-30604761D01*
X57066666Y-30719047D01*
X57028571Y-30871428D01*
X56990476Y-30947619D01*
X56914285Y-31023809D01*
X56800000Y-31061904D01*
X56609523Y-31061904D01*
X57828571Y-31061904D02*
X57371428Y-31061904D01*
X57600000Y-31061904D02*
X57600000Y-30261904D01*
X57523809Y-30376190D01*
X57447619Y-30452380D01*
X57371428Y-30490476D01*
%TO.C,Crx1*%
X114095238Y-61915714D02*
X114057142Y-61953809D01*
X113942857Y-61991904D01*
X113866666Y-61991904D01*
X113752380Y-61953809D01*
X113676190Y-61877619D01*
X113638095Y-61801428D01*
X113600000Y-61649047D01*
X113600000Y-61534761D01*
X113638095Y-61382380D01*
X113676190Y-61306190D01*
X113752380Y-61230000D01*
X113866666Y-61191904D01*
X113942857Y-61191904D01*
X114057142Y-61230000D01*
X114095238Y-61268095D01*
X114438095Y-61991904D02*
X114438095Y-61458571D01*
X114438095Y-61610952D02*
X114476190Y-61534761D01*
X114514285Y-61496666D01*
X114590476Y-61458571D01*
X114666666Y-61458571D01*
X114857142Y-61991904D02*
X115276190Y-61458571D01*
X114857142Y-61458571D02*
X115276190Y-61991904D01*
X116000000Y-61991904D02*
X115542857Y-61991904D01*
X115771428Y-61991904D02*
X115771428Y-61191904D01*
X115695238Y-61306190D01*
X115619047Y-61382380D01*
X115542857Y-61420476D01*
%TO.C,C1*%
X100966666Y-62185714D02*
X100928571Y-62223809D01*
X100814285Y-62261904D01*
X100738095Y-62261904D01*
X100623809Y-62223809D01*
X100547619Y-62147619D01*
X100509523Y-62071428D01*
X100471428Y-61919047D01*
X100471428Y-61804761D01*
X100509523Y-61652380D01*
X100547619Y-61576190D01*
X100623809Y-61500000D01*
X100738095Y-61461904D01*
X100814285Y-61461904D01*
X100928571Y-61500000D01*
X100966666Y-61538095D01*
X101728571Y-62261904D02*
X101271428Y-62261904D01*
X101500000Y-62261904D02*
X101500000Y-61461904D01*
X101423809Y-61576190D01*
X101347619Y-61652380D01*
X101271428Y-61690476D01*
%TO.C,R4*%
X45366666Y-31361904D02*
X45100000Y-30980952D01*
X44909523Y-31361904D02*
X44909523Y-30561904D01*
X45214285Y-30561904D01*
X45290476Y-30600000D01*
X45328571Y-30638095D01*
X45366666Y-30714285D01*
X45366666Y-30828571D01*
X45328571Y-30904761D01*
X45290476Y-30942857D01*
X45214285Y-30980952D01*
X44909523Y-30980952D01*
X46052380Y-30828571D02*
X46052380Y-31361904D01*
X45861904Y-30523809D02*
X45671428Y-31095238D01*
X46166666Y-31095238D01*
%TO.C,C3*%
X121066666Y-49235714D02*
X121028571Y-49273809D01*
X120914285Y-49311904D01*
X120838095Y-49311904D01*
X120723809Y-49273809D01*
X120647619Y-49197619D01*
X120609523Y-49121428D01*
X120571428Y-48969047D01*
X120571428Y-48854761D01*
X120609523Y-48702380D01*
X120647619Y-48626190D01*
X120723809Y-48550000D01*
X120838095Y-48511904D01*
X120914285Y-48511904D01*
X121028571Y-48550000D01*
X121066666Y-48588095D01*
X121333333Y-48511904D02*
X121828571Y-48511904D01*
X121561904Y-48816666D01*
X121676190Y-48816666D01*
X121752380Y-48854761D01*
X121790476Y-48892857D01*
X121828571Y-48969047D01*
X121828571Y-49159523D01*
X121790476Y-49235714D01*
X121752380Y-49273809D01*
X121676190Y-49311904D01*
X121447619Y-49311904D01*
X121371428Y-49273809D01*
X121333333Y-49235714D01*
%TO.C,RV1*%
X50623809Y-55261904D02*
X50357142Y-54880952D01*
X50166666Y-55261904D02*
X50166666Y-54461904D01*
X50471428Y-54461904D01*
X50547619Y-54500000D01*
X50585714Y-54538095D01*
X50623809Y-54614285D01*
X50623809Y-54728571D01*
X50585714Y-54804761D01*
X50547619Y-54842857D01*
X50471428Y-54880952D01*
X50166666Y-54880952D01*
X50852380Y-54461904D02*
X51119047Y-55261904D01*
X51385714Y-54461904D01*
X52071428Y-55261904D02*
X51614285Y-55261904D01*
X51842857Y-55261904D02*
X51842857Y-54461904D01*
X51766666Y-54576190D01*
X51690476Y-54652380D01*
X51614285Y-54690476D01*
%TO.C,R7*%
X121866666Y-61361904D02*
X121600000Y-60980952D01*
X121409523Y-61361904D02*
X121409523Y-60561904D01*
X121714285Y-60561904D01*
X121790476Y-60600000D01*
X121828571Y-60638095D01*
X121866666Y-60714285D01*
X121866666Y-60828571D01*
X121828571Y-60904761D01*
X121790476Y-60942857D01*
X121714285Y-60980952D01*
X121409523Y-60980952D01*
X122133333Y-60561904D02*
X122666666Y-60561904D01*
X122323809Y-61361904D01*
%TO.C,R14*%
X78861904Y-41214285D02*
X78480952Y-41480952D01*
X78861904Y-41671428D02*
X78061904Y-41671428D01*
X78061904Y-41366666D01*
X78100000Y-41290476D01*
X78138095Y-41252380D01*
X78214285Y-41214285D01*
X78328571Y-41214285D01*
X78404761Y-41252380D01*
X78442857Y-41290476D01*
X78480952Y-41366666D01*
X78480952Y-41671428D01*
X78861904Y-40452380D02*
X78861904Y-40909523D01*
X78861904Y-40680952D02*
X78061904Y-40680952D01*
X78176190Y-40757142D01*
X78252380Y-40833333D01*
X78290476Y-40909523D01*
X78328571Y-39766666D02*
X78861904Y-39766666D01*
X78023809Y-39957142D02*
X78595238Y-40147619D01*
X78595238Y-39652380D01*
%TO.C,R8*%
X107666666Y-62261904D02*
X107400000Y-61880952D01*
X107209523Y-62261904D02*
X107209523Y-61461904D01*
X107514285Y-61461904D01*
X107590476Y-61500000D01*
X107628571Y-61538095D01*
X107666666Y-61614285D01*
X107666666Y-61728571D01*
X107628571Y-61804761D01*
X107590476Y-61842857D01*
X107514285Y-61880952D01*
X107209523Y-61880952D01*
X108123809Y-61804761D02*
X108047619Y-61766666D01*
X108009523Y-61728571D01*
X107971428Y-61652380D01*
X107971428Y-61614285D01*
X108009523Y-61538095D01*
X108047619Y-61500000D01*
X108123809Y-61461904D01*
X108276190Y-61461904D01*
X108352380Y-61500000D01*
X108390476Y-61538095D01*
X108428571Y-61614285D01*
X108428571Y-61652380D01*
X108390476Y-61728571D01*
X108352380Y-61766666D01*
X108276190Y-61804761D01*
X108123809Y-61804761D01*
X108047619Y-61842857D01*
X108009523Y-61880952D01*
X107971428Y-61957142D01*
X107971428Y-62109523D01*
X108009523Y-62185714D01*
X108047619Y-62223809D01*
X108123809Y-62261904D01*
X108276190Y-62261904D01*
X108352380Y-62223809D01*
X108390476Y-62185714D01*
X108428571Y-62109523D01*
X108428571Y-61957142D01*
X108390476Y-61880952D01*
X108352380Y-61842857D01*
X108276190Y-61804761D01*
%TO.C,D4*%
X129711904Y-38840476D02*
X128911904Y-38840476D01*
X128911904Y-38650000D01*
X128950000Y-38535714D01*
X129026190Y-38459523D01*
X129102380Y-38421428D01*
X129254761Y-38383333D01*
X129369047Y-38383333D01*
X129521428Y-38421428D01*
X129597619Y-38459523D01*
X129673809Y-38535714D01*
X129711904Y-38650000D01*
X129711904Y-38840476D01*
X129178571Y-37697619D02*
X129711904Y-37697619D01*
X128873809Y-37888095D02*
X129445238Y-38078571D01*
X129445238Y-37583333D01*
%TO.C,R9*%
X125566666Y-38761904D02*
X125300000Y-38380952D01*
X125109523Y-38761904D02*
X125109523Y-37961904D01*
X125414285Y-37961904D01*
X125490476Y-38000000D01*
X125528571Y-38038095D01*
X125566666Y-38114285D01*
X125566666Y-38228571D01*
X125528571Y-38304761D01*
X125490476Y-38342857D01*
X125414285Y-38380952D01*
X125109523Y-38380952D01*
X125947619Y-38761904D02*
X126100000Y-38761904D01*
X126176190Y-38723809D01*
X126214285Y-38685714D01*
X126290476Y-38571428D01*
X126328571Y-38419047D01*
X126328571Y-38114285D01*
X126290476Y-38038095D01*
X126252380Y-38000000D01*
X126176190Y-37961904D01*
X126023809Y-37961904D01*
X125947619Y-38000000D01*
X125909523Y-38038095D01*
X125871428Y-38114285D01*
X125871428Y-38304761D01*
X125909523Y-38380952D01*
X125947619Y-38419047D01*
X126023809Y-38457142D01*
X126176190Y-38457142D01*
X126252380Y-38419047D01*
X126290476Y-38380952D01*
X126328571Y-38304761D01*
%TO.C,C11*%
X80085714Y-41114285D02*
X80123809Y-41152380D01*
X80161904Y-41266666D01*
X80161904Y-41342857D01*
X80123809Y-41457142D01*
X80047619Y-41533333D01*
X79971428Y-41571428D01*
X79819047Y-41609523D01*
X79704761Y-41609523D01*
X79552380Y-41571428D01*
X79476190Y-41533333D01*
X79400000Y-41457142D01*
X79361904Y-41342857D01*
X79361904Y-41266666D01*
X79400000Y-41152380D01*
X79438095Y-41114285D01*
X80161904Y-40352380D02*
X80161904Y-40809523D01*
X80161904Y-40580952D02*
X79361904Y-40580952D01*
X79476190Y-40657142D01*
X79552380Y-40733333D01*
X79590476Y-40809523D01*
X80161904Y-39590476D02*
X80161904Y-40047619D01*
X80161904Y-39819047D02*
X79361904Y-39819047D01*
X79476190Y-39895238D01*
X79552380Y-39971428D01*
X79590476Y-40047619D01*
%TO.C,C7*%
X66435714Y-50233333D02*
X66473809Y-50271428D01*
X66511904Y-50385714D01*
X66511904Y-50461904D01*
X66473809Y-50576190D01*
X66397619Y-50652380D01*
X66321428Y-50690476D01*
X66169047Y-50728571D01*
X66054761Y-50728571D01*
X65902380Y-50690476D01*
X65826190Y-50652380D01*
X65750000Y-50576190D01*
X65711904Y-50461904D01*
X65711904Y-50385714D01*
X65750000Y-50271428D01*
X65788095Y-50233333D01*
X65711904Y-49966666D02*
X65711904Y-49433333D01*
X66511904Y-49776190D01*
%TO.C,R2*%
X110361904Y-49833333D02*
X109980952Y-50100000D01*
X110361904Y-50290476D02*
X109561904Y-50290476D01*
X109561904Y-49985714D01*
X109600000Y-49909523D01*
X109638095Y-49871428D01*
X109714285Y-49833333D01*
X109828571Y-49833333D01*
X109904761Y-49871428D01*
X109942857Y-49909523D01*
X109980952Y-49985714D01*
X109980952Y-50290476D01*
X109638095Y-49528571D02*
X109600000Y-49490476D01*
X109561904Y-49414285D01*
X109561904Y-49223809D01*
X109600000Y-49147619D01*
X109638095Y-49109523D01*
X109714285Y-49071428D01*
X109790476Y-49071428D01*
X109904761Y-49109523D01*
X110361904Y-49566666D01*
X110361904Y-49071428D01*
%TO.C,Rsense1*%
X66671428Y-31161904D02*
X66404761Y-30780952D01*
X66214285Y-31161904D02*
X66214285Y-30361904D01*
X66519047Y-30361904D01*
X66595238Y-30400000D01*
X66633333Y-30438095D01*
X66671428Y-30514285D01*
X66671428Y-30628571D01*
X66633333Y-30704761D01*
X66595238Y-30742857D01*
X66519047Y-30780952D01*
X66214285Y-30780952D01*
X66976190Y-31123809D02*
X67052380Y-31161904D01*
X67204761Y-31161904D01*
X67280952Y-31123809D01*
X67319047Y-31047619D01*
X67319047Y-31009523D01*
X67280952Y-30933333D01*
X67204761Y-30895238D01*
X67090476Y-30895238D01*
X67014285Y-30857142D01*
X66976190Y-30780952D01*
X66976190Y-30742857D01*
X67014285Y-30666666D01*
X67090476Y-30628571D01*
X67204761Y-30628571D01*
X67280952Y-30666666D01*
X67966666Y-31123809D02*
X67890476Y-31161904D01*
X67738095Y-31161904D01*
X67661904Y-31123809D01*
X67623809Y-31047619D01*
X67623809Y-30742857D01*
X67661904Y-30666666D01*
X67738095Y-30628571D01*
X67890476Y-30628571D01*
X67966666Y-30666666D01*
X68004761Y-30742857D01*
X68004761Y-30819047D01*
X67623809Y-30895238D01*
X68347619Y-30628571D02*
X68347619Y-31161904D01*
X68347619Y-30704761D02*
X68385714Y-30666666D01*
X68461904Y-30628571D01*
X68576190Y-30628571D01*
X68652380Y-30666666D01*
X68690476Y-30742857D01*
X68690476Y-31161904D01*
X69033333Y-31123809D02*
X69109523Y-31161904D01*
X69261904Y-31161904D01*
X69338095Y-31123809D01*
X69376190Y-31047619D01*
X69376190Y-31009523D01*
X69338095Y-30933333D01*
X69261904Y-30895238D01*
X69147619Y-30895238D01*
X69071428Y-30857142D01*
X69033333Y-30780952D01*
X69033333Y-30742857D01*
X69071428Y-30666666D01*
X69147619Y-30628571D01*
X69261904Y-30628571D01*
X69338095Y-30666666D01*
X70023809Y-31123809D02*
X69947619Y-31161904D01*
X69795238Y-31161904D01*
X69719047Y-31123809D01*
X69680952Y-31047619D01*
X69680952Y-30742857D01*
X69719047Y-30666666D01*
X69795238Y-30628571D01*
X69947619Y-30628571D01*
X70023809Y-30666666D01*
X70061904Y-30742857D01*
X70061904Y-30819047D01*
X69680952Y-30895238D01*
X70823809Y-31161904D02*
X70366666Y-31161904D01*
X70595238Y-31161904D02*
X70595238Y-30361904D01*
X70519047Y-30476190D01*
X70442857Y-30552380D01*
X70366666Y-30590476D01*
%TO.C,IC3*%
X45561904Y-53480952D02*
X44761904Y-53480952D01*
X45485714Y-52642857D02*
X45523809Y-52680952D01*
X45561904Y-52795238D01*
X45561904Y-52871428D01*
X45523809Y-52985714D01*
X45447619Y-53061904D01*
X45371428Y-53100000D01*
X45219047Y-53138095D01*
X45104761Y-53138095D01*
X44952380Y-53100000D01*
X44876190Y-53061904D01*
X44800000Y-52985714D01*
X44761904Y-52871428D01*
X44761904Y-52795238D01*
X44800000Y-52680952D01*
X44838095Y-52642857D01*
X44761904Y-52376190D02*
X44761904Y-51880952D01*
X45066666Y-52147619D01*
X45066666Y-52033333D01*
X45104761Y-51957142D01*
X45142857Y-51919047D01*
X45219047Y-51880952D01*
X45409523Y-51880952D01*
X45485714Y-51919047D01*
X45523809Y-51957142D01*
X45561904Y-52033333D01*
X45561904Y-52261904D01*
X45523809Y-52338095D01*
X45485714Y-52376190D01*
%TO.C,Q3*%
X101123809Y-45638095D02*
X101047619Y-45600000D01*
X100971428Y-45523809D01*
X100857142Y-45409523D01*
X100780952Y-45371428D01*
X100704761Y-45371428D01*
X100742857Y-45561904D02*
X100666666Y-45523809D01*
X100590476Y-45447619D01*
X100552380Y-45295238D01*
X100552380Y-45028571D01*
X100590476Y-44876190D01*
X100666666Y-44800000D01*
X100742857Y-44761904D01*
X100895238Y-44761904D01*
X100971428Y-44800000D01*
X101047619Y-44876190D01*
X101085714Y-45028571D01*
X101085714Y-45295238D01*
X101047619Y-45447619D01*
X100971428Y-45523809D01*
X100895238Y-45561904D01*
X100742857Y-45561904D01*
X101352380Y-44761904D02*
X101847619Y-44761904D01*
X101580952Y-45066666D01*
X101695238Y-45066666D01*
X101771428Y-45104761D01*
X101809523Y-45142857D01*
X101847619Y-45219047D01*
X101847619Y-45409523D01*
X101809523Y-45485714D01*
X101771428Y-45523809D01*
X101695238Y-45561904D01*
X101466666Y-45561904D01*
X101390476Y-45523809D01*
X101352380Y-45485714D01*
%TO.C,R12*%
X91561904Y-34414285D02*
X91180952Y-34680952D01*
X91561904Y-34871428D02*
X90761904Y-34871428D01*
X90761904Y-34566666D01*
X90800000Y-34490476D01*
X90838095Y-34452380D01*
X90914285Y-34414285D01*
X91028571Y-34414285D01*
X91104761Y-34452380D01*
X91142857Y-34490476D01*
X91180952Y-34566666D01*
X91180952Y-34871428D01*
X91561904Y-33652380D02*
X91561904Y-34109523D01*
X91561904Y-33880952D02*
X90761904Y-33880952D01*
X90876190Y-33957142D01*
X90952380Y-34033333D01*
X90990476Y-34109523D01*
X90838095Y-33347619D02*
X90800000Y-33309523D01*
X90761904Y-33233333D01*
X90761904Y-33042857D01*
X90800000Y-32966666D01*
X90838095Y-32928571D01*
X90914285Y-32890476D01*
X90990476Y-32890476D01*
X91104761Y-32928571D01*
X91561904Y-33385714D01*
X91561904Y-32890476D01*
%TO.C,Qboost1*%
X84238095Y-43314285D02*
X84200000Y-43390476D01*
X84123809Y-43466666D01*
X84009523Y-43580952D01*
X83971428Y-43657142D01*
X83971428Y-43733333D01*
X84161904Y-43695238D02*
X84123809Y-43771428D01*
X84047619Y-43847619D01*
X83895238Y-43885714D01*
X83628571Y-43885714D01*
X83476190Y-43847619D01*
X83400000Y-43771428D01*
X83361904Y-43695238D01*
X83361904Y-43542857D01*
X83400000Y-43466666D01*
X83476190Y-43390476D01*
X83628571Y-43352380D01*
X83895238Y-43352380D01*
X84047619Y-43390476D01*
X84123809Y-43466666D01*
X84161904Y-43542857D01*
X84161904Y-43695238D01*
X84161904Y-43009523D02*
X83361904Y-43009523D01*
X83666666Y-43009523D02*
X83628571Y-42933333D01*
X83628571Y-42780952D01*
X83666666Y-42704761D01*
X83704761Y-42666666D01*
X83780952Y-42628571D01*
X84009523Y-42628571D01*
X84085714Y-42666666D01*
X84123809Y-42704761D01*
X84161904Y-42780952D01*
X84161904Y-42933333D01*
X84123809Y-43009523D01*
X84161904Y-42171428D02*
X84123809Y-42247619D01*
X84085714Y-42285714D01*
X84009523Y-42323809D01*
X83780952Y-42323809D01*
X83704761Y-42285714D01*
X83666666Y-42247619D01*
X83628571Y-42171428D01*
X83628571Y-42057142D01*
X83666666Y-41980952D01*
X83704761Y-41942857D01*
X83780952Y-41904761D01*
X84009523Y-41904761D01*
X84085714Y-41942857D01*
X84123809Y-41980952D01*
X84161904Y-42057142D01*
X84161904Y-42171428D01*
X84161904Y-41447619D02*
X84123809Y-41523809D01*
X84085714Y-41561904D01*
X84009523Y-41600000D01*
X83780952Y-41600000D01*
X83704761Y-41561904D01*
X83666666Y-41523809D01*
X83628571Y-41447619D01*
X83628571Y-41333333D01*
X83666666Y-41257142D01*
X83704761Y-41219047D01*
X83780952Y-41180952D01*
X84009523Y-41180952D01*
X84085714Y-41219047D01*
X84123809Y-41257142D01*
X84161904Y-41333333D01*
X84161904Y-41447619D01*
X84123809Y-40876190D02*
X84161904Y-40800000D01*
X84161904Y-40647619D01*
X84123809Y-40571428D01*
X84047619Y-40533333D01*
X84009523Y-40533333D01*
X83933333Y-40571428D01*
X83895238Y-40647619D01*
X83895238Y-40761904D01*
X83857142Y-40838095D01*
X83780952Y-40876190D01*
X83742857Y-40876190D01*
X83666666Y-40838095D01*
X83628571Y-40761904D01*
X83628571Y-40647619D01*
X83666666Y-40571428D01*
X83628571Y-40304761D02*
X83628571Y-40000000D01*
X83361904Y-40190476D02*
X84047619Y-40190476D01*
X84123809Y-40152380D01*
X84161904Y-40076190D01*
X84161904Y-40000000D01*
X84161904Y-39314285D02*
X84161904Y-39771428D01*
X84161904Y-39542857D02*
X83361904Y-39542857D01*
X83476190Y-39619047D01*
X83552380Y-39695238D01*
X83590476Y-39771428D01*
%TO.C,Ruv2*%
X37661904Y-57300000D02*
X37280952Y-57566666D01*
X37661904Y-57757142D02*
X36861904Y-57757142D01*
X36861904Y-57452380D01*
X36900000Y-57376190D01*
X36938095Y-57338095D01*
X37014285Y-57300000D01*
X37128571Y-57300000D01*
X37204761Y-57338095D01*
X37242857Y-57376190D01*
X37280952Y-57452380D01*
X37280952Y-57757142D01*
X37128571Y-56614285D02*
X37661904Y-56614285D01*
X37128571Y-56957142D02*
X37547619Y-56957142D01*
X37623809Y-56919047D01*
X37661904Y-56842857D01*
X37661904Y-56728571D01*
X37623809Y-56652380D01*
X37585714Y-56614285D01*
X37128571Y-56309523D02*
X37661904Y-56119047D01*
X37128571Y-55928571D01*
X36938095Y-55661904D02*
X36900000Y-55623809D01*
X36861904Y-55547619D01*
X36861904Y-55357142D01*
X36900000Y-55280952D01*
X36938095Y-55242857D01*
X37014285Y-55204761D01*
X37090476Y-55204761D01*
X37204761Y-55242857D01*
X37661904Y-55700000D01*
X37661904Y-55204761D01*
%TO.C,R5*%
X118666666Y-42261904D02*
X118400000Y-41880952D01*
X118209523Y-42261904D02*
X118209523Y-41461904D01*
X118514285Y-41461904D01*
X118590476Y-41500000D01*
X118628571Y-41538095D01*
X118666666Y-41614285D01*
X118666666Y-41728571D01*
X118628571Y-41804761D01*
X118590476Y-41842857D01*
X118514285Y-41880952D01*
X118209523Y-41880952D01*
X119390476Y-41461904D02*
X119009523Y-41461904D01*
X118971428Y-41842857D01*
X119009523Y-41804761D01*
X119085714Y-41766666D01*
X119276190Y-41766666D01*
X119352380Y-41804761D01*
X119390476Y-41842857D01*
X119428571Y-41919047D01*
X119428571Y-42109523D01*
X119390476Y-42185714D01*
X119352380Y-42223809D01*
X119276190Y-42261904D01*
X119085714Y-42261904D01*
X119009523Y-42223809D01*
X118971428Y-42185714D01*
%TO.C,D2*%
X43061904Y-32990476D02*
X42261904Y-32990476D01*
X42261904Y-32800000D01*
X42300000Y-32685714D01*
X42376190Y-32609523D01*
X42452380Y-32571428D01*
X42604761Y-32533333D01*
X42719047Y-32533333D01*
X42871428Y-32571428D01*
X42947619Y-32609523D01*
X43023809Y-32685714D01*
X43061904Y-32800000D01*
X43061904Y-32990476D01*
X42338095Y-32228571D02*
X42300000Y-32190476D01*
X42261904Y-32114285D01*
X42261904Y-31923809D01*
X42300000Y-31847619D01*
X42338095Y-31809523D01*
X42414285Y-31771428D01*
X42490476Y-31771428D01*
X42604761Y-31809523D01*
X43061904Y-32266666D01*
X43061904Y-31771428D01*
%TO.C,F1*%
X39342857Y-34166666D02*
X39342857Y-34433333D01*
X39761904Y-34433333D02*
X38961904Y-34433333D01*
X38961904Y-34052380D01*
X39761904Y-33328571D02*
X39761904Y-33785714D01*
X39761904Y-33557142D02*
X38961904Y-33557142D01*
X39076190Y-33633333D01*
X39152380Y-33709523D01*
X39190476Y-33785714D01*
%TO.C,C10*%
X120785714Y-31085714D02*
X120747619Y-31123809D01*
X120633333Y-31161904D01*
X120557142Y-31161904D01*
X120442857Y-31123809D01*
X120366666Y-31047619D01*
X120328571Y-30971428D01*
X120290476Y-30819047D01*
X120290476Y-30704761D01*
X120328571Y-30552380D01*
X120366666Y-30476190D01*
X120442857Y-30400000D01*
X120557142Y-30361904D01*
X120633333Y-30361904D01*
X120747619Y-30400000D01*
X120785714Y-30438095D01*
X121547619Y-31161904D02*
X121090476Y-31161904D01*
X121319047Y-31161904D02*
X121319047Y-30361904D01*
X121242857Y-30476190D01*
X121166666Y-30552380D01*
X121090476Y-30590476D01*
X122042857Y-30361904D02*
X122119047Y-30361904D01*
X122195238Y-30400000D01*
X122233333Y-30438095D01*
X122271428Y-30514285D01*
X122309523Y-30666666D01*
X122309523Y-30857142D01*
X122271428Y-31009523D01*
X122233333Y-31085714D01*
X122195238Y-31123809D01*
X122119047Y-31161904D01*
X122042857Y-31161904D01*
X121966666Y-31123809D01*
X121928571Y-31085714D01*
X121890476Y-31009523D01*
X121852380Y-30857142D01*
X121852380Y-30666666D01*
X121890476Y-30514285D01*
X121928571Y-30438095D01*
X121966666Y-30400000D01*
X122042857Y-30361904D01*
%TO.C,Dbuck1*%
X82061904Y-43380952D02*
X81261904Y-43380952D01*
X81261904Y-43190476D01*
X81300000Y-43076190D01*
X81376190Y-43000000D01*
X81452380Y-42961904D01*
X81604761Y-42923809D01*
X81719047Y-42923809D01*
X81871428Y-42961904D01*
X81947619Y-43000000D01*
X82023809Y-43076190D01*
X82061904Y-43190476D01*
X82061904Y-43380952D01*
X82061904Y-42580952D02*
X81261904Y-42580952D01*
X81566666Y-42580952D02*
X81528571Y-42504761D01*
X81528571Y-42352380D01*
X81566666Y-42276190D01*
X81604761Y-42238095D01*
X81680952Y-42200000D01*
X81909523Y-42200000D01*
X81985714Y-42238095D01*
X82023809Y-42276190D01*
X82061904Y-42352380D01*
X82061904Y-42504761D01*
X82023809Y-42580952D01*
X81528571Y-41514285D02*
X82061904Y-41514285D01*
X81528571Y-41857142D02*
X81947619Y-41857142D01*
X82023809Y-41819047D01*
X82061904Y-41742857D01*
X82061904Y-41628571D01*
X82023809Y-41552380D01*
X81985714Y-41514285D01*
X82023809Y-40790476D02*
X82061904Y-40866666D01*
X82061904Y-41019047D01*
X82023809Y-41095238D01*
X81985714Y-41133333D01*
X81909523Y-41171428D01*
X81680952Y-41171428D01*
X81604761Y-41133333D01*
X81566666Y-41095238D01*
X81528571Y-41019047D01*
X81528571Y-40866666D01*
X81566666Y-40790476D01*
X82061904Y-40447619D02*
X81261904Y-40447619D01*
X81757142Y-40371428D02*
X82061904Y-40142857D01*
X81528571Y-40142857D02*
X81833333Y-40447619D01*
X82061904Y-39380952D02*
X82061904Y-39838095D01*
X82061904Y-39609523D02*
X81261904Y-39609523D01*
X81376190Y-39685714D01*
X81452380Y-39761904D01*
X81490476Y-39838095D01*
%TO.C,R11*%
X82961904Y-58414285D02*
X82580952Y-58680952D01*
X82961904Y-58871428D02*
X82161904Y-58871428D01*
X82161904Y-58566666D01*
X82200000Y-58490476D01*
X82238095Y-58452380D01*
X82314285Y-58414285D01*
X82428571Y-58414285D01*
X82504761Y-58452380D01*
X82542857Y-58490476D01*
X82580952Y-58566666D01*
X82580952Y-58871428D01*
X82961904Y-57652380D02*
X82961904Y-58109523D01*
X82961904Y-57880952D02*
X82161904Y-57880952D01*
X82276190Y-57957142D01*
X82352380Y-58033333D01*
X82390476Y-58109523D01*
X82961904Y-56890476D02*
X82961904Y-57347619D01*
X82961904Y-57119047D02*
X82161904Y-57119047D01*
X82276190Y-57195238D01*
X82352380Y-57271428D01*
X82390476Y-57347619D01*
D13*
%TO.C,Crx2*%
X117859420Y-60710000D02*
X118140580Y-60710000D01*
X117859420Y-59690000D02*
X118140580Y-59690000D01*
%TO.C,Cvpwr1*%
X112090000Y-54859420D02*
X112090000Y-55140580D01*
X113110000Y-54859420D02*
X113110000Y-55140580D01*
%TO.C,Dboost1*%
X86030000Y-61200000D02*
X86030000Y-60930000D01*
X86030000Y-54570000D02*
X83200000Y-54570000D01*
X86030000Y-60930000D02*
X84930000Y-60930000D01*
X87530000Y-54300000D02*
X86030000Y-54300000D01*
X86030000Y-54300000D02*
X86030000Y-54570000D01*
X87530000Y-61200000D02*
X86030000Y-61200000D01*
%TO.C,U1*%
X114310000Y-30600000D02*
X108140000Y-30600000D01*
X114310000Y-37400000D02*
X109690000Y-37400000D01*
%TO.C,Rt1*%
X104077500Y-33462742D02*
X104077500Y-33937258D01*
X105122500Y-33462742D02*
X105122500Y-33937258D01*
%TO.C,Q4*%
X48180000Y-44550000D02*
X48180000Y-44820000D01*
X48180000Y-51450000D02*
X48180000Y-51180000D01*
X48180000Y-51180000D02*
X47080000Y-51180000D01*
X49680000Y-44550000D02*
X48180000Y-44550000D01*
X48180000Y-44820000D02*
X45350000Y-44820000D01*
X49680000Y-51450000D02*
X48180000Y-51450000D01*
%TO.C,Q2*%
X48180000Y-44080000D02*
X47080000Y-44080000D01*
X48180000Y-44350000D02*
X48180000Y-44080000D01*
X49680000Y-37450000D02*
X48180000Y-37450000D01*
X48180000Y-37720000D02*
X45350000Y-37720000D01*
X48180000Y-37450000D02*
X48180000Y-37720000D01*
X49680000Y-44350000D02*
X48180000Y-44350000D01*
%TO.C,Rsel1*%
X120677500Y-56562742D02*
X120677500Y-57037258D01*
X121722500Y-56562742D02*
X121722500Y-57037258D01*
%TO.C,Ruv1*%
X39472500Y-59987258D02*
X39472500Y-59512742D01*
X38427500Y-59987258D02*
X38427500Y-59512742D01*
%TO.C,JP1*%
X111100000Y-58850000D02*
X111100000Y-60250000D01*
X109800000Y-58150000D02*
X110400000Y-58150000D01*
X110400000Y-60950000D02*
X109800000Y-60950000D01*
X109100000Y-60250000D02*
X109100000Y-58850000D01*
X109800000Y-60950000D02*
G75*
G02*
X109100000Y-60250000I0J700000D01*
G01*
X111100000Y-60250000D02*
G75*
G02*
X110400000Y-60950000I-700000J0D01*
G01*
X110400000Y-58150000D02*
G75*
G02*
X111100000Y-58850000I0J-700000D01*
G01*
X109100000Y-58850000D02*
G75*
G02*
X109800000Y-58150000I700000J0D01*
G01*
%TO.C,C4*%
X68588748Y-41690000D02*
X70011252Y-41690000D01*
X68588748Y-43510000D02*
X70011252Y-43510000D01*
%TO.C,D5*%
X122450000Y-51550000D02*
X128150000Y-51550000D01*
X122450000Y-55850000D02*
X128150000Y-55850000D01*
X122450000Y-51550000D02*
X122450000Y-55850000D01*
%TO.C,C6*%
X68588748Y-46690000D02*
X70011252Y-46690000D01*
X68588748Y-48510000D02*
X70011252Y-48510000D01*
%TO.C,Q1*%
X108620000Y-46150000D02*
X110120000Y-46150000D01*
X108620000Y-53050000D02*
X110120000Y-53050000D01*
X110120000Y-46150000D02*
X110120000Y-46420000D01*
X110120000Y-46420000D02*
X111220000Y-46420000D01*
X110120000Y-53050000D02*
X110120000Y-52780000D01*
X110120000Y-52780000D02*
X112950000Y-52780000D01*
%TO.C,C5*%
X68588748Y-46010000D02*
X70011252Y-46010000D01*
X68588748Y-44190000D02*
X70011252Y-44190000D01*
%TO.C,Rcomp1*%
X104277500Y-36662742D02*
X104277500Y-37137258D01*
X105322500Y-36662742D02*
X105322500Y-37137258D01*
%TO.C,IC2*%
X114350000Y-53850000D02*
X114350000Y-52900000D01*
X119150000Y-56750000D02*
X119150000Y-57700000D01*
X114350000Y-52900000D02*
X115300000Y-52900000D01*
X119150000Y-53800000D02*
X119150000Y-52900000D01*
X119150000Y-52900000D02*
X118200000Y-52900000D01*
X119150000Y-57700000D02*
X118200000Y-57700000D01*
X115300000Y-57700000D02*
X114350000Y-57700000D01*
X114350000Y-56750000D02*
X114350000Y-57700000D01*
%TO.C,Cvtx1*%
X113015580Y-58090000D02*
X112734420Y-58090000D01*
X113015580Y-59110000D02*
X112734420Y-59110000D01*
%TO.C,C9*%
X68290000Y-57311252D02*
X68290000Y-55888748D01*
X70110000Y-57311252D02*
X70110000Y-55888748D01*
%TO.C,Cout2*%
X97730000Y-49350000D02*
X97730000Y-50150000D01*
X98130000Y-49750000D02*
X97330000Y-49750000D01*
X98130000Y-50800000D02*
X97330000Y-50800000D01*
X101820000Y-50150000D02*
G75*
G03*
X101820000Y-50150000I-4120000J0D01*
G01*
%TO.C,R6*%
X120762258Y-45027500D02*
X120287742Y-45027500D01*
X120762258Y-46072500D02*
X120287742Y-46072500D01*
%TO.C,C2*%
X107610000Y-54990580D02*
X107610000Y-54709420D01*
X106590000Y-54990580D02*
X106590000Y-54709420D01*
%TO.C,Cinx1*%
X102340580Y-31610000D02*
X102059420Y-31610000D01*
X102340580Y-30590000D02*
X102059420Y-30590000D01*
%TO.C,R1*%
X103623737Y-53545000D02*
X102176263Y-53545000D01*
X103623737Y-56255000D02*
X102176263Y-56255000D01*
%TO.C,C8*%
X68588748Y-51690000D02*
X70011252Y-51690000D01*
X68588748Y-53510000D02*
X70011252Y-53510000D01*
%TO.C,Qbuck1*%
X79170000Y-54570000D02*
X80270000Y-54570000D01*
X77670000Y-61200000D02*
X79170000Y-61200000D01*
X77670000Y-54300000D02*
X79170000Y-54300000D01*
X79170000Y-54300000D02*
X79170000Y-54570000D01*
X79170000Y-60930000D02*
X82000000Y-60930000D01*
X79170000Y-61200000D02*
X79170000Y-60930000D01*
%TO.C,Q5*%
X111510000Y-55700000D02*
X111510000Y-55050000D01*
X108390000Y-55700000D02*
X108390000Y-55050000D01*
X108390000Y-55700000D02*
X108390000Y-57375000D01*
X111510000Y-55700000D02*
X111510000Y-56350000D01*
%TO.C,D3*%
X41600000Y-35400000D02*
X45500000Y-35400000D01*
X41600000Y-37400000D02*
X45500000Y-37400000D01*
X41600000Y-35400000D02*
X41600000Y-37400000D01*
%TO.C,D1*%
X56200000Y-36750000D02*
X47800000Y-36750000D01*
X56200000Y-30250000D02*
X56200000Y-36750000D01*
X56200000Y-30250000D02*
X47800000Y-30250000D01*
%TO.C,Crx1*%
X114940580Y-60710000D02*
X114659420Y-60710000D01*
X114940580Y-59690000D02*
X114659420Y-59690000D01*
%TO.C,C1*%
X100090000Y-58288748D02*
X100090000Y-59711252D01*
X101910000Y-58288748D02*
X101910000Y-59711252D01*
%TO.C,R4*%
X44677500Y-33587258D02*
X44677500Y-33112742D01*
X45722500Y-33587258D02*
X45722500Y-33112742D01*
%TO.C,Rfbl2*%
X120077500Y-34437258D02*
X120077500Y-33962742D01*
X121122500Y-34437258D02*
X121122500Y-33962742D01*
%TO.C,Cvaux1*%
X118409420Y-50540000D02*
X118690580Y-50540000D01*
X118409420Y-51560000D02*
X118690580Y-51560000D01*
%TO.C,C12*%
X95888748Y-61060000D02*
X97311252Y-61060000D01*
X95888748Y-59240000D02*
X97311252Y-59240000D01*
%TO.C,C14*%
X95888748Y-54590000D02*
X97311252Y-54590000D01*
X95888748Y-56410000D02*
X97311252Y-56410000D01*
%TO.C,Cslu1*%
X118590000Y-37640580D02*
X118590000Y-37359420D01*
X119610000Y-37640580D02*
X119610000Y-37359420D01*
%TO.C,C3*%
X120340000Y-48238748D02*
X120340000Y-49661252D01*
X122160000Y-48238748D02*
X122160000Y-49661252D01*
%TO.C,Rslew1*%
X115187742Y-49922500D02*
X115662258Y-49922500D01*
X115187742Y-48877500D02*
X115662258Y-48877500D01*
%TO.C,Csll1*%
X122610000Y-37359420D02*
X122610000Y-37640580D01*
X121590000Y-37359420D02*
X121590000Y-37640580D01*
%TO.C,R3*%
X114622500Y-44062742D02*
X114622500Y-44537258D01*
X113577500Y-44062742D02*
X113577500Y-44537258D01*
%TO.C,Cout1*%
X97270000Y-41952651D02*
X98070000Y-41952651D01*
X97270000Y-40902651D02*
X98070000Y-40902651D01*
X97670000Y-42352651D02*
X97670000Y-41552651D01*
X101820000Y-41552651D02*
G75*
G03*
X101820000Y-41552651I-4120000J0D01*
G01*
%TO.C,RV1*%
X47695000Y-64005000D02*
X47695000Y-63246000D01*
X48910000Y-64005000D02*
X48910000Y-62486000D01*
X46305000Y-62485000D02*
X46305000Y-52215000D01*
X46305000Y-62485000D02*
X56075000Y-62485000D01*
X46481000Y-64005000D02*
X48910000Y-64005000D01*
X46481000Y-64005000D02*
X46481000Y-62486000D01*
X56075000Y-62485000D02*
X56075000Y-52215000D01*
X46481000Y-62486000D02*
X48910000Y-62486000D01*
X46305000Y-52215000D02*
X56075000Y-52215000D01*
%TO.C,R7*%
X121882742Y-58797500D02*
X122357258Y-58797500D01*
X121882742Y-59842500D02*
X122357258Y-59842500D01*
%TO.C,R14*%
X73922500Y-33987258D02*
X73922500Y-33512742D01*
X72877500Y-33987258D02*
X72877500Y-33512742D01*
D14*
%TO.C,J1*%
X25875790Y-39058805D02*
X33617563Y-39058805D01*
X40207800Y-39650000D02*
X39064800Y-39650000D01*
X39638065Y-53756897D02*
X39638065Y-53543269D01*
X43150000Y-40586946D02*
X43150000Y-46000000D01*
X43150000Y-51413054D02*
X43150000Y-46000000D01*
X39623600Y-52858000D02*
X39623600Y-51715000D01*
X25875790Y-39058805D02*
X25875790Y-46000000D01*
X25875790Y-52941195D02*
X33617563Y-52941195D01*
X33617563Y-38243103D02*
X39638065Y-38243103D01*
X33617563Y-53756897D02*
X39638065Y-53756897D01*
X39623600Y-40234200D02*
X39623600Y-39091200D01*
X39638065Y-38243103D02*
X39638065Y-38456731D01*
X33617563Y-52941195D02*
X33617563Y-53756897D01*
X25875790Y-52941195D02*
X25875790Y-46000000D01*
X33617563Y-39058805D02*
X33617563Y-38243103D01*
X39638065Y-38456731D02*
G75*
G02*
X43150000Y-40586946I-584951J-4924414D01*
G01*
X43150000Y-51413053D02*
G75*
G02*
X39638065Y-53543269I-4096886J2794198D01*
G01*
D13*
%TO.C,R8*%
X108322500Y-59087742D02*
X108322500Y-59562258D01*
X107277500Y-59087742D02*
X107277500Y-59562258D01*
%TO.C,D4*%
X128660000Y-36565000D02*
X126740000Y-36565000D01*
X128660000Y-39250000D02*
X128660000Y-36565000D01*
X126740000Y-36565000D02*
X126740000Y-39250000D01*
%TO.C,C13*%
X95888748Y-56940000D02*
X97311252Y-56940000D01*
X95888748Y-58760000D02*
X97311252Y-58760000D01*
%TO.C,R9*%
X124637258Y-40322500D02*
X124162742Y-40322500D01*
X124637258Y-39277500D02*
X124162742Y-39277500D01*
%TO.C,C11*%
X72410000Y-33609420D02*
X72410000Y-33890580D01*
X71390000Y-33609420D02*
X71390000Y-33890580D01*
%TO.C,C7*%
X68588748Y-51010000D02*
X70011252Y-51010000D01*
X68588748Y-49190000D02*
X70011252Y-49190000D01*
%TO.C,Rfbl3*%
X122622500Y-34437258D02*
X122622500Y-33962742D01*
X121577500Y-34437258D02*
X121577500Y-33962742D01*
%TO.C,L1*%
X82600000Y-38400000D02*
X91600000Y-38400000D01*
X91600000Y-53400000D02*
X91600000Y-52900000D01*
X73600000Y-38400000D02*
X73600000Y-38900000D01*
X82600000Y-53400000D02*
X91600000Y-53400000D01*
X82600000Y-53400000D02*
X73600000Y-53400000D01*
X91600000Y-38400000D02*
X91600000Y-38900000D01*
X82600000Y-38400000D02*
X73600000Y-38400000D01*
X73600000Y-53400000D02*
X73600000Y-52900000D01*
%TO.C,R2*%
X111862742Y-49227500D02*
X112337258Y-49227500D01*
X111862742Y-50272500D02*
X112337258Y-50272500D01*
%TO.C,Cslew1*%
X116309420Y-47265000D02*
X116590580Y-47265000D01*
X116309420Y-48285000D02*
X116590580Y-48285000D01*
%TO.C,Cinbulk3*%
X60559000Y-60541000D02*
X58239000Y-60541000D01*
X66854000Y-57420000D02*
X56746000Y-57420000D01*
X66774000Y-57941000D02*
X56826000Y-57941000D01*
X60559000Y-58621000D02*
X57017000Y-58621000D01*
X66421000Y-59021000D02*
X63041000Y-59021000D01*
X60559000Y-59741000D02*
X57579000Y-59741000D01*
X60559000Y-59781000D02*
X57606000Y-59781000D01*
X60559000Y-60181000D02*
X57908000Y-60181000D01*
X66490000Y-58861000D02*
X63041000Y-58861000D01*
X66568000Y-58661000D02*
X63041000Y-58661000D01*
X60559000Y-58661000D02*
X57032000Y-58661000D01*
X66797000Y-57821000D02*
X56803000Y-57821000D01*
X66818000Y-57701000D02*
X56782000Y-57701000D01*
X66637000Y-58461000D02*
X63041000Y-58461000D01*
X60559000Y-59021000D02*
X57179000Y-59021000D01*
X60559000Y-59061000D02*
X57197000Y-59061000D01*
X65320000Y-60581000D02*
X63041000Y-60581000D01*
X66835000Y-57580000D02*
X56765000Y-57580000D01*
X65175000Y-51920354D02*
X64175000Y-51920354D01*
X65624000Y-60261000D02*
X63041000Y-60261000D01*
X65789000Y-60061000D02*
X63041000Y-60061000D01*
X65101000Y-60781000D02*
X58499000Y-60781000D01*
X66728000Y-58141000D02*
X56872000Y-58141000D01*
X66217000Y-59421000D02*
X63041000Y-59421000D01*
X60559000Y-59101000D02*
X57216000Y-59101000D01*
X66171000Y-59501000D02*
X63041000Y-59501000D01*
X60559000Y-58861000D02*
X57110000Y-58861000D01*
X64379000Y-61301000D02*
X59221000Y-61301000D01*
X60559000Y-60621000D02*
X58322000Y-60621000D01*
X66662000Y-58381000D02*
X63041000Y-58381000D01*
X66650000Y-58421000D02*
X63041000Y-58421000D01*
X60559000Y-58261000D02*
X56903000Y-58261000D01*
X66840000Y-57540000D02*
X56760000Y-57540000D01*
X66879000Y-57020000D02*
X56721000Y-57020000D01*
X66523000Y-58781000D02*
X63041000Y-58781000D01*
X66877000Y-57100000D02*
X56723000Y-57100000D01*
X66364000Y-59141000D02*
X63041000Y-59141000D01*
X64239000Y-61381000D02*
X59361000Y-61381000D01*
X60559000Y-58421000D02*
X56950000Y-58421000D01*
X66325000Y-59221000D02*
X63041000Y-59221000D01*
X66474000Y-58901000D02*
X63041000Y-58901000D01*
X66262000Y-59341000D02*
X63041000Y-59341000D01*
X66880000Y-56980000D02*
X56720000Y-56980000D01*
X65994000Y-59781000D02*
X63041000Y-59781000D01*
X66384000Y-59101000D02*
X63041000Y-59101000D01*
X63310000Y-61781000D02*
X60290000Y-61781000D01*
X60559000Y-60141000D02*
X57875000Y-60141000D01*
X63430000Y-61741000D02*
X60170000Y-61741000D01*
X65938000Y-59861000D02*
X63041000Y-59861000D01*
X63925000Y-61541000D02*
X59675000Y-61541000D01*
X60559000Y-60341000D02*
X58047000Y-60341000D01*
X66147000Y-59541000D02*
X63041000Y-59541000D01*
X64689000Y-61101000D02*
X58911000Y-61101000D01*
X65880000Y-59941000D02*
X63041000Y-59941000D01*
X65440000Y-60461000D02*
X63041000Y-60461000D01*
X64800000Y-61021000D02*
X58800000Y-61021000D01*
X62399000Y-61981000D02*
X61201000Y-61981000D01*
X64165000Y-61421000D02*
X59435000Y-61421000D01*
X66674000Y-58341000D02*
X63041000Y-58341000D01*
X66756000Y-58021000D02*
X56844000Y-58021000D01*
X64509000Y-61221000D02*
X59091000Y-61221000D01*
X65516000Y-60381000D02*
X63041000Y-60381000D01*
X66240000Y-59381000D02*
X63041000Y-59381000D01*
X66457000Y-58941000D02*
X63041000Y-58941000D01*
X60559000Y-60461000D02*
X58160000Y-60461000D01*
X64906000Y-60941000D02*
X58694000Y-60941000D01*
X66738000Y-58101000D02*
X56862000Y-58101000D01*
X66304000Y-59261000D02*
X63041000Y-59261000D01*
X64445000Y-61261000D02*
X59155000Y-61261000D01*
X66865000Y-57300000D02*
X56735000Y-57300000D01*
X65589000Y-60301000D02*
X63041000Y-60301000D01*
X65147000Y-60741000D02*
X58453000Y-60741000D01*
X66283000Y-59301000D02*
X63041000Y-59301000D01*
X60559000Y-59901000D02*
X57690000Y-59901000D01*
X60559000Y-59581000D02*
X57477000Y-59581000D01*
X65553000Y-60341000D02*
X63041000Y-60341000D01*
X60559000Y-59941000D02*
X57720000Y-59941000D01*
X66875000Y-57140000D02*
X56725000Y-57140000D01*
X60559000Y-59661000D02*
X57527000Y-59661000D01*
X66850000Y-57460000D02*
X56750000Y-57460000D01*
X60559000Y-60261000D02*
X57976000Y-60261000D01*
X60559000Y-58501000D02*
X56976000Y-58501000D01*
X60559000Y-59541000D02*
X57453000Y-59541000D01*
X60559000Y-59821000D02*
X57634000Y-59821000D01*
X66195000Y-59461000D02*
X63041000Y-59461000D01*
X66718000Y-58181000D02*
X63041000Y-58181000D01*
X66507000Y-58821000D02*
X63041000Y-58821000D01*
X66403000Y-59061000D02*
X63041000Y-59061000D01*
X64089000Y-61461000D02*
X59511000Y-61461000D01*
X66697000Y-58261000D02*
X63041000Y-58261000D01*
X60559000Y-60061000D02*
X57811000Y-60061000D01*
X66624000Y-58501000D02*
X63041000Y-58501000D01*
X60559000Y-59221000D02*
X57275000Y-59221000D01*
X60559000Y-58581000D02*
X57003000Y-58581000D01*
X62662000Y-61941000D02*
X60938000Y-61941000D01*
X65910000Y-59901000D02*
X63041000Y-59901000D01*
X66611000Y-58541000D02*
X63041000Y-58541000D01*
X60559000Y-59621000D02*
X57502000Y-59621000D01*
X60559000Y-59861000D02*
X57662000Y-59861000D01*
X63542000Y-61701000D02*
X60058000Y-61701000D01*
X65401000Y-60501000D02*
X63041000Y-60501000D01*
X66868000Y-57260000D02*
X56732000Y-57260000D01*
X60559000Y-58381000D02*
X56938000Y-58381000D01*
X66707000Y-58221000D02*
X63041000Y-58221000D01*
X60559000Y-59421000D02*
X57383000Y-59421000D01*
X60559000Y-58221000D02*
X56893000Y-58221000D01*
X60559000Y-59261000D02*
X57296000Y-59261000D01*
X66047000Y-59701000D02*
X63041000Y-59701000D01*
X66685000Y-58301000D02*
X63041000Y-58301000D01*
X66123000Y-59581000D02*
X63041000Y-59581000D01*
X66858000Y-57380000D02*
X56742000Y-57380000D01*
X65361000Y-60541000D02*
X63041000Y-60541000D01*
X60559000Y-58981000D02*
X57161000Y-58981000D01*
X66845000Y-57500000D02*
X56755000Y-57500000D01*
X60559000Y-58541000D02*
X56989000Y-58541000D01*
X60559000Y-60021000D02*
X57780000Y-60021000D01*
X66439000Y-58981000D02*
X63041000Y-58981000D01*
X60559000Y-58301000D02*
X56915000Y-58301000D01*
X66782000Y-57901000D02*
X56818000Y-57901000D01*
X60559000Y-59981000D02*
X57750000Y-59981000D01*
X60559000Y-58941000D02*
X57143000Y-58941000D01*
X66870000Y-57220000D02*
X56730000Y-57220000D01*
X66554000Y-58701000D02*
X63041000Y-58701000D01*
X63646000Y-61661000D02*
X59954000Y-61661000D01*
X66765000Y-57981000D02*
X56835000Y-57981000D01*
X64745000Y-61061000D02*
X58855000Y-61061000D01*
X60559000Y-58461000D02*
X56963000Y-58461000D01*
X63030000Y-61861000D02*
X60570000Y-61861000D01*
X60559000Y-58341000D02*
X56926000Y-58341000D01*
X66538000Y-58741000D02*
X63041000Y-58741000D01*
X60559000Y-58181000D02*
X56882000Y-58181000D01*
X64675000Y-51420354D02*
X64675000Y-52420354D01*
X60559000Y-60421000D02*
X58121000Y-60421000D01*
X66073000Y-59661000D02*
X63041000Y-59661000D01*
X63837000Y-61581000D02*
X59763000Y-61581000D01*
X65054000Y-60821000D02*
X58546000Y-60821000D01*
X60559000Y-59341000D02*
X57338000Y-59341000D01*
X65850000Y-59981000D02*
X63041000Y-59981000D01*
X60559000Y-60581000D02*
X58280000Y-60581000D01*
X64956000Y-60901000D02*
X58644000Y-60901000D01*
X65725000Y-60141000D02*
X63041000Y-60141000D01*
X60559000Y-58701000D02*
X57046000Y-58701000D01*
X64630000Y-61141000D02*
X58970000Y-61141000D01*
X60559000Y-59461000D02*
X57405000Y-59461000D01*
X60559000Y-58901000D02*
X57126000Y-58901000D01*
X60559000Y-58781000D02*
X57077000Y-58781000D01*
X66880000Y-56940000D02*
X56720000Y-56940000D01*
X60559000Y-59141000D02*
X57236000Y-59141000D01*
X66878000Y-57060000D02*
X56722000Y-57060000D01*
X63178000Y-61821000D02*
X60422000Y-61821000D01*
X60559000Y-59701000D02*
X57553000Y-59701000D01*
X64570000Y-61181000D02*
X59030000Y-61181000D01*
X60559000Y-58821000D02*
X57093000Y-58821000D01*
X66790000Y-57861000D02*
X56810000Y-57861000D01*
X65820000Y-60021000D02*
X63041000Y-60021000D01*
X66830000Y-57621000D02*
X56770000Y-57621000D01*
X66873000Y-57180000D02*
X56727000Y-57180000D01*
X66880000Y-56900000D02*
X56720000Y-56900000D01*
X60559000Y-60101000D02*
X57843000Y-60101000D01*
X63744000Y-61621000D02*
X59856000Y-61621000D01*
X65236000Y-60661000D02*
X58364000Y-60661000D01*
X65757000Y-60101000D02*
X63041000Y-60101000D01*
X66098000Y-59621000D02*
X63041000Y-59621000D01*
X64310000Y-61341000D02*
X59290000Y-61341000D01*
X65006000Y-60861000D02*
X58594000Y-60861000D01*
X65479000Y-60421000D02*
X63041000Y-60421000D01*
X66597000Y-58581000D02*
X63041000Y-58581000D01*
X66021000Y-59741000D02*
X63041000Y-59741000D01*
X65192000Y-60701000D02*
X58408000Y-60701000D01*
X66811000Y-57741000D02*
X56789000Y-57741000D01*
X65658000Y-60221000D02*
X63041000Y-60221000D01*
X60559000Y-59381000D02*
X57360000Y-59381000D01*
X65278000Y-60621000D02*
X63041000Y-60621000D01*
X60559000Y-59501000D02*
X57429000Y-59501000D01*
X62862000Y-61901000D02*
X60738000Y-61901000D01*
X60559000Y-60221000D02*
X57942000Y-60221000D01*
X64009000Y-61501000D02*
X59591000Y-61501000D01*
X66862000Y-57340000D02*
X56738000Y-57340000D01*
X60559000Y-58741000D02*
X57062000Y-58741000D01*
X60559000Y-59301000D02*
X57317000Y-59301000D01*
X66583000Y-58621000D02*
X63041000Y-58621000D01*
X66345000Y-59181000D02*
X63041000Y-59181000D01*
X66747000Y-58061000D02*
X56853000Y-58061000D01*
X66804000Y-57781000D02*
X56796000Y-57781000D01*
X65692000Y-60181000D02*
X63041000Y-60181000D01*
X60559000Y-60301000D02*
X58011000Y-60301000D01*
X66824000Y-57661000D02*
X56776000Y-57661000D01*
X60559000Y-60501000D02*
X58199000Y-60501000D01*
X65966000Y-59821000D02*
X63041000Y-59821000D01*
X60559000Y-59181000D02*
X57255000Y-59181000D01*
X64854000Y-60981000D02*
X58746000Y-60981000D01*
X60559000Y-60381000D02*
X58084000Y-60381000D01*
X66920000Y-56900000D02*
G75*
G03*
X66920000Y-56900000I-5120000J0D01*
G01*
%TO.C,Rfbt1*%
X121122500Y-37737258D02*
X121122500Y-37262742D01*
X120077500Y-37737258D02*
X120077500Y-37262742D01*
%TO.C,Rsense1*%
X70810000Y-38527064D02*
X70810000Y-34172936D01*
X67390000Y-38527064D02*
X67390000Y-34172936D01*
%TO.C,IC3*%
X40305000Y-57535000D02*
X40305000Y-60985000D01*
X45425000Y-57535000D02*
X45425000Y-55585000D01*
X45425000Y-57535000D02*
X45425000Y-59485000D01*
X40305000Y-57535000D02*
X40305000Y-55585000D01*
%TO.C,Cinbulk1*%
X63744000Y-40021000D02*
X59856000Y-40021000D01*
X60559000Y-37341000D02*
X57143000Y-37341000D01*
X66804000Y-36181000D02*
X56796000Y-36181000D01*
X65725000Y-38541000D02*
X63041000Y-38541000D01*
X60559000Y-37661000D02*
X57296000Y-37661000D01*
X64570000Y-39581000D02*
X59030000Y-39581000D01*
X66662000Y-36781000D02*
X63041000Y-36781000D01*
X60559000Y-37381000D02*
X57161000Y-37381000D01*
X60559000Y-38021000D02*
X57502000Y-38021000D01*
X66554000Y-37101000D02*
X63041000Y-37101000D01*
X66474000Y-37301000D02*
X63041000Y-37301000D01*
X66824000Y-36061000D02*
X56776000Y-36061000D01*
X66865000Y-35700000D02*
X56735000Y-35700000D01*
X64630000Y-39541000D02*
X58970000Y-39541000D01*
X65994000Y-38181000D02*
X63041000Y-38181000D01*
X60559000Y-37701000D02*
X57317000Y-37701000D01*
X64009000Y-39901000D02*
X59591000Y-39901000D01*
X60559000Y-37061000D02*
X57032000Y-37061000D01*
X66650000Y-36821000D02*
X63041000Y-36821000D01*
X60559000Y-36661000D02*
X56903000Y-36661000D01*
X66262000Y-37741000D02*
X63041000Y-37741000D01*
X60559000Y-38301000D02*
X57690000Y-38301000D01*
X60559000Y-37741000D02*
X57338000Y-37741000D01*
X60559000Y-37461000D02*
X57197000Y-37461000D01*
X60559000Y-37421000D02*
X57179000Y-37421000D01*
X66870000Y-35620000D02*
X56730000Y-35620000D01*
X60559000Y-38941000D02*
X58239000Y-38941000D01*
X60559000Y-38981000D02*
X58280000Y-38981000D01*
X65850000Y-38381000D02*
X63041000Y-38381000D01*
X65147000Y-39141000D02*
X58453000Y-39141000D01*
X60559000Y-37981000D02*
X57477000Y-37981000D01*
X65692000Y-38581000D02*
X63041000Y-38581000D01*
X66858000Y-35780000D02*
X56742000Y-35780000D01*
X65789000Y-38461000D02*
X63041000Y-38461000D01*
X66850000Y-35860000D02*
X56750000Y-35860000D01*
X60559000Y-38821000D02*
X58121000Y-38821000D01*
X66880000Y-35300000D02*
X56720000Y-35300000D01*
X66523000Y-37181000D02*
X63041000Y-37181000D01*
X65624000Y-38661000D02*
X63041000Y-38661000D01*
X63646000Y-40061000D02*
X59954000Y-40061000D01*
X66868000Y-35660000D02*
X56732000Y-35660000D01*
X66568000Y-37061000D02*
X63041000Y-37061000D01*
X65880000Y-38341000D02*
X63041000Y-38341000D01*
X60559000Y-37621000D02*
X57275000Y-37621000D01*
X64239000Y-39781000D02*
X59361000Y-39781000D01*
X66840000Y-35940000D02*
X56760000Y-35940000D01*
X60559000Y-38861000D02*
X58160000Y-38861000D01*
X60559000Y-38061000D02*
X57527000Y-38061000D01*
X60559000Y-38461000D02*
X57811000Y-38461000D01*
X66217000Y-37821000D02*
X63041000Y-37821000D01*
X60559000Y-37861000D02*
X57405000Y-37861000D01*
X63542000Y-40101000D02*
X60058000Y-40101000D01*
X60559000Y-38701000D02*
X58011000Y-38701000D01*
X66756000Y-36421000D02*
X56844000Y-36421000D01*
X60559000Y-37541000D02*
X57236000Y-37541000D01*
X60559000Y-39021000D02*
X58322000Y-39021000D01*
X66073000Y-38061000D02*
X63041000Y-38061000D01*
X63178000Y-40221000D02*
X60422000Y-40221000D01*
X66195000Y-37861000D02*
X63041000Y-37861000D01*
X60559000Y-36621000D02*
X56893000Y-36621000D01*
X60559000Y-38661000D02*
X57976000Y-38661000D01*
X66364000Y-37541000D02*
X63041000Y-37541000D01*
X65589000Y-38701000D02*
X63041000Y-38701000D01*
X66845000Y-35900000D02*
X56755000Y-35900000D01*
X60559000Y-36581000D02*
X56882000Y-36581000D01*
X66738000Y-36501000D02*
X56862000Y-36501000D01*
X66538000Y-37141000D02*
X63041000Y-37141000D01*
X65236000Y-39061000D02*
X58364000Y-39061000D01*
X65006000Y-39261000D02*
X58594000Y-39261000D01*
X63837000Y-39981000D02*
X59763000Y-39981000D01*
X66879000Y-35420000D02*
X56721000Y-35420000D01*
X65101000Y-39181000D02*
X58499000Y-39181000D01*
X64089000Y-39861000D02*
X59511000Y-39861000D01*
X66747000Y-36461000D02*
X56853000Y-36461000D01*
X66283000Y-37701000D02*
X63041000Y-37701000D01*
X66830000Y-36021000D02*
X56770000Y-36021000D01*
X60559000Y-37101000D02*
X57046000Y-37101000D01*
X65757000Y-38501000D02*
X63041000Y-38501000D01*
X60559000Y-38141000D02*
X57579000Y-38141000D01*
X66697000Y-36661000D02*
X63041000Y-36661000D01*
X65401000Y-38901000D02*
X63041000Y-38901000D01*
X60559000Y-37181000D02*
X57077000Y-37181000D01*
X60559000Y-36901000D02*
X56976000Y-36901000D01*
X66797000Y-36221000D02*
X56803000Y-36221000D01*
X64675000Y-29820354D02*
X64675000Y-30820354D01*
X62662000Y-40341000D02*
X60938000Y-40341000D01*
X66707000Y-36621000D02*
X63041000Y-36621000D01*
X66421000Y-37421000D02*
X63041000Y-37421000D01*
X60559000Y-38101000D02*
X57553000Y-38101000D01*
X65054000Y-39221000D02*
X58546000Y-39221000D01*
X66507000Y-37221000D02*
X63041000Y-37221000D01*
X60559000Y-38621000D02*
X57942000Y-38621000D01*
X66457000Y-37341000D02*
X63041000Y-37341000D01*
X66685000Y-36701000D02*
X63041000Y-36701000D01*
X64509000Y-39621000D02*
X59091000Y-39621000D01*
X64445000Y-39661000D02*
X59155000Y-39661000D01*
X64310000Y-39741000D02*
X59290000Y-39741000D01*
X66854000Y-35820000D02*
X56746000Y-35820000D01*
X66021000Y-38141000D02*
X63041000Y-38141000D01*
X66718000Y-36581000D02*
X63041000Y-36581000D01*
X66774000Y-36341000D02*
X56826000Y-36341000D01*
X66490000Y-37261000D02*
X63041000Y-37261000D01*
X60559000Y-38541000D02*
X57875000Y-38541000D01*
X60559000Y-37221000D02*
X57093000Y-37221000D01*
X63925000Y-39941000D02*
X59675000Y-39941000D01*
X66782000Y-36301000D02*
X56818000Y-36301000D01*
X60559000Y-37581000D02*
X57255000Y-37581000D01*
X62399000Y-40381000D02*
X61201000Y-40381000D01*
X66047000Y-38101000D02*
X63041000Y-38101000D01*
X64906000Y-39341000D02*
X58694000Y-39341000D01*
X63310000Y-40181000D02*
X60290000Y-40181000D01*
X66171000Y-37901000D02*
X63041000Y-37901000D01*
X66875000Y-35540000D02*
X56725000Y-35540000D01*
X66098000Y-38021000D02*
X63041000Y-38021000D01*
X65658000Y-38621000D02*
X63041000Y-38621000D01*
X60559000Y-37781000D02*
X57360000Y-37781000D01*
X66123000Y-37981000D02*
X63041000Y-37981000D01*
X60559000Y-38581000D02*
X57908000Y-38581000D01*
X65910000Y-38301000D02*
X63041000Y-38301000D01*
X60559000Y-37901000D02*
X57429000Y-37901000D01*
X66597000Y-36981000D02*
X63041000Y-36981000D01*
X63430000Y-40141000D02*
X60170000Y-40141000D01*
X60559000Y-37141000D02*
X57062000Y-37141000D01*
X64165000Y-39821000D02*
X59435000Y-39821000D01*
X66818000Y-36101000D02*
X56782000Y-36101000D01*
X60559000Y-38381000D02*
X57750000Y-38381000D01*
X60559000Y-38221000D02*
X57634000Y-38221000D01*
X65820000Y-38421000D02*
X63041000Y-38421000D01*
X66878000Y-35460000D02*
X56722000Y-35460000D01*
X60559000Y-38181000D02*
X57606000Y-38181000D01*
X60559000Y-36821000D02*
X56950000Y-36821000D01*
X66835000Y-35980000D02*
X56765000Y-35980000D01*
X66728000Y-36541000D02*
X56872000Y-36541000D01*
X65440000Y-38861000D02*
X63041000Y-38861000D01*
X64854000Y-39381000D02*
X58746000Y-39381000D01*
X60559000Y-37941000D02*
X57453000Y-37941000D01*
X66880000Y-35380000D02*
X56720000Y-35380000D01*
X66583000Y-37021000D02*
X63041000Y-37021000D01*
X65320000Y-38981000D02*
X63041000Y-38981000D01*
X66304000Y-37661000D02*
X63041000Y-37661000D01*
X60559000Y-36701000D02*
X56915000Y-36701000D01*
X66637000Y-36861000D02*
X63041000Y-36861000D01*
X66403000Y-37461000D02*
X63041000Y-37461000D01*
X65175000Y-30320354D02*
X64175000Y-30320354D01*
X60559000Y-36861000D02*
X56963000Y-36861000D01*
X60559000Y-37501000D02*
X57216000Y-37501000D01*
X65278000Y-39021000D02*
X63041000Y-39021000D01*
X65516000Y-38781000D02*
X63041000Y-38781000D01*
X66877000Y-35500000D02*
X56723000Y-35500000D01*
X66611000Y-36941000D02*
X63041000Y-36941000D01*
X62862000Y-40301000D02*
X60738000Y-40301000D01*
X65553000Y-38741000D02*
X63041000Y-38741000D01*
X60559000Y-38421000D02*
X57780000Y-38421000D01*
X64689000Y-39501000D02*
X58911000Y-39501000D01*
X60559000Y-38341000D02*
X57720000Y-38341000D01*
X64745000Y-39461000D02*
X58855000Y-39461000D01*
X60559000Y-38261000D02*
X57662000Y-38261000D01*
X60559000Y-37821000D02*
X57383000Y-37821000D01*
X63030000Y-40261000D02*
X60570000Y-40261000D01*
X66345000Y-37581000D02*
X63041000Y-37581000D01*
X60559000Y-37261000D02*
X57110000Y-37261000D01*
X60559000Y-38501000D02*
X57843000Y-38501000D01*
X66790000Y-36261000D02*
X56810000Y-36261000D01*
X64379000Y-39701000D02*
X59221000Y-39701000D01*
X66811000Y-36141000D02*
X56789000Y-36141000D01*
X60559000Y-36941000D02*
X56989000Y-36941000D01*
X66880000Y-35340000D02*
X56720000Y-35340000D01*
X60559000Y-36781000D02*
X56938000Y-36781000D01*
X66384000Y-37501000D02*
X63041000Y-37501000D01*
X64800000Y-39421000D02*
X58800000Y-39421000D01*
X66325000Y-37621000D02*
X63041000Y-37621000D01*
X66862000Y-35740000D02*
X56738000Y-35740000D01*
X65361000Y-38941000D02*
X63041000Y-38941000D01*
X65938000Y-38261000D02*
X63041000Y-38261000D01*
X60559000Y-38901000D02*
X58199000Y-38901000D01*
X60559000Y-38741000D02*
X58047000Y-38741000D01*
X66240000Y-37781000D02*
X63041000Y-37781000D01*
X65192000Y-39101000D02*
X58408000Y-39101000D01*
X60559000Y-37301000D02*
X57126000Y-37301000D01*
X66439000Y-37381000D02*
X63041000Y-37381000D01*
X60559000Y-36741000D02*
X56926000Y-36741000D01*
X60559000Y-36981000D02*
X57003000Y-36981000D01*
X66624000Y-36901000D02*
X63041000Y-36901000D01*
X64956000Y-39301000D02*
X58644000Y-39301000D01*
X60559000Y-38781000D02*
X58084000Y-38781000D01*
X65479000Y-38821000D02*
X63041000Y-38821000D01*
X66873000Y-35580000D02*
X56727000Y-35580000D01*
X66147000Y-37941000D02*
X63041000Y-37941000D01*
X60559000Y-37021000D02*
X57017000Y-37021000D01*
X66765000Y-36381000D02*
X56835000Y-36381000D01*
X66674000Y-36741000D02*
X63041000Y-36741000D01*
X65966000Y-38221000D02*
X63041000Y-38221000D01*
X66920000Y-35300000D02*
G75*
G03*
X66920000Y-35300000I-5120000J0D01*
G01*
%TO.C,Cvdd1*%
X115259420Y-51560000D02*
X115540580Y-51560000D01*
X115259420Y-50540000D02*
X115540580Y-50540000D01*
%TO.C,Rramp1*%
X102022500Y-33462742D02*
X102022500Y-33937258D01*
X100977500Y-33462742D02*
X100977500Y-33937258D01*
D15*
%TO.C,IC1*%
X103090000Y-56795000D02*
X103090000Y-56795000D01*
X103090000Y-56695000D02*
X103090000Y-56695000D01*
X102950000Y-58395000D02*
X102950000Y-59395000D01*
X104100000Y-60545000D02*
X103000000Y-60545000D01*
X104200000Y-57245000D02*
X102950000Y-57245000D01*
X103090000Y-56795000D02*
G75*
G02*
X103090000Y-56695000I0J50000D01*
G01*
X103090000Y-56695000D02*
G75*
G02*
X103090000Y-56795000I0J-50000D01*
G01*
D13*
%TO.C,Cf1*%
X117960000Y-45540580D02*
X117960000Y-45259420D01*
X116940000Y-45540580D02*
X116940000Y-45259420D01*
%TO.C,C16*%
X97311252Y-34810000D02*
X95888748Y-34810000D01*
X97311252Y-32990000D02*
X95888748Y-32990000D01*
%TO.C,Q3*%
X108570000Y-45700000D02*
X110070000Y-45700000D01*
X108570000Y-38800000D02*
X110070000Y-38800000D01*
X110070000Y-45700000D02*
X110070000Y-45430000D01*
X110070000Y-45430000D02*
X112900000Y-45430000D01*
X110070000Y-38800000D02*
X110070000Y-39070000D01*
X110070000Y-39070000D02*
X111170000Y-39070000D01*
%TO.C,Css1*%
X106810000Y-33559420D02*
X106810000Y-33840580D01*
X105790000Y-33559420D02*
X105790000Y-33840580D01*
%TO.C,J2*%
X131340000Y-50470000D02*
X129880000Y-50470000D01*
X131340000Y-41530000D02*
X131340000Y-50470000D01*
X125830000Y-41530000D02*
X127630000Y-41530000D01*
X125830000Y-50470000D02*
X127630000Y-50470000D01*
X131340000Y-41530000D02*
X129880000Y-41530000D01*
%TO.C,Ccomp2*%
X102790000Y-36759420D02*
X102790000Y-37040580D01*
X103810000Y-36759420D02*
X103810000Y-37040580D01*
%TO.C,R12*%
X92377500Y-33662742D02*
X92377500Y-34137258D01*
X93422500Y-33662742D02*
X93422500Y-34137258D01*
%TO.C,Qboost1*%
X89370000Y-37200000D02*
X90870000Y-37200000D01*
X90870000Y-37200000D02*
X90870000Y-36930000D01*
X90870000Y-36930000D02*
X93700000Y-36930000D01*
X89370000Y-30300000D02*
X90870000Y-30300000D01*
X90870000Y-30570000D02*
X91970000Y-30570000D01*
X90870000Y-30300000D02*
X90870000Y-30570000D01*
%TO.C,C15*%
X97311252Y-37110000D02*
X95888748Y-37110000D01*
X97311252Y-35290000D02*
X95888748Y-35290000D01*
%TO.C,Ccomp1*%
X106810000Y-36759420D02*
X106810000Y-37040580D01*
X105790000Y-36759420D02*
X105790000Y-37040580D01*
%TO.C,Ruv2*%
X38377500Y-56737258D02*
X38377500Y-56262742D01*
X39422500Y-56737258D02*
X39422500Y-56262742D01*
%TO.C,R5*%
X116622936Y-40090000D02*
X120977064Y-40090000D01*
X116622936Y-43510000D02*
X120977064Y-43510000D01*
%TO.C,R13*%
X123077500Y-37262742D02*
X123077500Y-37737258D01*
X124122500Y-37262742D02*
X124122500Y-37737258D01*
%TO.C,Cvcc1*%
X118110000Y-34059420D02*
X118110000Y-34340580D01*
X117090000Y-34059420D02*
X117090000Y-34340580D01*
%TO.C,D2*%
X41650000Y-34750000D02*
X41650000Y-30850000D01*
X41650000Y-34750000D02*
X43650000Y-34750000D01*
X43650000Y-34750000D02*
X43650000Y-30850000D01*
%TO.C,F1*%
X41010000Y-31872936D02*
X41010000Y-36227064D01*
X37600000Y-31895872D02*
X37600000Y-36250000D01*
%TO.C,C10*%
X118259420Y-31610000D02*
X118540580Y-31610000D01*
X118259420Y-30590000D02*
X118540580Y-30590000D01*
%TO.C,Cinbulk2*%
X56670000Y-45955354D02*
X66830000Y-45955354D01*
X62991000Y-43754354D02*
X66295000Y-43754354D01*
X60888000Y-40994354D02*
X62612000Y-40994354D01*
X57529000Y-43194354D02*
X60509000Y-43194354D01*
X62991000Y-43314354D02*
X66048000Y-43314354D01*
X62991000Y-44234354D02*
X66504000Y-44234354D01*
X57670000Y-42994354D02*
X60509000Y-42994354D01*
X62991000Y-43834354D02*
X66334000Y-43834354D01*
X58149000Y-42434354D02*
X60509000Y-42434354D01*
X62991000Y-43714354D02*
X66275000Y-43714354D01*
X56812000Y-44834354D02*
X66688000Y-44834354D01*
X62991000Y-42794354D02*
X65675000Y-42794354D01*
X62991000Y-44674354D02*
X66647000Y-44674354D01*
X58314000Y-42274354D02*
X65186000Y-42274354D01*
X58071000Y-42514354D02*
X60509000Y-42514354D01*
X58750000Y-41914354D02*
X64750000Y-41914354D01*
X58358000Y-42234354D02*
X65142000Y-42234354D01*
X57452000Y-43314354D02*
X60509000Y-43314354D01*
X62991000Y-44154354D02*
X66473000Y-44154354D01*
X62991000Y-43114354D02*
X65916000Y-43114354D01*
X57043000Y-44114354D02*
X60509000Y-44114354D01*
X62991000Y-44394354D02*
X66561000Y-44394354D01*
X62991000Y-43234354D02*
X65997000Y-43234354D01*
X58644000Y-41994354D02*
X64856000Y-41994354D01*
X56900000Y-44514354D02*
X60509000Y-44514354D01*
X62991000Y-44274354D02*
X66518000Y-44274354D01*
X62991000Y-43394354D02*
X66097000Y-43394354D01*
X57129000Y-43914354D02*
X60509000Y-43914354D01*
X56739000Y-45194354D02*
X66761000Y-45194354D01*
X58920000Y-41794354D02*
X64580000Y-41794354D01*
X62991000Y-42314354D02*
X65228000Y-42314354D01*
X59625000Y-41394354D02*
X63875000Y-41394354D01*
X62991000Y-42674354D02*
X65574000Y-42674354D01*
X58861000Y-41834354D02*
X64639000Y-41834354D01*
X57012000Y-44194354D02*
X60509000Y-44194354D01*
X56785000Y-44954354D02*
X66715000Y-44954354D01*
X57093000Y-43994354D02*
X60509000Y-43994354D01*
X56996000Y-44234354D02*
X60509000Y-44234354D01*
X57556000Y-43154354D02*
X60509000Y-43154354D01*
X60008000Y-41234354D02*
X63492000Y-41234354D01*
X62991000Y-43474354D02*
X66145000Y-43474354D01*
X62991000Y-44714354D02*
X66657000Y-44714354D01*
X56794000Y-44914354D02*
X66706000Y-44914354D01*
X62991000Y-42434354D02*
X65351000Y-42434354D01*
X56726000Y-45274354D02*
X66774000Y-45274354D01*
X57640000Y-43034354D02*
X60509000Y-43034354D01*
X57825000Y-42794354D02*
X60509000Y-42794354D01*
X62991000Y-44074354D02*
X66440000Y-44074354D01*
X62991000Y-43594354D02*
X66212000Y-43594354D01*
X58272000Y-42314354D02*
X60509000Y-42314354D01*
X62991000Y-44194354D02*
X66488000Y-44194354D01*
X56677000Y-45755354D02*
X66823000Y-45755354D01*
X57205000Y-43754354D02*
X60509000Y-43754354D01*
X56673000Y-45835354D02*
X66827000Y-45835354D01*
X56753000Y-45114354D02*
X66747000Y-45114354D01*
X56732000Y-45234354D02*
X66768000Y-45234354D01*
X56888000Y-44554354D02*
X60509000Y-44554354D01*
X62991000Y-43074354D02*
X65888000Y-43074354D01*
X62991000Y-43914354D02*
X66371000Y-43914354D01*
X57379000Y-43434354D02*
X60509000Y-43434354D01*
X57700000Y-42954354D02*
X60509000Y-42954354D01*
X62991000Y-43874354D02*
X66353000Y-43874354D01*
X56865000Y-44634354D02*
X60509000Y-44634354D01*
X62991000Y-43954354D02*
X66389000Y-43954354D01*
X62991000Y-42474354D02*
X65390000Y-42474354D01*
X58189000Y-42394354D02*
X60509000Y-42394354D01*
X57892000Y-42714354D02*
X60509000Y-42714354D01*
X56671000Y-45915354D02*
X66829000Y-45915354D01*
X59806000Y-41314354D02*
X63694000Y-41314354D01*
X57060000Y-44074354D02*
X60509000Y-44074354D01*
X56670000Y-46035354D02*
X66830000Y-46035354D01*
X56913000Y-44474354D02*
X60509000Y-44474354D01*
X56876000Y-44594354D02*
X60509000Y-44594354D01*
X57355000Y-43474354D02*
X60509000Y-43474354D01*
X57793000Y-42834354D02*
X60509000Y-42834354D01*
X56822000Y-44794354D02*
X66678000Y-44794354D01*
X59311000Y-41554354D02*
X64189000Y-41554354D01*
X58544000Y-42074354D02*
X64956000Y-42074354D01*
X56705000Y-45435354D02*
X66795000Y-45435354D01*
X60120000Y-41194354D02*
X63380000Y-41194354D01*
X57584000Y-43114354D02*
X60509000Y-43114354D01*
X62991000Y-42994354D02*
X65830000Y-42994354D01*
X62991000Y-43274354D02*
X66023000Y-43274354D01*
X59541000Y-41434354D02*
X63959000Y-41434354D01*
X62991000Y-44554354D02*
X66612000Y-44554354D01*
X56776000Y-44994354D02*
X66724000Y-44994354D01*
X58403000Y-42194354D02*
X65097000Y-42194354D01*
X62991000Y-44034354D02*
X66424000Y-44034354D01*
X58805000Y-41874354D02*
X64695000Y-41874354D01*
X62991000Y-44594354D02*
X66624000Y-44594354D01*
X57288000Y-43594354D02*
X60509000Y-43594354D01*
X58496000Y-42114354D02*
X65004000Y-42114354D01*
X58230000Y-42354354D02*
X60509000Y-42354354D01*
X56688000Y-45595354D02*
X66812000Y-45595354D01*
X58110000Y-42474354D02*
X60509000Y-42474354D01*
X56672000Y-45875354D02*
X66828000Y-45875354D01*
X62991000Y-44114354D02*
X66457000Y-44114354D01*
X62991000Y-43554354D02*
X66190000Y-43554354D01*
X62991000Y-44634354D02*
X66635000Y-44634354D01*
X56853000Y-44674354D02*
X60509000Y-44674354D01*
X57186000Y-43794354D02*
X60509000Y-43794354D01*
X62991000Y-42394354D02*
X65311000Y-42394354D01*
X57246000Y-43674354D02*
X60509000Y-43674354D01*
X59713000Y-41354354D02*
X63787000Y-41354354D01*
X62991000Y-43034354D02*
X65860000Y-43034354D01*
X62991000Y-44514354D02*
X66600000Y-44514354D01*
X59461000Y-41474354D02*
X64039000Y-41474354D01*
X56710000Y-45395354D02*
X66790000Y-45395354D01*
X56803000Y-44874354D02*
X66697000Y-44874354D01*
X56700000Y-45475354D02*
X66800000Y-45475354D01*
X62991000Y-42594354D02*
X65503000Y-42594354D01*
X58875000Y-51515000D02*
X58875000Y-50515000D01*
X60688000Y-41034354D02*
X62812000Y-41034354D01*
X60240000Y-41154354D02*
X63260000Y-41154354D01*
X62991000Y-42634354D02*
X65539000Y-42634354D01*
X57225000Y-43714354D02*
X60509000Y-43714354D01*
X59240000Y-41594354D02*
X64260000Y-41594354D01*
X57761000Y-42874354D02*
X60509000Y-42874354D01*
X57427000Y-43354354D02*
X60509000Y-43354354D01*
X59385000Y-41514354D02*
X64115000Y-41514354D01*
X62991000Y-42914354D02*
X65770000Y-42914354D01*
X58980000Y-41754354D02*
X64520000Y-41754354D01*
X62991000Y-44434354D02*
X66574000Y-44434354D01*
X56967000Y-44314354D02*
X60509000Y-44314354D01*
X58034000Y-42554354D02*
X60509000Y-42554354D01*
X57961000Y-42634354D02*
X60509000Y-42634354D01*
X56939000Y-44394354D02*
X60509000Y-44394354D01*
X57111000Y-43954354D02*
X60509000Y-43954354D01*
X62991000Y-43634354D02*
X66233000Y-43634354D01*
X62991000Y-44754354D02*
X66668000Y-44754354D01*
X62991000Y-42954354D02*
X65800000Y-42954354D01*
X57403000Y-43394354D02*
X60509000Y-43394354D01*
X62991000Y-44474354D02*
X66587000Y-44474354D01*
X56982000Y-44274354D02*
X60509000Y-44274354D01*
X62991000Y-43354354D02*
X66073000Y-43354354D01*
X59904000Y-41274354D02*
X63596000Y-41274354D01*
X62991000Y-42554354D02*
X65466000Y-42554354D01*
X56760000Y-45074354D02*
X66740000Y-45074354D01*
X62991000Y-42874354D02*
X65739000Y-42874354D01*
X62991000Y-42514354D02*
X65429000Y-42514354D01*
X57166000Y-43834354D02*
X60509000Y-43834354D01*
X60372000Y-41114354D02*
X63128000Y-41114354D01*
X62991000Y-43434354D02*
X66121000Y-43434354D01*
X56680000Y-45715354D02*
X66820000Y-45715354D01*
X61151000Y-40954354D02*
X62349000Y-40954354D01*
X60520000Y-41074354D02*
X62980000Y-41074354D01*
X57503000Y-43234354D02*
X60509000Y-43234354D01*
X62991000Y-42714354D02*
X65608000Y-42714354D01*
X56768000Y-45034354D02*
X66732000Y-45034354D01*
X62991000Y-44314354D02*
X66533000Y-44314354D01*
X57267000Y-43634354D02*
X60509000Y-43634354D01*
X57612000Y-43074354D02*
X60509000Y-43074354D01*
X57858000Y-42754354D02*
X60509000Y-42754354D01*
X62991000Y-44354354D02*
X66547000Y-44354354D01*
X57310000Y-43554354D02*
X60509000Y-43554354D01*
X59105000Y-41674354D02*
X64395000Y-41674354D01*
X62991000Y-42834354D02*
X65707000Y-42834354D01*
X56720000Y-45314354D02*
X66780000Y-45314354D01*
X57477000Y-43274354D02*
X60509000Y-43274354D01*
X62991000Y-43154354D02*
X65944000Y-43154354D01*
X62991000Y-43794354D02*
X66314000Y-43794354D01*
X56843000Y-44714354D02*
X60509000Y-44714354D01*
X62991000Y-43674354D02*
X66254000Y-43674354D01*
X59171000Y-41634354D02*
X64329000Y-41634354D01*
X58696000Y-41954354D02*
X64804000Y-41954354D01*
X56670000Y-45995354D02*
X66830000Y-45995354D01*
X58449000Y-42154354D02*
X65051000Y-42154354D01*
X56746000Y-45154354D02*
X66754000Y-45154354D01*
X62991000Y-43994354D02*
X66407000Y-43994354D01*
X62991000Y-43194354D02*
X65971000Y-43194354D01*
X57147000Y-43874354D02*
X60509000Y-43874354D01*
X62991000Y-42354354D02*
X65270000Y-42354354D01*
X57027000Y-44154354D02*
X60509000Y-44154354D01*
X56715000Y-45355354D02*
X66785000Y-45355354D01*
X56832000Y-44754354D02*
X60509000Y-44754354D01*
X57730000Y-42914354D02*
X60509000Y-42914354D01*
X59041000Y-41714354D02*
X64459000Y-41714354D01*
X56696000Y-45515354D02*
X66804000Y-45515354D01*
X57333000Y-43514354D02*
X60509000Y-43514354D01*
X58375000Y-51015000D02*
X59375000Y-51015000D01*
X62991000Y-43514354D02*
X66167000Y-43514354D01*
X56685000Y-45635354D02*
X66815000Y-45635354D01*
X57926000Y-42674354D02*
X60509000Y-42674354D01*
X56682000Y-45675354D02*
X66818000Y-45675354D01*
X58594000Y-42034354D02*
X64906000Y-42034354D01*
X57997000Y-42594354D02*
X60509000Y-42594354D01*
X56692000Y-45555354D02*
X66808000Y-45555354D01*
X56675000Y-45795354D02*
X66825000Y-45795354D01*
X57076000Y-44034354D02*
X60509000Y-44034354D01*
X56953000Y-44354354D02*
X60509000Y-44354354D01*
X56926000Y-44434354D02*
X60509000Y-44434354D01*
X62991000Y-42754354D02*
X65642000Y-42754354D01*
X66870000Y-46035354D02*
G75*
G03*
X66870000Y-46035354I-5120000J0D01*
G01*
%TO.C,Rfbl1*%
X118577500Y-34437258D02*
X118577500Y-33962742D01*
X119622500Y-34437258D02*
X119622500Y-33962742D01*
%TO.C,Dbuck1*%
X74280000Y-30300000D02*
X74280000Y-30570000D01*
X75780000Y-37200000D02*
X74280000Y-37200000D01*
X74280000Y-37200000D02*
X74280000Y-36930000D01*
X74280000Y-36930000D02*
X73180000Y-36930000D01*
X75780000Y-30300000D02*
X74280000Y-30300000D01*
X74280000Y-30570000D02*
X71450000Y-30570000D01*
%TO.C,Cdvdd1*%
X121310000Y-52965580D02*
X121310000Y-52684420D01*
X120290000Y-52965580D02*
X120290000Y-52684420D01*
%TO.C,R11*%
X81722500Y-57662742D02*
X81722500Y-58137258D01*
X80677500Y-57662742D02*
X80677500Y-58137258D01*
%TO.C,Rf1*%
X116222500Y-45162742D02*
X116222500Y-45637258D01*
X115177500Y-45162742D02*
X115177500Y-45637258D01*
%TO.C,R10*%
X102322500Y-37137258D02*
X102322500Y-36662742D01*
X101277500Y-37137258D02*
X101277500Y-36662742D01*
%TO.C,C17*%
X97311252Y-30690000D02*
X95888748Y-30690000D01*
X97311252Y-32510000D02*
X95888748Y-32510000D01*
%TO.C,Cramp1*%
X102490000Y-33559420D02*
X102490000Y-33840580D01*
X103510000Y-33559420D02*
X103510000Y-33840580D01*
%TD*%
%LPC*%
D16*
%TO.C,Crx2*%
X117225000Y-60200000D03*
X118775000Y-60200000D03*
%TD*%
D17*
%TO.C,H1*%
X34500000Y-33750000D03*
%TD*%
D18*
%TO.C,Cvpwr1*%
X112600000Y-54225000D03*
X112600000Y-55775000D03*
%TD*%
D19*
%TO.C,Dboost1*%
X90600000Y-57750000D03*
D20*
X84300000Y-55470000D03*
X84300000Y-60030000D03*
%TD*%
D21*
%TO.C,U1*%
X109030000Y-31075000D03*
X109030000Y-31725000D03*
X109030000Y-32375000D03*
X109030000Y-33025000D03*
X109030000Y-33675000D03*
X109030000Y-34325000D03*
X109030000Y-34975000D03*
X109030000Y-35625000D03*
X109030000Y-36275000D03*
X109030000Y-36925000D03*
X114970000Y-36925000D03*
X114970000Y-36275000D03*
X114970000Y-35625000D03*
X114970000Y-34975000D03*
X114970000Y-34325000D03*
X114970000Y-33675000D03*
X114970000Y-33025000D03*
X114970000Y-32375000D03*
X114970000Y-31725000D03*
X114970000Y-31075000D03*
D22*
X112000000Y-34000000D03*
%TD*%
D23*
%TO.C,Rt1*%
X104600000Y-32875000D03*
X104600000Y-34525000D03*
%TD*%
D20*
%TO.C,Q4*%
X46450000Y-45720000D03*
D19*
X52750000Y-48000000D03*
D20*
X46450000Y-50280000D03*
%TD*%
%TO.C,Q2*%
X46450000Y-38620000D03*
D19*
X52750000Y-40900000D03*
D20*
X46450000Y-43180000D03*
%TD*%
D23*
%TO.C,Rsel1*%
X121200000Y-55975000D03*
X121200000Y-57625000D03*
%TD*%
D24*
%TO.C,Ruv1*%
X38950000Y-60575000D03*
X38950000Y-58925000D03*
%TD*%
D25*
%TO.C,JP1*%
X110100000Y-58900000D03*
D26*
X110100000Y-60200000D03*
%TD*%
D27*
%TO.C,C4*%
X67825000Y-42600000D03*
X70775000Y-42600000D03*
%TD*%
D28*
%TO.C,D5*%
X123850000Y-53700000D03*
X128150000Y-53700000D03*
%TD*%
D27*
%TO.C,C6*%
X67825000Y-47600000D03*
X70775000Y-47600000D03*
%TD*%
D20*
%TO.C,Q1*%
X111850000Y-51880000D03*
D19*
X105550000Y-49600000D03*
D20*
X111850000Y-47320000D03*
%TD*%
D27*
%TO.C,C5*%
X67825000Y-45100000D03*
X70775000Y-45100000D03*
%TD*%
D23*
%TO.C,Rcomp1*%
X104800000Y-36075000D03*
X104800000Y-37725000D03*
%TD*%
D29*
%TO.C,IC2*%
X115500000Y-57262500D03*
X116000000Y-57262500D03*
X116500000Y-57262500D03*
X117000000Y-57262500D03*
X117500000Y-57262500D03*
X118000000Y-57262500D03*
D30*
X118712500Y-56550000D03*
X118712500Y-56050000D03*
X118712500Y-55550000D03*
X118712500Y-55050000D03*
X118712500Y-54550000D03*
X118712500Y-54050000D03*
D29*
X118000000Y-53337500D03*
X117500000Y-53337500D03*
X117000000Y-53337500D03*
X116500000Y-53337500D03*
X116000000Y-53337500D03*
X115500000Y-53337500D03*
D30*
X114787500Y-54050000D03*
X114787500Y-54550000D03*
X114787500Y-55050000D03*
X114787500Y-55550000D03*
X114787500Y-56050000D03*
X114787500Y-56550000D03*
D31*
X116750000Y-55300000D03*
%TD*%
D32*
%TO.C,Cvtx1*%
X113650000Y-58600000D03*
X112100000Y-58600000D03*
%TD*%
D33*
%TO.C,C9*%
X69200000Y-58075000D03*
X69200000Y-55125000D03*
%TD*%
D34*
%TO.C,Cout2*%
X97700000Y-48400000D03*
D35*
X97700000Y-51900000D03*
%TD*%
D36*
%TO.C,R6*%
X121350000Y-45550000D03*
X119700000Y-45550000D03*
%TD*%
D37*
%TO.C,C2*%
X107100000Y-55625000D03*
X107100000Y-54075000D03*
%TD*%
D32*
%TO.C,Cinx1*%
X102975000Y-31100000D03*
X101425000Y-31100000D03*
%TD*%
D38*
%TO.C,R1*%
X104362500Y-54900000D03*
X101437500Y-54900000D03*
%TD*%
D27*
%TO.C,C8*%
X67825000Y-52600000D03*
X70775000Y-52600000D03*
%TD*%
D20*
%TO.C,Qbuck1*%
X80900000Y-60030000D03*
D19*
X74600000Y-57750000D03*
D20*
X80900000Y-55470000D03*
%TD*%
D39*
%TO.C,Q5*%
X109000000Y-56637500D03*
X110900000Y-56637500D03*
X109950000Y-54762500D03*
%TD*%
D40*
%TO.C,D3*%
X42200000Y-36400000D03*
X45500000Y-36400000D03*
%TD*%
D41*
%TO.C,D1*%
X54800000Y-33500000D03*
X48000000Y-33500000D03*
%TD*%
D32*
%TO.C,Crx1*%
X115575000Y-60200000D03*
X114025000Y-60200000D03*
%TD*%
D42*
%TO.C,C1*%
X101000000Y-57525000D03*
X101000000Y-60475000D03*
%TD*%
D24*
%TO.C,R4*%
X45200000Y-34175000D03*
X45200000Y-32525000D03*
%TD*%
%TO.C,Rfbl2*%
X120600000Y-35025000D03*
X120600000Y-33375000D03*
%TD*%
D16*
%TO.C,Cvaux1*%
X117775000Y-51050000D03*
X119325000Y-51050000D03*
%TD*%
D27*
%TO.C,C12*%
X95125000Y-60150000D03*
X98075000Y-60150000D03*
%TD*%
%TO.C,C14*%
X95125000Y-55500000D03*
X98075000Y-55500000D03*
%TD*%
D37*
%TO.C,Cslu1*%
X119100000Y-38275000D03*
X119100000Y-36725000D03*
%TD*%
D42*
%TO.C,C3*%
X121250000Y-47475000D03*
X121250000Y-50425000D03*
%TD*%
D43*
%TO.C,Rslew1*%
X114600000Y-49400000D03*
X116250000Y-49400000D03*
%TD*%
D18*
%TO.C,Csll1*%
X122100000Y-36725000D03*
X122100000Y-38275000D03*
%TD*%
D23*
%TO.C,R3*%
X114100000Y-43475000D03*
X114100000Y-45125000D03*
%TD*%
D34*
%TO.C,Cout1*%
X97700000Y-43302651D03*
D35*
X97700000Y-39802651D03*
%TD*%
D44*
%TO.C,RV1*%
X48650000Y-57350000D03*
X51190000Y-59890000D03*
X53730000Y-57350000D03*
%TD*%
D43*
%TO.C,R7*%
X121295000Y-59320000D03*
X122945000Y-59320000D03*
%TD*%
D24*
%TO.C,R14*%
X73400000Y-34575000D03*
X73400000Y-32925000D03*
%TD*%
D45*
%TO.C,J1*%
X38125000Y-48540000D03*
D46*
X35300000Y-52750000D03*
D47*
X41300000Y-49600000D03*
D45*
X38125000Y-43460000D03*
D48*
X41300000Y-42400000D03*
D46*
X35300000Y-39250000D03*
%TD*%
D23*
%TO.C,R8*%
X107800000Y-58500000D03*
X107800000Y-60150000D03*
%TD*%
D49*
%TO.C,D4*%
X127700000Y-37312500D03*
X127700000Y-39187500D03*
%TD*%
D27*
%TO.C,C13*%
X95125000Y-57850000D03*
X98075000Y-57850000D03*
%TD*%
D17*
%TO.C,H2*%
X34500000Y-58250000D03*
%TD*%
D36*
%TO.C,R9*%
X125225000Y-39800000D03*
X123575000Y-39800000D03*
%TD*%
D18*
%TO.C,C11*%
X71900000Y-32975000D03*
X71900000Y-34525000D03*
%TD*%
D27*
%TO.C,C7*%
X67825000Y-50100000D03*
X70775000Y-50100000D03*
%TD*%
D24*
%TO.C,Rfbl3*%
X122100000Y-35025000D03*
X122100000Y-33375000D03*
%TD*%
D50*
%TO.C,L1*%
X90775000Y-45900000D03*
X74425000Y-45900000D03*
%TD*%
D43*
%TO.C,R2*%
X111275000Y-49750000D03*
X112925000Y-49750000D03*
%TD*%
D16*
%TO.C,Cslew1*%
X115675000Y-47775000D03*
X117225000Y-47775000D03*
%TD*%
D51*
%TO.C,Cinbulk3*%
X61800000Y-54400000D03*
D52*
X61800000Y-59400000D03*
%TD*%
D24*
%TO.C,Rfbt1*%
X120600000Y-38325000D03*
X120600000Y-36675000D03*
%TD*%
D53*
%TO.C,Rsense1*%
X69100000Y-39312500D03*
X69100000Y-33387500D03*
%TD*%
D17*
%TO.C,H3*%
X126000000Y-33450000D03*
%TD*%
D54*
%TO.C,IC3*%
X40960000Y-60010000D03*
X42230000Y-60010000D03*
X43500000Y-60010000D03*
X44770000Y-60010000D03*
X44770000Y-55060000D03*
X43500000Y-55060000D03*
X42230000Y-55060000D03*
X40960000Y-55060000D03*
%TD*%
D17*
%TO.C,H4*%
X126000000Y-58250000D03*
%TD*%
D51*
%TO.C,Cinbulk1*%
X61800000Y-32800000D03*
D52*
X61800000Y-37800000D03*
%TD*%
D16*
%TO.C,Cvdd1*%
X114625000Y-51050000D03*
X116175000Y-51050000D03*
%TD*%
D23*
%TO.C,Rramp1*%
X101500000Y-32875000D03*
X101500000Y-34525000D03*
%TD*%
D55*
%TO.C,IC1*%
X103020000Y-57920000D03*
X103020000Y-59870000D03*
D56*
X106110000Y-59870000D03*
X106110000Y-59220000D03*
X106110000Y-58570000D03*
X106110000Y-57920000D03*
D57*
X105010000Y-58895000D03*
%TD*%
D37*
%TO.C,Cf1*%
X117450000Y-46175000D03*
X117450000Y-44625000D03*
%TD*%
D58*
%TO.C,C16*%
X98075000Y-33900000D03*
X95125000Y-33900000D03*
%TD*%
D20*
%TO.C,Q3*%
X111800000Y-44530000D03*
D19*
X105500000Y-42250000D03*
D20*
X111800000Y-39970000D03*
%TD*%
D18*
%TO.C,Css1*%
X106300000Y-32925000D03*
X106300000Y-34475000D03*
%TD*%
D59*
%TO.C,J2*%
X125050000Y-43110000D03*
X125050000Y-48890000D03*
D60*
X123990000Y-49200000D03*
X123990000Y-48400000D03*
D61*
X123990000Y-47250000D03*
X123990000Y-46250000D03*
X123990000Y-45750000D03*
X123990000Y-44750000D03*
D60*
X123990000Y-43600000D03*
X123990000Y-42800000D03*
X123990000Y-42800000D03*
X123990000Y-43600000D03*
D61*
X123990000Y-44250000D03*
X123990000Y-45250000D03*
X123990000Y-46750000D03*
X123990000Y-47750000D03*
D60*
X123990000Y-48400000D03*
X123990000Y-49200000D03*
D62*
X124570000Y-50320000D03*
X124570000Y-41680000D03*
D63*
X128740000Y-41680000D03*
X128740000Y-50320000D03*
%TD*%
D18*
%TO.C,Ccomp2*%
X103300000Y-36125000D03*
X103300000Y-37675000D03*
%TD*%
D23*
%TO.C,R12*%
X92900000Y-33075000D03*
X92900000Y-34725000D03*
%TD*%
D20*
%TO.C,Qboost1*%
X92600000Y-36030000D03*
D19*
X86300000Y-33750000D03*
D20*
X92600000Y-31470000D03*
%TD*%
D58*
%TO.C,C15*%
X98075000Y-36200000D03*
X95125000Y-36200000D03*
%TD*%
D18*
%TO.C,Ccomp1*%
X106300000Y-36125000D03*
X106300000Y-37675000D03*
%TD*%
D24*
%TO.C,Ruv2*%
X38900000Y-57325000D03*
X38900000Y-55675000D03*
%TD*%
D64*
%TO.C,R5*%
X115837500Y-41800000D03*
X121762500Y-41800000D03*
%TD*%
D23*
%TO.C,R13*%
X123600000Y-36675000D03*
X123600000Y-38325000D03*
%TD*%
D18*
%TO.C,Cvcc1*%
X117600000Y-33425000D03*
X117600000Y-34975000D03*
%TD*%
D65*
%TO.C,D2*%
X42650000Y-34150000D03*
X42650000Y-30850000D03*
%TD*%
D66*
%TO.C,F1*%
X39300000Y-31487500D03*
X39300000Y-36550000D03*
%TD*%
D16*
%TO.C,C10*%
X117625000Y-31100000D03*
X119175000Y-31100000D03*
%TD*%
D51*
%TO.C,Cinbulk2*%
X61750000Y-48535354D03*
D52*
X61750000Y-43535354D03*
%TD*%
D24*
%TO.C,Rfbl1*%
X119100000Y-35025000D03*
X119100000Y-33375000D03*
%TD*%
D19*
%TO.C,Dbuck1*%
X78850000Y-33750000D03*
D20*
X72550000Y-31470000D03*
X72550000Y-36030000D03*
%TD*%
D37*
%TO.C,Cdvdd1*%
X120800000Y-53600000D03*
X120800000Y-52050000D03*
%TD*%
D23*
%TO.C,R11*%
X81200000Y-57075000D03*
X81200000Y-58725000D03*
%TD*%
%TO.C,Rf1*%
X115700000Y-44575000D03*
X115700000Y-46225000D03*
%TD*%
D24*
%TO.C,R10*%
X101800000Y-37725000D03*
X101800000Y-36075000D03*
%TD*%
D58*
%TO.C,C17*%
X98075000Y-31600000D03*
X95125000Y-31600000D03*
%TD*%
D18*
%TO.C,Cramp1*%
X103000000Y-32925000D03*
X103000000Y-34475000D03*
%TD*%
M02*
