%TF.GenerationSoftware,KiCad,Pcbnew,(5.99.0-10682-g4bb4606811)*%
%TF.CreationDate,2021-08-27T09:32:21+01:00*%
%TF.ProjectId,dc-to-pd-2,64632d74-6f2d-4706-942d-322e6b696361,rev?*%
%TF.SameCoordinates,Original*%
%TF.FileFunction,Soldermask,Top*%
%TF.FilePolarity,Negative*%
%FSLAX46Y46*%
G04 Gerber Fmt 4.6, Leading zero omitted, Abs format (unit mm)*
G04 Created by KiCad (PCBNEW (5.99.0-10682-g4bb4606811)) date 2021-08-27 09:32:21*
%MOMM*%
%LPD*%
G01*
G04 APERTURE LIST*
G04 Aperture macros list*
%AMRoundRect*
0 Rectangle with rounded corners*
0 $1 Rounding radius*
0 $2 $3 $4 $5 $6 $7 $8 $9 X,Y pos of 4 corners*
0 Add a 4 corners polygon primitive as box body*
4,1,4,$2,$3,$4,$5,$6,$7,$8,$9,$2,$3,0*
0 Add four circle primitives for the rounded corners*
1,1,$1+$1,$2,$3*
1,1,$1+$1,$4,$5*
1,1,$1+$1,$6,$7*
1,1,$1+$1,$8,$9*
0 Add four rect primitives between the rounded corners*
20,1,$1+$1,$2,$3,$4,$5,0*
20,1,$1+$1,$4,$5,$6,$7,0*
20,1,$1+$1,$6,$7,$8,$9,0*
20,1,$1+$1,$8,$9,$2,$3,0*%
%AMFreePoly0*
4,1,23,0.500000,-0.750000,0.000000,-0.750000,0.000000,-0.747038,-0.093691,-0.741144,-0.212890,-0.702414,-0.318712,-0.635257,-0.404508,-0.543893,-0.464888,-0.434062,-0.496057,-0.312667,-0.496057,-0.250000,-0.500000,-0.250000,-0.500000,0.250000,-0.496057,0.250000,-0.496057,0.312667,-0.464888,0.434062,-0.404508,0.543893,-0.318712,0.635257,-0.212890,0.702414,-0.093691,0.741144,0.000000,0.747038,
0.000000,0.750000,0.500000,0.750000,0.500000,-0.750000,0.500000,-0.750000,$1*%
%AMFreePoly1*
4,1,21,0.000000,0.747038,0.031395,0.749013,0.154508,0.725528,0.267913,0.672164,0.364484,0.592274,0.438153,0.490877,0.484292,0.374345,0.500000,0.250000,0.500000,-0.250000,0.484292,-0.374345,0.438153,-0.490877,0.364484,-0.592274,0.267913,-0.672164,0.154508,-0.725528,0.031395,-0.749013,0.000000,-0.747038,0.000000,-0.750000,-0.500000,-0.750000,-0.500000,0.750000,0.000000,0.750000,
0.000000,0.747038,0.000000,0.747038,$1*%
%AMFreePoly2*
4,1,52,2.135355,7.464855,2.150000,7.429500,2.150000,3.175000,2.148124,3.170471,2.148343,3.170047,2.149457,3.156966,2.153880,3.144602,1.999473,0.008374,2.000000,0.000000,1.984229,-0.250666,1.937166,-0.497380,1.859553,-0.736249,1.752613,-0.963507,1.618034,-1.175571,1.457937,-1.369094,1.274848,-1.541026,1.071654,-1.688656,0.851559,-1.809654,0.618034,-1.902113,0.374763,-1.964575,
0.125581,-1.996053,-0.125581,-1.996053,-0.374763,-1.964575,-0.618034,-1.902113,-0.851559,-1.809654,-1.071654,-1.688656,-1.274848,-1.541026,-1.457937,-1.369094,-1.618034,-1.175571,-1.752613,-0.963507,-1.859553,-0.736249,-1.937166,-0.497380,-1.984229,-0.250666,-2.000000,0.000000,-1.984229,0.250666,-1.937166,0.497380,-1.859553,0.736249,-1.776167,0.913453,-1.775454,0.916957,-1.772357,0.921549,
-1.752613,0.963507,-1.618034,1.175571,-1.526061,1.286747,0.066046,3.647457,0.079502,3.656364,0.091689,3.666934,0.167860,3.692324,0.167860,7.429500,0.182505,7.464855,0.217860,7.479500,2.100000,7.479500,2.135355,7.464855,2.135355,7.464855,$1*%
%AMFreePoly3*
4,1,49,-0.199145,7.464855,-0.184500,7.429500,-0.184500,3.805567,-0.165806,3.789025,-0.162929,3.783124,-0.157457,3.779494,1.488463,1.333474,1.488806,1.331781,1.618034,1.175571,1.752613,0.963507,1.859553,0.736249,1.937166,0.497380,1.984229,0.250666,2.000000,0.000000,1.984229,-0.250666,1.937166,-0.497380,1.859553,-0.736249,1.752613,-0.963507,1.618034,-1.175571,1.457937,-1.369094,
1.274848,-1.541026,1.071654,-1.688656,0.851559,-1.809654,0.618034,-1.902113,0.374763,-1.964575,0.125581,-1.996053,-0.125581,-1.996053,-0.374763,-1.964575,-0.618034,-1.902113,-0.851559,-1.809654,-1.071654,-1.688656,-1.274848,-1.541026,-1.457937,-1.369094,-1.618034,-1.175571,-1.752613,-0.963507,-1.859553,-0.736249,-1.937166,-0.497380,-1.984229,-0.250666,-1.990503,-0.150941,-1.995069,-0.146434,
-1.995127,-0.137495,-1.998942,-0.129411,-2.157387,3.152662,-2.166640,3.175000,-2.166640,7.429500,-2.151995,7.464855,-2.116640,7.479500,-0.234500,7.479500,-0.199145,7.464855,-0.199145,7.464855,$1*%
G04 Aperture macros list end*
%ADD10RoundRect,0.225000X-0.225000X-0.250000X0.225000X-0.250000X0.225000X0.250000X-0.225000X0.250000X0*%
%ADD11C,3.800000*%
%ADD12RoundRect,0.225000X-0.250000X0.225000X-0.250000X-0.225000X0.250000X-0.225000X0.250000X0.225000X0*%
%ADD13R,6.400000X5.800000*%
%ADD14R,2.200000X1.200000*%
%ADD15R,1.780000X0.420000*%
%ADD16R,3.000000X4.200000*%
%ADD17RoundRect,0.200000X-0.275000X0.200000X-0.275000X-0.200000X0.275000X-0.200000X0.275000X0.200000X0*%
%ADD18RoundRect,0.200000X0.275000X-0.200000X0.275000X0.200000X-0.275000X0.200000X-0.275000X-0.200000X0*%
%ADD19FreePoly0,270.000000*%
%ADD20FreePoly1,270.000000*%
%ADD21RoundRect,0.250000X-0.325000X-0.650000X0.325000X-0.650000X0.325000X0.650000X-0.325000X0.650000X0*%
%ADD22R,2.500000X2.300000*%
%ADD23RoundRect,0.048000X0.072000X-0.292000X0.072000X0.292000X-0.072000X0.292000X-0.072000X-0.292000X0*%
%ADD24RoundRect,0.048000X0.292000X0.072000X-0.292000X0.072000X-0.292000X-0.072000X0.292000X-0.072000X0*%
%ADD25RoundRect,0.051300X1.298700X-1.298700X1.298700X1.298700X-1.298700X1.298700X-1.298700X-1.298700X0*%
%ADD26RoundRect,0.225000X0.225000X0.250000X-0.225000X0.250000X-0.225000X-0.250000X0.225000X-0.250000X0*%
%ADD27RoundRect,0.250000X0.650000X-0.325000X0.650000X0.325000X-0.650000X0.325000X-0.650000X-0.325000X0*%
%ADD28R,1.600000X1.600000*%
%ADD29C,1.600000*%
%ADD30RoundRect,0.200000X0.200000X0.275000X-0.200000X0.275000X-0.200000X-0.275000X0.200000X-0.275000X0*%
%ADD31RoundRect,0.225000X0.250000X-0.225000X0.250000X0.225000X-0.250000X0.225000X-0.250000X-0.225000X0*%
%ADD32RoundRect,0.250000X0.312500X1.075000X-0.312500X1.075000X-0.312500X-1.075000X0.312500X-1.075000X0*%
%ADD33RoundRect,0.150000X0.150000X-0.587500X0.150000X0.587500X-0.150000X0.587500X-0.150000X-0.587500X0*%
%ADD34R,0.900000X1.200000*%
%ADD35R,2.500000X3.300000*%
%ADD36RoundRect,0.250000X-0.650000X0.325000X-0.650000X-0.325000X0.650000X-0.325000X0.650000X0.325000X0*%
%ADD37RoundRect,0.200000X-0.200000X-0.275000X0.200000X-0.275000X0.200000X0.275000X-0.200000X0.275000X0*%
%ADD38C,1.440000*%
%ADD39C,2.200000*%
%ADD40O,2.800000X1.600000*%
%ADD41FreePoly2,90.000000*%
%ADD42FreePoly3,90.000000*%
%ADD43RoundRect,0.243750X-0.456250X0.243750X-0.456250X-0.243750X0.456250X-0.243750X0.456250X0.243750X0*%
%ADD44RoundRect,0.659850X1.415150X5.590150X-1.415150X5.590150X-1.415150X-5.590150X1.415150X-5.590150X0*%
%ADD45R,2.000000X2.000000*%
%ADD46C,2.000000*%
%ADD47RoundRect,0.250000X1.425000X-0.362500X1.425000X0.362500X-1.425000X0.362500X-1.425000X-0.362500X0*%
%ADD48RoundRect,0.150000X0.150000X-0.825000X0.150000X0.825000X-0.150000X0.825000X-0.150000X-0.825000X0*%
%ADD49RoundRect,0.050000X-0.240000X0.150000X-0.240000X-0.150000X0.240000X-0.150000X0.240000X0.150000X0*%
%ADD50RoundRect,0.050000X-0.312500X0.150000X-0.312500X-0.150000X0.312500X-0.150000X0.312500X0.150000X0*%
%ADD51RoundRect,0.099185X-0.498315X-1.650815X0.498315X-1.650815X0.498315X1.650815X-0.498315X1.650815X0*%
%ADD52RoundRect,0.250000X0.325000X0.650000X-0.325000X0.650000X-0.325000X-0.650000X0.325000X-0.650000X0*%
%ADD53C,0.600000*%
%ADD54R,1.160000X0.600000*%
%ADD55R,1.160000X0.300000*%
%ADD56O,2.000000X0.900000*%
%ADD57O,1.700000X0.900000*%
%ADD58RoundRect,0.250000X-0.362500X-1.425000X0.362500X-1.425000X0.362500X1.425000X-0.362500X1.425000X0*%
%ADD59R,1.200000X0.900000*%
%ADD60RoundRect,0.408000X-1.092000X0.592000X-1.092000X-0.592000X1.092000X-0.592000X1.092000X0.592000X0*%
G04 APERTURE END LIST*
D10*
%TO.C,Crx2*%
X117225000Y-60200000D03*
X118775000Y-60200000D03*
%TD*%
D11*
%TO.C,H1*%
X34500000Y-33750000D03*
%TD*%
D12*
%TO.C,Cvpwr1*%
X112600000Y-54225000D03*
X112600000Y-55775000D03*
%TD*%
D13*
%TO.C,Dboost1*%
X90600000Y-57750000D03*
D14*
X84300000Y-55470000D03*
X84300000Y-60030000D03*
%TD*%
D15*
%TO.C,U1*%
X109030000Y-31075000D03*
X109030000Y-31725000D03*
X109030000Y-32375000D03*
X109030000Y-33025000D03*
X109030000Y-33675000D03*
X109030000Y-34325000D03*
X109030000Y-34975000D03*
X109030000Y-35625000D03*
X109030000Y-36275000D03*
X109030000Y-36925000D03*
X114970000Y-36925000D03*
X114970000Y-36275000D03*
X114970000Y-35625000D03*
X114970000Y-34975000D03*
X114970000Y-34325000D03*
X114970000Y-33675000D03*
X114970000Y-33025000D03*
X114970000Y-32375000D03*
X114970000Y-31725000D03*
X114970000Y-31075000D03*
D16*
X112000000Y-34000000D03*
%TD*%
D17*
%TO.C,Rt1*%
X104600000Y-32875000D03*
X104600000Y-34525000D03*
%TD*%
D14*
%TO.C,Q4*%
X46450000Y-45720000D03*
D13*
X52750000Y-48000000D03*
D14*
X46450000Y-50280000D03*
%TD*%
%TO.C,Q2*%
X46450000Y-38620000D03*
D13*
X52750000Y-40900000D03*
D14*
X46450000Y-43180000D03*
%TD*%
D17*
%TO.C,Rsel1*%
X121200000Y-55975000D03*
X121200000Y-57625000D03*
%TD*%
D18*
%TO.C,Ruv1*%
X38950000Y-60575000D03*
X38950000Y-58925000D03*
%TD*%
D19*
%TO.C,JP1*%
X110100000Y-58900000D03*
D20*
X110100000Y-60200000D03*
%TD*%
D21*
%TO.C,C4*%
X67825000Y-42600000D03*
X70775000Y-42600000D03*
%TD*%
D22*
%TO.C,D5*%
X123850000Y-53700000D03*
X128150000Y-53700000D03*
%TD*%
D21*
%TO.C,C6*%
X67825000Y-47600000D03*
X70775000Y-47600000D03*
%TD*%
D14*
%TO.C,Q1*%
X111850000Y-51880000D03*
D13*
X105550000Y-49600000D03*
D14*
X111850000Y-47320000D03*
%TD*%
D21*
%TO.C,C5*%
X67825000Y-45100000D03*
X70775000Y-45100000D03*
%TD*%
D17*
%TO.C,Rcomp1*%
X104800000Y-36075000D03*
X104800000Y-37725000D03*
%TD*%
D23*
%TO.C,IC2*%
X115500000Y-57262500D03*
X116000000Y-57262500D03*
X116500000Y-57262500D03*
X117000000Y-57262500D03*
X117500000Y-57262500D03*
X118000000Y-57262500D03*
D24*
X118712500Y-56550000D03*
X118712500Y-56050000D03*
X118712500Y-55550000D03*
X118712500Y-55050000D03*
X118712500Y-54550000D03*
X118712500Y-54050000D03*
D23*
X118000000Y-53337500D03*
X117500000Y-53337500D03*
X117000000Y-53337500D03*
X116500000Y-53337500D03*
X116000000Y-53337500D03*
X115500000Y-53337500D03*
D24*
X114787500Y-54050000D03*
X114787500Y-54550000D03*
X114787500Y-55050000D03*
X114787500Y-55550000D03*
X114787500Y-56050000D03*
X114787500Y-56550000D03*
D25*
X116750000Y-55300000D03*
%TD*%
D26*
%TO.C,Cvtx1*%
X113650000Y-58600000D03*
X112100000Y-58600000D03*
%TD*%
D27*
%TO.C,C9*%
X69200000Y-58075000D03*
X69200000Y-55125000D03*
%TD*%
D28*
%TO.C,Cout2*%
X97700000Y-48400000D03*
D29*
X97700000Y-51900000D03*
%TD*%
D30*
%TO.C,R6*%
X121350000Y-45550000D03*
X119700000Y-45550000D03*
%TD*%
D31*
%TO.C,C2*%
X107100000Y-55625000D03*
X107100000Y-54075000D03*
%TD*%
D26*
%TO.C,Cinx1*%
X102975000Y-31100000D03*
X101425000Y-31100000D03*
%TD*%
D32*
%TO.C,R1*%
X104362500Y-54900000D03*
X101437500Y-54900000D03*
%TD*%
D21*
%TO.C,C8*%
X67825000Y-52600000D03*
X70775000Y-52600000D03*
%TD*%
D14*
%TO.C,Qbuck1*%
X80900000Y-60030000D03*
D13*
X74600000Y-57750000D03*
D14*
X80900000Y-55470000D03*
%TD*%
D33*
%TO.C,Q5*%
X109000000Y-56637500D03*
X110900000Y-56637500D03*
X109950000Y-54762500D03*
%TD*%
D34*
%TO.C,D3*%
X42200000Y-36400000D03*
X45500000Y-36400000D03*
%TD*%
D35*
%TO.C,D1*%
X54800000Y-33500000D03*
X48000000Y-33500000D03*
%TD*%
D26*
%TO.C,Crx1*%
X115575000Y-60200000D03*
X114025000Y-60200000D03*
%TD*%
D36*
%TO.C,C1*%
X101000000Y-57525000D03*
X101000000Y-60475000D03*
%TD*%
D18*
%TO.C,R4*%
X45200000Y-34175000D03*
X45200000Y-32525000D03*
%TD*%
%TO.C,Rfbl2*%
X120600000Y-35025000D03*
X120600000Y-33375000D03*
%TD*%
D10*
%TO.C,Cvaux1*%
X117775000Y-51050000D03*
X119325000Y-51050000D03*
%TD*%
D21*
%TO.C,C12*%
X95125000Y-60150000D03*
X98075000Y-60150000D03*
%TD*%
%TO.C,C14*%
X95125000Y-55500000D03*
X98075000Y-55500000D03*
%TD*%
D31*
%TO.C,Cslu1*%
X119100000Y-38275000D03*
X119100000Y-36725000D03*
%TD*%
D36*
%TO.C,C3*%
X121250000Y-47475000D03*
X121250000Y-50425000D03*
%TD*%
D37*
%TO.C,Rslew1*%
X114600000Y-49400000D03*
X116250000Y-49400000D03*
%TD*%
D12*
%TO.C,Csll1*%
X122100000Y-36725000D03*
X122100000Y-38275000D03*
%TD*%
D17*
%TO.C,R3*%
X114100000Y-43475000D03*
X114100000Y-45125000D03*
%TD*%
D28*
%TO.C,Cout1*%
X97700000Y-43302651D03*
D29*
X97700000Y-39802651D03*
%TD*%
D38*
%TO.C,RV1*%
X48650000Y-57350000D03*
X51190000Y-59890000D03*
X53730000Y-57350000D03*
%TD*%
D37*
%TO.C,R7*%
X121295000Y-59320000D03*
X122945000Y-59320000D03*
%TD*%
D18*
%TO.C,R14*%
X73400000Y-34575000D03*
X73400000Y-32925000D03*
%TD*%
D39*
%TO.C,J1*%
X38125000Y-48540000D03*
D40*
X35300000Y-52750000D03*
D41*
X41300000Y-49600000D03*
D39*
X38125000Y-43460000D03*
D42*
X41300000Y-42400000D03*
D40*
X35300000Y-39250000D03*
%TD*%
D17*
%TO.C,R8*%
X107800000Y-58500000D03*
X107800000Y-60150000D03*
%TD*%
D43*
%TO.C,D4*%
X127700000Y-37312500D03*
X127700000Y-39187500D03*
%TD*%
D21*
%TO.C,C13*%
X95125000Y-57850000D03*
X98075000Y-57850000D03*
%TD*%
D11*
%TO.C,H2*%
X34500000Y-58250000D03*
%TD*%
D30*
%TO.C,R9*%
X125225000Y-39800000D03*
X123575000Y-39800000D03*
%TD*%
D12*
%TO.C,C11*%
X71900000Y-32975000D03*
X71900000Y-34525000D03*
%TD*%
D21*
%TO.C,C7*%
X67825000Y-50100000D03*
X70775000Y-50100000D03*
%TD*%
D18*
%TO.C,Rfbl3*%
X122100000Y-35025000D03*
X122100000Y-33375000D03*
%TD*%
D44*
%TO.C,L1*%
X90775000Y-45900000D03*
X74425000Y-45900000D03*
%TD*%
D37*
%TO.C,R2*%
X111275000Y-49750000D03*
X112925000Y-49750000D03*
%TD*%
D10*
%TO.C,Cslew1*%
X115675000Y-47775000D03*
X117225000Y-47775000D03*
%TD*%
D45*
%TO.C,Cinbulk3*%
X61800000Y-54400000D03*
D46*
X61800000Y-59400000D03*
%TD*%
D18*
%TO.C,Rfbt1*%
X120600000Y-38325000D03*
X120600000Y-36675000D03*
%TD*%
D47*
%TO.C,Rsense1*%
X69100000Y-39312500D03*
X69100000Y-33387500D03*
%TD*%
D11*
%TO.C,H3*%
X126000000Y-33450000D03*
%TD*%
D48*
%TO.C,IC3*%
X40960000Y-60010000D03*
X42230000Y-60010000D03*
X43500000Y-60010000D03*
X44770000Y-60010000D03*
X44770000Y-55060000D03*
X43500000Y-55060000D03*
X42230000Y-55060000D03*
X40960000Y-55060000D03*
%TD*%
D11*
%TO.C,H4*%
X126000000Y-58250000D03*
%TD*%
D45*
%TO.C,Cinbulk1*%
X61800000Y-32800000D03*
D46*
X61800000Y-37800000D03*
%TD*%
D10*
%TO.C,Cvdd1*%
X114625000Y-51050000D03*
X116175000Y-51050000D03*
%TD*%
D17*
%TO.C,Rramp1*%
X101500000Y-32875000D03*
X101500000Y-34525000D03*
%TD*%
D49*
%TO.C,IC1*%
X103020000Y-57920000D03*
X103020000Y-59870000D03*
D50*
X106110000Y-59870000D03*
X106110000Y-59220000D03*
X106110000Y-58570000D03*
X106110000Y-57920000D03*
D51*
X105010000Y-58895000D03*
%TD*%
D31*
%TO.C,Cf1*%
X117450000Y-46175000D03*
X117450000Y-44625000D03*
%TD*%
D52*
%TO.C,C16*%
X98075000Y-33900000D03*
X95125000Y-33900000D03*
%TD*%
D14*
%TO.C,Q3*%
X111800000Y-44530000D03*
D13*
X105500000Y-42250000D03*
D14*
X111800000Y-39970000D03*
%TD*%
D12*
%TO.C,Css1*%
X106300000Y-32925000D03*
X106300000Y-34475000D03*
%TD*%
D53*
%TO.C,J2*%
X125050000Y-43110000D03*
X125050000Y-48890000D03*
D54*
X123990000Y-49200000D03*
X123990000Y-48400000D03*
D55*
X123990000Y-47250000D03*
X123990000Y-46250000D03*
X123990000Y-45750000D03*
X123990000Y-44750000D03*
D54*
X123990000Y-43600000D03*
X123990000Y-42800000D03*
X123990000Y-42800000D03*
X123990000Y-43600000D03*
D55*
X123990000Y-44250000D03*
X123990000Y-45250000D03*
X123990000Y-46750000D03*
X123990000Y-47750000D03*
D54*
X123990000Y-48400000D03*
X123990000Y-49200000D03*
D56*
X124570000Y-50320000D03*
X124570000Y-41680000D03*
D57*
X128740000Y-41680000D03*
X128740000Y-50320000D03*
%TD*%
D12*
%TO.C,Ccomp2*%
X103300000Y-36125000D03*
X103300000Y-37675000D03*
%TD*%
D17*
%TO.C,R12*%
X92900000Y-33075000D03*
X92900000Y-34725000D03*
%TD*%
D14*
%TO.C,Qboost1*%
X92600000Y-36030000D03*
D13*
X86300000Y-33750000D03*
D14*
X92600000Y-31470000D03*
%TD*%
D52*
%TO.C,C15*%
X98075000Y-36200000D03*
X95125000Y-36200000D03*
%TD*%
D12*
%TO.C,Ccomp1*%
X106300000Y-36125000D03*
X106300000Y-37675000D03*
%TD*%
D18*
%TO.C,Ruv2*%
X38900000Y-57325000D03*
X38900000Y-55675000D03*
%TD*%
D58*
%TO.C,R5*%
X115837500Y-41800000D03*
X121762500Y-41800000D03*
%TD*%
D17*
%TO.C,R13*%
X123600000Y-36675000D03*
X123600000Y-38325000D03*
%TD*%
D12*
%TO.C,Cvcc1*%
X117600000Y-33425000D03*
X117600000Y-34975000D03*
%TD*%
D59*
%TO.C,D2*%
X42650000Y-34150000D03*
X42650000Y-30850000D03*
%TD*%
D60*
%TO.C,F1*%
X39300000Y-31487500D03*
X39300000Y-36550000D03*
%TD*%
D10*
%TO.C,C10*%
X117625000Y-31100000D03*
X119175000Y-31100000D03*
%TD*%
D45*
%TO.C,Cinbulk2*%
X61750000Y-48535354D03*
D46*
X61750000Y-43535354D03*
%TD*%
D18*
%TO.C,Rfbl1*%
X119100000Y-35025000D03*
X119100000Y-33375000D03*
%TD*%
D13*
%TO.C,Dbuck1*%
X78850000Y-33750000D03*
D14*
X72550000Y-31470000D03*
X72550000Y-36030000D03*
%TD*%
D31*
%TO.C,Cdvdd1*%
X120800000Y-53600000D03*
X120800000Y-52050000D03*
%TD*%
D17*
%TO.C,R11*%
X81200000Y-57075000D03*
X81200000Y-58725000D03*
%TD*%
%TO.C,Rf1*%
X115700000Y-44575000D03*
X115700000Y-46225000D03*
%TD*%
D18*
%TO.C,R10*%
X101800000Y-37725000D03*
X101800000Y-36075000D03*
%TD*%
D52*
%TO.C,C17*%
X98075000Y-31600000D03*
X95125000Y-31600000D03*
%TD*%
D12*
%TO.C,Cramp1*%
X103000000Y-32925000D03*
X103000000Y-34475000D03*
%TD*%
M02*
