%TF.GenerationSoftware,KiCad,Pcbnew,(5.99.0-10682-g4bb4606811)*%
%TF.CreationDate,2021-08-27T09:32:20+01:00*%
%TF.ProjectId,dc-to-pd-2,64632d74-6f2d-4706-942d-322e6b696361,rev?*%
%TF.SameCoordinates,Original*%
%TF.FileFunction,Legend,Bot*%
%TF.FilePolarity,Positive*%
%FSLAX46Y46*%
G04 Gerber Fmt 4.6, Leading zero omitted, Abs format (unit mm)*
G04 Created by KiCad (PCBNEW (5.99.0-10682-g4bb4606811)) date 2021-08-27 09:32:20*
%MOMM*%
%LPD*%
G01*
G04 APERTURE LIST*
G04 Aperture macros list*
%AMFreePoly0*
4,1,52,2.135355,7.464855,2.150000,7.429500,2.150000,3.175000,2.148124,3.170471,2.148343,3.170047,2.149457,3.156966,2.153880,3.144602,1.999473,0.008374,2.000000,0.000000,1.984229,-0.250666,1.937166,-0.497380,1.859553,-0.736249,1.752613,-0.963507,1.618034,-1.175571,1.457937,-1.369094,1.274848,-1.541026,1.071654,-1.688656,0.851559,-1.809654,0.618034,-1.902113,0.374763,-1.964575,
0.125581,-1.996053,-0.125581,-1.996053,-0.374763,-1.964575,-0.618034,-1.902113,-0.851559,-1.809654,-1.071654,-1.688656,-1.274848,-1.541026,-1.457937,-1.369094,-1.618034,-1.175571,-1.752613,-0.963507,-1.859553,-0.736249,-1.937166,-0.497380,-1.984229,-0.250666,-2.000000,0.000000,-1.984229,0.250666,-1.937166,0.497380,-1.859553,0.736249,-1.776167,0.913453,-1.775454,0.916957,-1.772357,0.921549,
-1.752613,0.963507,-1.618034,1.175571,-1.526061,1.286747,0.066046,3.647457,0.079502,3.656364,0.091689,3.666934,0.167860,3.692324,0.167860,7.429500,0.182505,7.464855,0.217860,7.479500,2.100000,7.479500,2.135355,7.464855,2.135355,7.464855,$1*%
%AMFreePoly1*
4,1,49,-0.199145,7.464855,-0.184500,7.429500,-0.184500,3.805567,-0.165806,3.789025,-0.162929,3.783124,-0.157457,3.779494,1.488463,1.333474,1.488806,1.331781,1.618034,1.175571,1.752613,0.963507,1.859553,0.736249,1.937166,0.497380,1.984229,0.250666,2.000000,0.000000,1.984229,-0.250666,1.937166,-0.497380,1.859553,-0.736249,1.752613,-0.963507,1.618034,-1.175571,1.457937,-1.369094,
1.274848,-1.541026,1.071654,-1.688656,0.851559,-1.809654,0.618034,-1.902113,0.374763,-1.964575,0.125581,-1.996053,-0.125581,-1.996053,-0.374763,-1.964575,-0.618034,-1.902113,-0.851559,-1.809654,-1.071654,-1.688656,-1.274848,-1.541026,-1.457937,-1.369094,-1.618034,-1.175571,-1.752613,-0.963507,-1.859553,-0.736249,-1.937166,-0.497380,-1.984229,-0.250666,-1.990503,-0.150941,-1.995069,-0.146434,
-1.995127,-0.137495,-1.998942,-0.129411,-2.157387,3.152662,-2.166640,3.175000,-2.166640,7.429500,-2.151995,7.464855,-2.116640,7.479500,-0.234500,7.479500,-0.199145,7.464855,-0.199145,7.464855,$1*%
G04 Aperture macros list end*
%ADD10C,0.153000*%
%ADD11C,3.800000*%
%ADD12R,1.600000X1.600000*%
%ADD13C,1.600000*%
%ADD14C,1.440000*%
%ADD15C,2.200000*%
%ADD16O,2.800000X1.600000*%
%ADD17FreePoly0,90.000000*%
%ADD18FreePoly1,90.000000*%
%ADD19R,2.000000X2.000000*%
%ADD20C,2.000000*%
%ADD21C,0.600000*%
%ADD22O,2.000000X0.900000*%
%ADD23O,1.700000X0.900000*%
G04 APERTURE END LIST*
D10*
X86295238Y-45717904D02*
X86295238Y-44917904D01*
X86104761Y-44917904D01*
X85990476Y-44956000D01*
X85914285Y-45032190D01*
X85876190Y-45108380D01*
X85838095Y-45260761D01*
X85838095Y-45375047D01*
X85876190Y-45527428D01*
X85914285Y-45603619D01*
X85990476Y-45679809D01*
X86104761Y-45717904D01*
X86295238Y-45717904D01*
X85038095Y-45641714D02*
X85076190Y-45679809D01*
X85190476Y-45717904D01*
X85266666Y-45717904D01*
X85380952Y-45679809D01*
X85457142Y-45603619D01*
X85495238Y-45527428D01*
X85533333Y-45375047D01*
X85533333Y-45260761D01*
X85495238Y-45108380D01*
X85457142Y-45032190D01*
X85380952Y-44956000D01*
X85266666Y-44917904D01*
X85190476Y-44917904D01*
X85076190Y-44956000D01*
X85038095Y-44994095D01*
X84200000Y-45184571D02*
X83895238Y-45184571D01*
X84085714Y-44917904D02*
X84085714Y-45603619D01*
X84047619Y-45679809D01*
X83971428Y-45717904D01*
X83895238Y-45717904D01*
X83514285Y-45717904D02*
X83590476Y-45679809D01*
X83628571Y-45641714D01*
X83666666Y-45565523D01*
X83666666Y-45336952D01*
X83628571Y-45260761D01*
X83590476Y-45222666D01*
X83514285Y-45184571D01*
X83400000Y-45184571D01*
X83323809Y-45222666D01*
X83285714Y-45260761D01*
X83247619Y-45336952D01*
X83247619Y-45565523D01*
X83285714Y-45641714D01*
X83323809Y-45679809D01*
X83400000Y-45717904D01*
X83514285Y-45717904D01*
X82295238Y-45717904D02*
X82295238Y-44917904D01*
X81990476Y-44917904D01*
X81914285Y-44956000D01*
X81876190Y-44994095D01*
X81838095Y-45070285D01*
X81838095Y-45184571D01*
X81876190Y-45260761D01*
X81914285Y-45298857D01*
X81990476Y-45336952D01*
X82295238Y-45336952D01*
X81495238Y-45717904D02*
X81495238Y-44917904D01*
X81304761Y-44917904D01*
X81190476Y-44956000D01*
X81114285Y-45032190D01*
X81076190Y-45108380D01*
X81038095Y-45260761D01*
X81038095Y-45375047D01*
X81076190Y-45527428D01*
X81114285Y-45603619D01*
X81190476Y-45679809D01*
X81304761Y-45717904D01*
X81495238Y-45717904D01*
X79628571Y-45717904D02*
X79895238Y-45336952D01*
X80085714Y-45717904D02*
X80085714Y-44917904D01*
X79780952Y-44917904D01*
X79704761Y-44956000D01*
X79666666Y-44994095D01*
X79628571Y-45070285D01*
X79628571Y-45184571D01*
X79666666Y-45260761D01*
X79704761Y-45298857D01*
X79780952Y-45336952D01*
X80085714Y-45336952D01*
X78866666Y-45717904D02*
X79323809Y-45717904D01*
X79095238Y-45717904D02*
X79095238Y-44917904D01*
X79171428Y-45032190D01*
X79247619Y-45108380D01*
X79323809Y-45146476D01*
X85971428Y-46205904D02*
X85971428Y-46777333D01*
X86009523Y-46891619D01*
X86085714Y-46967809D01*
X86200000Y-47005904D01*
X86276190Y-47005904D01*
X85476190Y-47005904D02*
X85552380Y-46967809D01*
X85590476Y-46929714D01*
X85628571Y-46853523D01*
X85628571Y-46624952D01*
X85590476Y-46548761D01*
X85552380Y-46510666D01*
X85476190Y-46472571D01*
X85361904Y-46472571D01*
X85285714Y-46510666D01*
X85247619Y-46548761D01*
X85209523Y-46624952D01*
X85209523Y-46853523D01*
X85247619Y-46929714D01*
X85285714Y-46967809D01*
X85361904Y-47005904D01*
X85476190Y-47005904D01*
X84866666Y-46472571D02*
X84866666Y-47005904D01*
X84866666Y-46548761D02*
X84828571Y-46510666D01*
X84752380Y-46472571D01*
X84638095Y-46472571D01*
X84561904Y-46510666D01*
X84523809Y-46586857D01*
X84523809Y-47005904D01*
X83800000Y-47005904D02*
X83800000Y-46586857D01*
X83838095Y-46510666D01*
X83914285Y-46472571D01*
X84066666Y-46472571D01*
X84142857Y-46510666D01*
X83800000Y-46967809D02*
X83876190Y-47005904D01*
X84066666Y-47005904D01*
X84142857Y-46967809D01*
X84180952Y-46891619D01*
X84180952Y-46815428D01*
X84142857Y-46739238D01*
X84066666Y-46701142D01*
X83876190Y-46701142D01*
X83800000Y-46663047D01*
X83457142Y-46967809D02*
X83380952Y-47005904D01*
X83228571Y-47005904D01*
X83152380Y-46967809D01*
X83114285Y-46891619D01*
X83114285Y-46853523D01*
X83152380Y-46777333D01*
X83228571Y-46739238D01*
X83342857Y-46739238D01*
X83419047Y-46701142D01*
X83457142Y-46624952D01*
X83457142Y-46586857D01*
X83419047Y-46510666D01*
X83342857Y-46472571D01*
X83228571Y-46472571D01*
X83152380Y-46510666D01*
X81704761Y-46929714D02*
X81742857Y-46967809D01*
X81857142Y-47005904D01*
X81933333Y-47005904D01*
X82047619Y-46967809D01*
X82123809Y-46891619D01*
X82161904Y-46815428D01*
X82200000Y-46663047D01*
X82200000Y-46548761D01*
X82161904Y-46396380D01*
X82123809Y-46320190D01*
X82047619Y-46244000D01*
X81933333Y-46205904D01*
X81857142Y-46205904D01*
X81742857Y-46244000D01*
X81704761Y-46282095D01*
X81438095Y-46472571D02*
X81019047Y-46472571D01*
X81438095Y-47005904D01*
X81019047Y-47005904D01*
X80409523Y-46967809D02*
X80485714Y-47005904D01*
X80638095Y-47005904D01*
X80714285Y-46967809D01*
X80752380Y-46891619D01*
X80752380Y-46586857D01*
X80714285Y-46510666D01*
X80638095Y-46472571D01*
X80485714Y-46472571D01*
X80409523Y-46510666D01*
X80371428Y-46586857D01*
X80371428Y-46663047D01*
X80752380Y-46739238D01*
X79685714Y-46967809D02*
X79761904Y-47005904D01*
X79914285Y-47005904D01*
X79990476Y-46967809D01*
X80028571Y-46929714D01*
X80066666Y-46853523D01*
X80066666Y-46624952D01*
X80028571Y-46548761D01*
X79990476Y-46510666D01*
X79914285Y-46472571D01*
X79761904Y-46472571D01*
X79685714Y-46510666D01*
X79342857Y-47005904D02*
X79342857Y-46205904D01*
X79000000Y-47005904D02*
X79000000Y-46586857D01*
X79038095Y-46510666D01*
X79114285Y-46472571D01*
X79228571Y-46472571D01*
X79304761Y-46510666D01*
X79342857Y-46548761D01*
%LPC*%
D11*
%TO.C,H1*%
X34500000Y-33750000D03*
%TD*%
D12*
%TO.C,Cout2*%
X97700000Y-48400000D03*
D13*
X97700000Y-51900000D03*
%TD*%
D12*
%TO.C,Cout1*%
X97700000Y-43302651D03*
D13*
X97700000Y-39802651D03*
%TD*%
D14*
%TO.C,RV1*%
X48650000Y-57350000D03*
X51190000Y-59890000D03*
X53730000Y-57350000D03*
%TD*%
D15*
%TO.C,J1*%
X38125000Y-48540000D03*
D16*
X35300000Y-52750000D03*
D17*
X41300000Y-49600000D03*
D15*
X38125000Y-43460000D03*
D18*
X41300000Y-42400000D03*
D16*
X35300000Y-39250000D03*
%TD*%
D11*
%TO.C,H2*%
X34500000Y-58250000D03*
%TD*%
D19*
%TO.C,Cinbulk3*%
X61800000Y-54400000D03*
D20*
X61800000Y-59400000D03*
%TD*%
D11*
%TO.C,H3*%
X126000000Y-33450000D03*
%TD*%
%TO.C,H4*%
X126000000Y-58250000D03*
%TD*%
D19*
%TO.C,Cinbulk1*%
X61800000Y-32800000D03*
D20*
X61800000Y-37800000D03*
%TD*%
D21*
%TO.C,J2*%
X125050000Y-43110000D03*
X125050000Y-48890000D03*
D22*
X124570000Y-50320000D03*
X124570000Y-41680000D03*
D23*
X128740000Y-41680000D03*
X128740000Y-50320000D03*
%TD*%
D19*
%TO.C,Cinbulk2*%
X61750000Y-48535354D03*
D20*
X61750000Y-43535354D03*
%TD*%
G36*
X55762170Y-45302421D02*
G01*
X55821089Y-45314140D01*
X55866512Y-45332955D01*
X55905939Y-45359300D01*
X55940700Y-45394061D01*
X55967045Y-45433488D01*
X55985860Y-45478911D01*
X55997579Y-45537830D01*
X56000000Y-45562410D01*
X56000000Y-50837590D01*
X55997579Y-50862170D01*
X55985860Y-50921089D01*
X55967045Y-50966512D01*
X55940700Y-51005939D01*
X55905939Y-51040700D01*
X55866512Y-51067045D01*
X55821089Y-51085860D01*
X55762170Y-51097579D01*
X55737590Y-51100000D01*
X49562410Y-51100000D01*
X49537830Y-51097579D01*
X49478911Y-51085860D01*
X49433488Y-51067045D01*
X49394061Y-51040700D01*
X49359300Y-51005939D01*
X49332955Y-50966512D01*
X49314140Y-50921089D01*
X49302421Y-50862170D01*
X49300000Y-50837590D01*
X49300000Y-45562410D01*
X49302421Y-45537830D01*
X49314140Y-45478911D01*
X49332955Y-45433488D01*
X49359300Y-45394061D01*
X49394061Y-45359300D01*
X49433488Y-45332955D01*
X49478911Y-45314140D01*
X49537830Y-45302421D01*
X49562410Y-45300000D01*
X55737590Y-45300000D01*
X55762170Y-45302421D01*
G37*
G36*
X108162170Y-46602421D02*
G01*
X108221089Y-46614140D01*
X108266512Y-46632955D01*
X108305939Y-46659300D01*
X108340700Y-46694061D01*
X108367045Y-46733488D01*
X108385860Y-46778911D01*
X108397579Y-46837830D01*
X108400000Y-46862410D01*
X108400000Y-52337590D01*
X108397579Y-52362170D01*
X108385860Y-52421089D01*
X108367045Y-52466512D01*
X108340700Y-52505939D01*
X108305939Y-52540700D01*
X108266512Y-52567045D01*
X108221089Y-52585860D01*
X108162170Y-52597579D01*
X108137590Y-52600000D01*
X102162410Y-52600000D01*
X102137830Y-52597579D01*
X102078911Y-52585860D01*
X102033488Y-52567045D01*
X101994061Y-52540700D01*
X101959300Y-52505939D01*
X101932955Y-52466512D01*
X101914140Y-52421089D01*
X101902421Y-52362170D01*
X101900000Y-52337590D01*
X101900000Y-46862410D01*
X101902421Y-46837830D01*
X101914140Y-46778911D01*
X101932955Y-46733488D01*
X101959300Y-46694061D01*
X101994061Y-46659300D01*
X102033488Y-46632955D01*
X102078911Y-46614140D01*
X102137830Y-46602421D01*
X102162410Y-46600000D01*
X108137590Y-46600000D01*
X108162170Y-46602421D01*
G37*
G36*
X113262170Y-31902421D02*
G01*
X113321089Y-31914140D01*
X113366512Y-31932955D01*
X113405939Y-31959300D01*
X113440700Y-31994061D01*
X113467045Y-32033488D01*
X113485860Y-32078911D01*
X113497579Y-32137830D01*
X113500000Y-32162410D01*
X113500000Y-35687590D01*
X113497579Y-35712170D01*
X113485860Y-35771089D01*
X113467045Y-35816512D01*
X113440700Y-35855939D01*
X113405939Y-35890700D01*
X113366512Y-35917045D01*
X113321089Y-35935860D01*
X113262170Y-35947579D01*
X113237590Y-35950000D01*
X110965963Y-35950000D01*
X110941382Y-35947579D01*
X110882465Y-35935860D01*
X110837044Y-35917046D01*
X110787093Y-35883670D01*
X110768000Y-35868000D01*
X110582000Y-35682000D01*
X110566330Y-35662907D01*
X110532954Y-35612956D01*
X110514140Y-35567535D01*
X110502421Y-35508618D01*
X110500000Y-35484037D01*
X110500000Y-32162410D01*
X110502421Y-32137830D01*
X110514140Y-32078911D01*
X110532955Y-32033488D01*
X110559300Y-31994061D01*
X110594061Y-31959300D01*
X110633488Y-31932955D01*
X110678911Y-31914140D01*
X110737830Y-31902421D01*
X110762410Y-31900000D01*
X113237590Y-31900000D01*
X113262170Y-31902421D01*
G37*
G36*
X81562170Y-30802421D02*
G01*
X81621089Y-30814140D01*
X81666512Y-30832955D01*
X81705939Y-30859300D01*
X81740700Y-30894061D01*
X81767045Y-30933488D01*
X81785860Y-30978911D01*
X81797579Y-31037830D01*
X81800000Y-31062410D01*
X81800000Y-36537590D01*
X81797579Y-36562170D01*
X81785860Y-36621089D01*
X81767045Y-36666512D01*
X81740700Y-36705939D01*
X81705939Y-36740700D01*
X81666512Y-36767045D01*
X81621089Y-36785860D01*
X81562170Y-36797579D01*
X81537590Y-36800000D01*
X75562410Y-36800000D01*
X75537830Y-36797579D01*
X75478911Y-36785860D01*
X75433488Y-36767045D01*
X75394061Y-36740700D01*
X75359300Y-36705939D01*
X75332955Y-36666512D01*
X75314140Y-36621089D01*
X75302421Y-36562170D01*
X75300000Y-36537590D01*
X75300000Y-31062410D01*
X75302421Y-31037830D01*
X75314140Y-30978911D01*
X75332955Y-30933488D01*
X75359300Y-30894061D01*
X75394061Y-30859300D01*
X75433488Y-30832955D01*
X75478911Y-30814140D01*
X75537830Y-30802421D01*
X75562410Y-30800000D01*
X81537590Y-30800000D01*
X81562170Y-30802421D01*
G37*
G36*
X77662170Y-54802421D02*
G01*
X77721089Y-54814140D01*
X77766512Y-54832955D01*
X77805939Y-54859300D01*
X77840700Y-54894061D01*
X77867045Y-54933488D01*
X77885860Y-54978911D01*
X77897579Y-55037830D01*
X77900000Y-55062410D01*
X77900000Y-60237590D01*
X77897579Y-60262170D01*
X77885860Y-60321089D01*
X77867045Y-60366512D01*
X77840700Y-60405939D01*
X77805939Y-60440700D01*
X77766512Y-60467045D01*
X77721089Y-60485860D01*
X77662170Y-60497579D01*
X77637590Y-60500000D01*
X71462410Y-60500000D01*
X71437830Y-60497579D01*
X71378911Y-60485860D01*
X71333488Y-60467045D01*
X71294061Y-60440700D01*
X71259300Y-60405939D01*
X71232955Y-60366512D01*
X71214140Y-60321089D01*
X71202421Y-60262170D01*
X71200000Y-60237590D01*
X71200000Y-55062410D01*
X71202421Y-55037830D01*
X71214140Y-54978911D01*
X71232955Y-54933488D01*
X71259300Y-54894061D01*
X71294061Y-54859300D01*
X71333488Y-54832955D01*
X71378911Y-54814140D01*
X71437830Y-54802421D01*
X71462410Y-54800000D01*
X77637590Y-54800000D01*
X77662170Y-54802421D01*
G37*
G36*
X89562170Y-30802421D02*
G01*
X89621089Y-30814140D01*
X89666512Y-30832955D01*
X89705939Y-30859300D01*
X89740700Y-30894061D01*
X89767045Y-30933488D01*
X89785860Y-30978911D01*
X89797579Y-31037830D01*
X89800000Y-31062410D01*
X89800000Y-36537590D01*
X89797579Y-36562170D01*
X89785860Y-36621089D01*
X89767045Y-36666512D01*
X89740700Y-36705939D01*
X89705939Y-36740700D01*
X89666512Y-36767045D01*
X89621089Y-36785860D01*
X89562170Y-36797579D01*
X89537590Y-36800000D01*
X83562410Y-36800000D01*
X83537830Y-36797579D01*
X83478911Y-36785860D01*
X83433488Y-36767045D01*
X83394061Y-36740700D01*
X83359300Y-36705939D01*
X83332955Y-36666512D01*
X83314140Y-36621089D01*
X83302421Y-36562170D01*
X83300000Y-36537590D01*
X83300000Y-31062410D01*
X83302421Y-31037830D01*
X83314140Y-30978911D01*
X83332955Y-30933488D01*
X83359300Y-30894061D01*
X83394061Y-30859300D01*
X83433488Y-30832955D01*
X83478911Y-30814140D01*
X83537830Y-30802421D01*
X83562410Y-30800000D01*
X89537590Y-30800000D01*
X89562170Y-30802421D01*
G37*
G36*
X55762170Y-37902421D02*
G01*
X55821089Y-37914140D01*
X55866512Y-37932955D01*
X55905939Y-37959300D01*
X55940700Y-37994061D01*
X55967045Y-38033488D01*
X55985860Y-38078911D01*
X55997579Y-38137830D01*
X56000000Y-38162410D01*
X56000000Y-43437590D01*
X55997579Y-43462170D01*
X55985860Y-43521089D01*
X55967045Y-43566512D01*
X55940700Y-43605939D01*
X55905939Y-43640700D01*
X55866512Y-43667045D01*
X55821089Y-43685860D01*
X55762170Y-43697579D01*
X55737590Y-43700000D01*
X49562410Y-43700000D01*
X49537830Y-43697579D01*
X49478911Y-43685860D01*
X49433488Y-43667045D01*
X49394061Y-43640700D01*
X49359300Y-43605939D01*
X49332955Y-43566512D01*
X49314140Y-43521089D01*
X49302421Y-43462170D01*
X49300000Y-43437590D01*
X49300000Y-38162410D01*
X49302421Y-38137830D01*
X49314140Y-38078911D01*
X49332955Y-38033488D01*
X49359300Y-37994061D01*
X49394061Y-37959300D01*
X49433488Y-37932955D01*
X49478911Y-37914140D01*
X49537830Y-37902421D01*
X49562410Y-37900000D01*
X55737590Y-37900000D01*
X55762170Y-37902421D01*
G37*
G36*
X108162170Y-39202421D02*
G01*
X108221089Y-39214140D01*
X108266512Y-39232955D01*
X108305939Y-39259300D01*
X108340700Y-39294061D01*
X108367045Y-39333488D01*
X108385860Y-39378911D01*
X108397579Y-39437830D01*
X108400000Y-39462410D01*
X108400000Y-44937590D01*
X108397579Y-44962170D01*
X108385860Y-45021089D01*
X108367045Y-45066512D01*
X108340700Y-45105939D01*
X108305939Y-45140700D01*
X108266512Y-45167045D01*
X108221089Y-45185860D01*
X108162170Y-45197579D01*
X108137590Y-45200000D01*
X102162410Y-45200000D01*
X102137830Y-45197579D01*
X102078911Y-45185860D01*
X102033488Y-45167045D01*
X101994061Y-45140700D01*
X101959300Y-45105939D01*
X101932955Y-45066512D01*
X101914140Y-45021089D01*
X101902421Y-44962170D01*
X101900000Y-44937590D01*
X101900000Y-39462410D01*
X101902421Y-39437830D01*
X101914140Y-39378911D01*
X101932955Y-39333488D01*
X101959300Y-39294061D01*
X101994061Y-39259300D01*
X102033488Y-39232955D01*
X102078911Y-39214140D01*
X102137830Y-39202421D01*
X102162410Y-39200000D01*
X108137590Y-39200000D01*
X108162170Y-39202421D01*
G37*
G36*
X93662170Y-54802421D02*
G01*
X93721089Y-54814140D01*
X93766512Y-54832955D01*
X93805939Y-54859300D01*
X93840700Y-54894061D01*
X93867045Y-54933488D01*
X93885860Y-54978911D01*
X93897579Y-55037830D01*
X93900000Y-55062410D01*
X93900000Y-60237590D01*
X93897579Y-60262170D01*
X93885860Y-60321089D01*
X93867045Y-60366512D01*
X93840700Y-60405939D01*
X93805939Y-60440700D01*
X93766512Y-60467045D01*
X93721089Y-60485860D01*
X93662170Y-60497579D01*
X93637590Y-60500000D01*
X87462410Y-60500000D01*
X87437830Y-60497579D01*
X87378911Y-60485860D01*
X87333488Y-60467045D01*
X87294061Y-60440700D01*
X87259300Y-60405939D01*
X87232955Y-60366512D01*
X87214140Y-60321089D01*
X87202421Y-60262170D01*
X87200000Y-60237590D01*
X87200000Y-55062410D01*
X87202421Y-55037830D01*
X87214140Y-54978911D01*
X87232955Y-54933488D01*
X87259300Y-54894061D01*
X87294061Y-54859300D01*
X87333488Y-54832955D01*
X87378911Y-54814140D01*
X87437830Y-54802421D01*
X87462410Y-54800000D01*
X93637590Y-54800000D01*
X93662170Y-54802421D01*
G37*
M02*
